<svg width="497" height="512" viewBox="0 0 497 512" fill="none" xmlns="http://www.w3.org/2000/svg">
<path d="M456.875 141.093C456.875 141.093 369.393 15.1476 260.171 1.81852C163.756 -10.0198 74.2613 36.0932 61.8027 135.718C57.3633 171.244 49.4638 210.491 35.4275 242.873C19.6829 279.193 -7.18186 309.431 13.3938 379.253C33.9695 449.076 120.864 512.13 184.027 512C247.191 511.869 306.524 454.451 355.477 402.234C404.43 350.017 560.32 300.911 456.875 141.093Z" fill="#003366"/>
<path opacity="0.7" d="M456.875 141.093C456.875 141.093 369.393 15.1476 260.171 1.81852C163.756 -10.0198 74.2613 36.0932 61.8027 135.718C57.3633 171.244 49.4638 210.491 35.4275 242.873C19.6829 279.193 -7.18186 309.431 13.3938 379.253C33.9695 449.076 120.864 512.13 184.027 512C247.191 511.869 306.524 454.451 355.477 402.234C404.43 350.017 560.32 300.911 456.875 141.093Z" fill="white"/>
<g opacity="0.3">
<path d="M106.021 176.282H24.3384L25.1653 160.516H106.848L106.021 176.282Z" stroke="black" stroke-width="0.233421" stroke-linecap="round" stroke-linejoin="round"/>
<path d="M106.021 198.36H24.3384L25.1653 182.594H106.848L106.021 198.36Z" stroke="black" stroke-width="0.233421" stroke-linecap="round" stroke-linejoin="round"/>
<path d="M106.021 220.436H24.3384L25.1653 204.67H106.848L106.021 220.436Z" stroke="black" stroke-width="0.233421" stroke-linecap="round" stroke-linejoin="round"/>
<path d="M106.021 242.512H24.3384L25.1653 226.746H106.848L106.021 242.512Z" stroke="black" stroke-width="0.233421" stroke-linecap="round" stroke-linejoin="round"/>
<path d="M106.021 264.601H24.3384L25.1653 248.824H106.848L106.021 264.601Z" stroke="black" stroke-width="0.233421" stroke-linecap="round" stroke-linejoin="round"/>
<path d="M106.021 286.68H24.3384L25.1653 270.902H106.848L106.021 286.68Z" stroke="black" stroke-width="0.233421" stroke-linecap="round" stroke-linejoin="round"/>
<path d="M106.021 308.756H24.3384L25.1653 292.979H106.848L106.021 308.756Z" stroke="black" stroke-width="0.233421" stroke-linecap="round" stroke-linejoin="round"/>
<path d="M106.021 330.834H24.3384L25.1653 315.057H106.848L106.021 330.834Z" stroke="black" stroke-width="0.233421" stroke-linecap="round" stroke-linejoin="round"/>
<path d="M106.021 352.912H24.3384L25.1653 337.135H106.848L106.021 352.912Z" stroke="black" stroke-width="0.233421" stroke-linecap="round" stroke-linejoin="round"/>
<path d="M106.021 374.988H24.3384L25.1653 359.211H106.848L106.021 374.988Z" stroke="black" stroke-width="0.233421" stroke-linecap="round" stroke-linejoin="round"/>
<path d="M106.021 397.065H24.3384L25.1653 381.299H106.848L106.021 397.065Z" stroke="black" stroke-width="0.233421" stroke-linecap="round" stroke-linejoin="round"/>
<path d="M192.394 176.282H110.712L111.539 160.516H193.221L192.394 176.282Z" stroke="black" stroke-width="0.233421" stroke-linecap="round" stroke-linejoin="round"/>
<path d="M192.394 198.36H110.712L111.539 182.594H193.221L192.394 198.36Z" stroke="black" stroke-width="0.233421" stroke-linecap="round" stroke-linejoin="round"/>
<path d="M192.394 220.436H110.712L111.539 204.67H193.221L192.394 220.436Z" stroke="black" stroke-width="0.233421" stroke-linecap="round" stroke-linejoin="round"/>
<path d="M192.394 242.512H110.712L111.539 226.746H193.221L192.394 242.512Z" stroke="black" stroke-width="0.233421" stroke-linecap="round" stroke-linejoin="round"/>
<path d="M192.394 264.601H110.712L111.539 248.824H193.221L192.394 264.601Z" stroke="black" stroke-width="0.233421" stroke-linecap="round" stroke-linejoin="round"/>
<path d="M192.394 286.68H110.712L111.539 270.902H193.221L192.394 286.68Z" stroke="black" stroke-width="0.233421" stroke-linecap="round" stroke-linejoin="round"/>
<path d="M192.394 308.756H110.712L111.539 292.979H193.221L192.394 308.756Z" stroke="black" stroke-width="0.233421" stroke-linecap="round" stroke-linejoin="round"/>
<path d="M192.394 330.834H110.712L111.539 315.057H193.221L192.394 330.834Z" stroke="black" stroke-width="0.233421" stroke-linecap="round" stroke-linejoin="round"/>
<path d="M192.394 352.912H110.712L111.539 337.135H193.221L192.394 352.912Z" stroke="black" stroke-width="0.233421" stroke-linecap="round" stroke-linejoin="round"/>
<path d="M192.394 374.988H110.712L111.539 359.211H193.221L192.394 374.988Z" stroke="black" stroke-width="0.233421" stroke-linecap="round" stroke-linejoin="round"/>
<path d="M192.394 397.065H110.712L111.539 381.299H193.221L192.394 397.065Z" stroke="black" stroke-width="0.233421" stroke-linecap="round" stroke-linejoin="round"/>
</g>
<g opacity="0.3">
<path d="M443.557 192.604H338.122V272.371H443.557V192.604Z" stroke="black" stroke-width="0.233421" stroke-linecap="round" stroke-linejoin="round"/>
<path d="M437.822 199.195H343.833V265.786H437.822V199.195Z" stroke="black" stroke-width="0.233421" stroke-linecap="round" stroke-linejoin="round"/>
<path d="M374.484 209.686H407.181" stroke="black" stroke-width="0.233421" stroke-linecap="round" stroke-linejoin="round"/>
<path d="M353.312 219.348H428.358" stroke="black" stroke-width="0.233421" stroke-linecap="round" stroke-linejoin="round"/>
<path d="M370.035 238.662H411.633" stroke="black" stroke-width="0.233421" stroke-linecap="round" stroke-linejoin="round"/>
<path d="M354.05 257.986H370.404" stroke="black" stroke-width="0.233421" stroke-linecap="round" stroke-linejoin="round"/>
<path d="M411.262 257.986H427.605" stroke="black" stroke-width="0.233421" stroke-linecap="round" stroke-linejoin="round"/>
</g>
<g opacity="0.3">
<path d="M472.184 289.191H394.582V347.904H472.184V289.191Z" stroke="black" stroke-width="0.233421" stroke-linecap="round" stroke-linejoin="round"/>
<path d="M467.973 294.043H398.792V343.061H467.973V294.043Z" stroke="black" stroke-width="0.233421" stroke-linecap="round" stroke-linejoin="round"/>
<path d="M421.359 301.77H445.416" stroke="black" stroke-width="0.233421" stroke-linecap="round" stroke-linejoin="round"/>
<path d="M405.768 308.875H461.01" stroke="black" stroke-width="0.233421" stroke-linecap="round" stroke-linejoin="round"/>
<path d="M418.075 323.096H448.704" stroke="black" stroke-width="0.233421" stroke-linecap="round" stroke-linejoin="round"/>
<path d="M406.312 337.316H418.346" stroke="black" stroke-width="0.233421" stroke-linecap="round" stroke-linejoin="round"/>
<path d="M448.42 337.316H460.454" stroke="black" stroke-width="0.233421" stroke-linecap="round" stroke-linejoin="round"/>
</g>
<path d="M382.285 330.496L269.635 326.579C264.993 326.419 260.35 326.419 255.708 326.579L150.762 330.496L155.419 183.147C155.593 177.569 155.593 171.984 155.419 166.391L150.762 27.3555H382.285V330.496Z" fill="#263238" stroke="#263238" stroke-width="0.233421" stroke-linecap="round" stroke-linejoin="round"/>
<path d="M386.007 22.1543H154.484V325.295H386.007V22.1543Z" fill="white" stroke="#263238" stroke-width="0.233421" stroke-linecap="round" stroke-linejoin="round"/>
<path d="M370.609 104.771H169.869V307.982H370.609V104.771Z" fill="white" stroke="#263238" stroke-width="0.233421" stroke-linecap="round" stroke-linejoin="round"/>
<path d="M284.128 48.7031H369.945" stroke="#263238" stroke-width="0.233421" stroke-linecap="round" stroke-linejoin="round"/>
<path d="M284.128 67.2207H369.945" stroke="#263238" stroke-width="0.233421" stroke-linecap="round" stroke-linejoin="round"/>
<path d="M302.66 59.2031H369.947" stroke="#263238" stroke-width="0.233421" stroke-linecap="round" stroke-linejoin="round"/>
<path d="M302.66 75.8711H369.947" stroke="#263238" stroke-width="0.233421" stroke-linecap="round" stroke-linejoin="round"/>
<path d="M176.701 127.111H243.999" stroke="#263238" stroke-width="0.233421" stroke-linecap="round" stroke-linejoin="round"/>
<path d="M176.701 144.684H243.999" stroke="#263238" stroke-width="0.233421" stroke-linecap="round" stroke-linejoin="round"/>
<path d="M176.701 136.195H278.579" stroke="#263238" stroke-width="0.233421" stroke-linecap="round" stroke-linejoin="round"/>
<path d="M176.701 166.098H243.999" stroke="#263238" stroke-width="0.233421" stroke-linecap="round" stroke-linejoin="round"/>
<path d="M176.701 183.67H243.999" stroke="#263238" stroke-width="0.233421" stroke-linecap="round" stroke-linejoin="round"/>
<path d="M176.701 175.182H278.579" stroke="#263238" stroke-width="0.233421" stroke-linecap="round" stroke-linejoin="round"/>
<path d="M175.267 297.025H239.061" stroke="#263238" stroke-width="0.233421" stroke-linecap="round" stroke-linejoin="round"/>
<path d="M296.24 297.025H360.035" stroke="#263238" stroke-width="0.233421" stroke-linecap="round" stroke-linejoin="round"/>
<path d="M184.265 226.985C180.45 229.405 177.439 232.902 175.61 237.034C173.782 241.165 173.22 245.745 173.994 250.196C174.769 254.647 176.845 258.769 179.961 262.04C183.077 265.311 187.093 267.585 191.501 268.574C195.909 269.564 200.512 269.225 204.727 267.599C208.942 265.974 212.581 263.135 215.183 259.443C217.786 255.75 219.235 251.368 219.349 246.852C219.462 242.336 218.234 237.887 215.819 234.069C214.214 231.53 212.124 229.332 209.669 227.602C207.214 225.872 204.442 224.642 201.511 223.985C198.58 223.327 195.548 223.253 192.589 223.768C189.63 224.283 186.801 225.376 184.265 226.985ZM206.19 261.554C203.174 263.464 199.66 264.438 196.091 264.352C192.523 264.265 189.06 263.122 186.14 261.068C183.221 259.014 180.976 256.14 179.69 252.81C178.403 249.48 178.133 245.843 178.914 242.359C179.694 238.876 181.49 235.702 184.074 233.239C186.658 230.776 189.914 229.134 193.431 228.522C196.948 227.909 200.567 228.353 203.832 229.798C207.097 231.242 209.86 233.622 211.772 236.637C213.042 238.639 213.905 240.872 214.312 243.208C214.719 245.544 214.661 247.938 214.143 250.252C213.625 252.565 212.656 254.755 211.291 256.694C209.926 258.633 208.193 260.284 206.19 261.554Z" fill="#003366"/>
<path d="M205.006 238.866L185.549 251.195L187.535 254.329L206.992 242L205.006 238.866Z" fill="#003366"/>
<path d="M185.483 289.846C185.483 289.846 185.798 297.093 195.276 284.166C204.753 271.24 203.48 272.197 200.955 279.444C199.021 284.461 196.462 289.213 193.339 293.589C193.339 293.589 204.698 275.614 204.698 280.652C204.698 285.69 193.97 307.147 196.179 305.253C198.388 303.36 205.33 293.905 205.33 293.905C205.33 293.905 204.383 300.205 206.896 297.365C209.41 294.525 212.261 288.856 211.945 292.011C211.63 295.167 207.528 298.942 211.63 295.167C215.732 291.391 218.887 286.647 217.94 290.118C216.994 293.589 214.469 294.851 216.994 293.589C219.518 292.327 233.707 268.672 229.289 271.512C224.872 274.352 216.678 298.942 220.465 297.049C224.251 295.156 228.658 285.7 228.343 290.434C228.027 295.167 229.289 295.167 230.519 293.589" stroke="#263238" stroke-width="0.233421" stroke-linecap="round" stroke-linejoin="round"/>
<path d="M496.871 489.236H0.116699" stroke="#263238" stroke-width="0.233421" stroke-linecap="round" stroke-linejoin="round"/>
<path d="M496.871 499.639H0.116699" stroke="#263238" stroke-width="0.233421" stroke-linecap="round" stroke-linejoin="round"/>
<path d="M469.659 374.5H364.333C362.671 374.499 361.064 375.096 359.807 376.183C358.55 377.271 357.727 378.774 357.489 380.419L341.733 488.14H466.983L476.547 382.008C476.63 381.053 476.514 380.092 476.205 379.185C475.897 378.278 475.403 377.445 474.755 376.739C474.107 376.032 473.32 375.469 472.443 375.083C471.565 374.698 470.618 374.499 469.659 374.5Z" fill="#263238" stroke="#263238" stroke-width="0.233421" stroke-linecap="round" stroke-linejoin="round"/>
<path d="M327.034 356.916C327.034 356.916 298.537 371.061 288.755 374.967C278.973 378.873 276.568 380.625 275.698 383.019C274.827 385.413 236.766 445.225 232.425 450.665C228.083 456.105 218.715 467.846 220.021 475.887C221.326 483.928 231.772 490.902 241.782 490.685C251.793 490.467 258.104 488.509 259.192 485.68C260.28 482.851 287.906 433.452 287.906 433.452L296.611 488.476H407.759C407.759 488.476 416.463 413.224 416.463 402.126C416.463 391.027 418.64 377.981 414.07 375.152C409.5 372.323 390.578 365.805 376.65 361.235C362.723 356.665 358.381 355.795 355.128 355.795C351.875 355.795 327.034 356.916 327.034 356.916Z" fill="white" stroke="#263238" stroke-width="0.233421" stroke-linecap="round" stroke-linejoin="round"/>
<path d="M324.018 357.308C324.018 357.308 320.319 364.272 320.101 369.93C319.884 375.588 319.013 386.023 315.749 392.334C312.485 398.645 310.091 402.127 311.832 401.463C313.573 400.799 323.572 389.722 324.66 387.318C325.748 384.913 327.489 389.494 327.489 389.494C327.489 389.494 324.225 398.841 323.79 400.146C323.355 401.452 337.489 419.503 337.489 419.503C337.489 419.503 349.675 409.939 352.504 407.763C355.334 405.587 354.463 403.846 354.681 401.017C354.898 398.188 355.769 394.064 357.281 391.67C358.794 389.276 363.168 398.656 366.203 403.008C369.239 407.36 372.297 408.884 371.862 405.619C371.426 402.355 369.903 396.044 368.815 384.946C367.727 373.847 367.944 360.583 365.115 356.449C362.286 352.314 347.445 351.498 337.707 350.802C335.045 350.505 332.354 350.956 329.936 352.106C327.518 353.256 325.468 355.057 324.018 357.308Z" fill="white" stroke="#263238" stroke-width="0.233421" stroke-linecap="round" stroke-linejoin="round"/>
<path d="M280.08 394.357L287.915 433.485L277.795 407.469" stroke="#263238" stroke-width="0.233421" stroke-linecap="round" stroke-linejoin="round"/>
<path d="M325.107 367.796C325.107 367.796 328.154 384.759 330.983 397.805C332.538 405.231 334.723 412.511 337.512 419.567C337.512 419.567 351.874 395.423 356.009 382.812C358.357 375.854 360.176 368.728 361.449 361.496H325.107V367.796Z" stroke="#263238" stroke-width="0.233421" stroke-linecap="round" stroke-linejoin="round"/>
<path d="M340.982 373.629L333.158 383.422L338.599 393.867L333.245 406.826C334.426 411.136 335.85 415.376 337.511 419.524C337.511 419.524 341.993 411.995 346.661 403.203L342.733 394.139L347.521 383.258L340.982 373.629Z" fill="#003366" stroke="#263238" stroke-width="0.233421" stroke-linecap="round" stroke-linejoin="round"/>
<path d="M325.107 361.486V367.797C325.107 367.797 327.207 379.505 329.536 390.941L340.547 379.32L352.157 392.181C353.61 389.128 354.892 385.997 355.998 382.802C358.346 375.844 360.165 368.719 361.439 361.486H325.107Z" fill="white" stroke="#263238" stroke-width="0.233421" stroke-linecap="round" stroke-linejoin="round"/>
<path d="M230.28 457.105C230.28 457.105 250.595 449.684 261.552 467.735" stroke="#263238" stroke-width="0.233421" stroke-linecap="round" stroke-linejoin="round"/>
<path d="M261.911 462.166C261.911 462.166 250.562 464.734 244.501 474.407C238.441 484.08 250.769 485.157 254.174 485.157C257.58 485.157 260.801 482.872 260.986 481.686C261.171 480.5 265.632 469.032 265.458 466.355C265.437 465.356 265.074 464.394 264.428 463.631C263.782 462.868 262.893 462.351 261.911 462.166Z" fill="white" stroke="#263238" stroke-width="0.233421" stroke-linecap="round" stroke-linejoin="round"/>
<path d="M256.688 466.17C256.688 466.17 250.41 471.61 250.834 473.787C251.258 475.963 260.572 484.341 262.368 483.133C262.692 482.968 262.98 482.741 263.216 482.465C263.452 482.189 263.631 481.869 263.743 481.523C263.856 481.177 263.898 480.813 263.87 480.451C263.841 480.089 263.741 479.736 263.576 479.412C263.064 478.596 256.688 466.17 256.688 466.17Z" fill="white" stroke="#263238" stroke-width="0.233421" stroke-linecap="round" stroke-linejoin="round"/>
<path d="M250.867 473.732C250.867 473.732 247.178 477.66 248.386 479.456C249.594 481.251 258.026 485.832 260.213 484.45C262.401 483.068 260.986 481.654 260.986 481.654L250.867 473.732Z" fill="white" stroke="#263238" stroke-width="0.233421" stroke-linecap="round" stroke-linejoin="round"/>
<path d="M272.476 465.962L264.925 464.656L266.698 475.526L274.413 475.766L272.476 465.962Z" fill="white" stroke="#263238" stroke-width="0.233421" stroke-linecap="round" stroke-linejoin="round"/>
<path d="M258.888 448.87L267.734 479.87L272.032 483.776V478.259L262.674 447.793C262.598 447.539 262.471 447.304 262.301 447.101C262.132 446.898 261.922 446.731 261.687 446.611C261.451 446.491 261.193 446.42 260.929 446.403C260.665 446.385 260.4 446.421 260.15 446.509C259.681 446.671 259.29 447.004 259.056 447.442C258.822 447.88 258.762 448.39 258.888 448.87Z" fill="#263238" stroke="#263238" stroke-width="0.233421" stroke-linecap="round" stroke-linejoin="round"/>
<path d="M261.909 462.167C261.909 462.167 256.686 465.224 257.209 467.542C257.731 469.859 263.367 480.697 265.402 480.838C267.437 480.98 268.666 479.75 268.372 477.4C268.079 475.05 266.196 466.519 264.923 464.658C263.65 462.798 263.509 462.058 261.909 462.167Z" fill="white" stroke="#263238" stroke-width="0.233421" stroke-linecap="round" stroke-linejoin="round"/>
<path d="M272.475 465.963C272.475 465.963 278.035 466.659 279.004 468.357C279.972 470.054 276.088 476.822 274.847 478.367C273.607 479.912 271.387 479.847 271.322 475.93C271.426 472.581 271.812 469.247 272.475 465.963Z" fill="white" stroke="#263238" stroke-width="0.233421" stroke-linecap="round" stroke-linejoin="round"/>
<path d="M242.402 479.055H303.411C305.115 479.058 306.749 479.736 307.954 480.941C309.16 482.147 309.838 483.781 309.841 485.485C309.841 486.928 309.268 488.312 308.248 489.332C307.227 490.353 305.844 490.926 304.401 490.926H243.25C241.923 490.926 240.65 490.398 239.711 489.46C238.772 488.521 238.245 487.248 238.245 485.921V483.2C238.245 482.655 238.353 482.115 238.562 481.611C238.771 481.108 239.077 480.65 239.463 480.265C239.849 479.88 240.308 479.575 240.812 479.367C241.316 479.159 241.856 479.053 242.402 479.055Z" fill="white" stroke="#263238" stroke-width="0.233421" stroke-linecap="round" stroke-linejoin="round"/>
<path d="M350.97 465.028C350.97 465.028 335.094 463.287 331.177 461.981C327.26 460.676 320.949 459.588 318.773 461.329C316.597 463.07 305.945 475.474 305.716 476.986C305.488 478.499 303.322 483.515 304.41 484.82C305.322 485.73 306.443 486.402 307.675 486.779C307.675 486.779 321.82 490.696 323.332 490.914C324.845 491.131 339.425 490.478 339.425 490.478L347.042 487.649L357.694 487.432C357.694 487.432 357.912 490.914 358.129 482.427C358.347 473.94 350.97 465.028 350.97 465.028Z" fill="white" stroke="#263238" stroke-width="0.233421" stroke-linecap="round" stroke-linejoin="round"/>
<path d="M307.708 486.789C307.708 486.789 307.926 481.784 309.014 479.608C310.102 477.431 322.495 466.344 322.495 466.344" stroke="#263238" stroke-width="0.233421" stroke-linecap="round" stroke-linejoin="round"/>
<path d="M311.798 488.074C311.798 488.074 313.974 482.633 314.845 482.198C315.715 481.763 325.933 475.234 325.933 475.234" stroke="#263238" stroke-width="0.233421" stroke-linecap="round" stroke-linejoin="round"/>
<path d="M319.23 489.597C319.23 489.597 319.666 487.421 320.754 486.986C321.842 486.551 330.982 482.416 330.982 482.416" stroke="#263238" stroke-width="0.233421" stroke-linecap="round" stroke-linejoin="round"/>
<path d="M329.023 490.685L333.158 489.597L332.722 487.639L328.37 488.727" stroke="#263238" stroke-width="0.233421" stroke-linecap="round" stroke-linejoin="round"/>
<path d="M400.794 394.977C400.794 394.977 389.271 419.122 389.913 427.62C390.555 436.118 393.406 450.23 393.406 450.23C393.406 450.23 375.137 457.401 368.826 460.023C362.515 462.645 350.97 465.028 350.97 465.028L356.835 488.085L355.975 490.479H419.258C419.258 490.479 424.046 489.608 424.916 488.52C425.787 487.432 426.657 486.997 427.093 483.515C427.528 480.033 430.357 449.588 429.704 441.08C429.051 432.571 420.129 388.449 419.041 383.879C417.953 379.309 416.005 376.262 414.046 375.174C412.088 374.086 403.601 373.227 403.601 373.227" fill="white"/>
<path d="M400.794 394.977C400.794 394.977 389.271 419.122 389.913 427.62C390.555 436.118 393.406 450.23 393.406 450.23C393.406 450.23 375.137 457.401 368.826 460.023C362.515 462.645 350.97 465.028 350.97 465.028L356.835 488.085L355.975 490.479H419.258C419.258 490.479 424.046 489.608 424.916 488.52C425.787 487.432 426.657 486.997 427.093 483.515C427.528 480.033 430.357 449.588 429.704 441.08C429.051 432.571 420.129 388.449 419.041 383.879C417.953 379.309 416.005 376.262 414.046 375.174C412.088 374.086 403.601 373.227 403.601 373.227" stroke="#263238" stroke-width="0.233421" stroke-linecap="round" stroke-linejoin="round"/>
<path d="M394.929 450.666C394.929 450.666 411.675 451.537 419.955 456.748" stroke="#263238" stroke-width="0.233421" stroke-linecap="round" stroke-linejoin="round"/>
<path d="M397.963 448.489C397.963 448.489 409.714 447.836 416.025 449.795" stroke="#263238" stroke-width="0.233421" stroke-linecap="round" stroke-linejoin="round"/>
<path d="M394.71 394.303C394.71 394.303 388.835 408.013 388.617 413.235C388.4 418.458 387.964 421.505 387.964 421.505" stroke="#263238" stroke-width="0.233421" stroke-linecap="round" stroke-linejoin="round"/>
<path d="M367.955 358.004C367.955 358.004 381.219 376.893 370.556 429.567" stroke="#263238" stroke-width="0.466842" stroke-linecap="round" stroke-linejoin="round"/>
<path d="M376.867 431.089C376.867 429.798 376.484 428.536 375.766 427.462C375.049 426.388 374.029 425.552 372.836 425.057C371.644 424.563 370.331 424.434 369.064 424.686C367.798 424.938 366.635 425.56 365.722 426.473C364.809 427.386 364.187 428.549 363.935 429.815C363.683 431.082 363.812 432.394 364.307 433.587C364.801 434.78 365.637 435.8 366.711 436.517C367.785 437.235 369.047 437.618 370.338 437.618C372.07 437.618 373.73 436.93 374.954 435.705C376.179 434.481 376.867 432.821 376.867 431.089Z" fill="white" stroke="#263238" stroke-width="0.233421" stroke-linecap="round" stroke-linejoin="round"/>
<path d="M322.68 359.961C322.68 359.961 315.945 364.313 314.856 381.929" stroke="#263238" stroke-width="0.466842" stroke-linecap="round" stroke-linejoin="round"/>
<path d="M324.214 408.621C322.571 420.503 320.329 433.266 319.861 436.063C318.773 442.047 311.668 444.136 307.098 442.178" stroke="#263238" stroke-width="0.466842" stroke-linecap="round" stroke-linejoin="round"/>
<path d="M307.176 409.406C305.686 402.747 304.772 396.969 305.098 394.325C306.622 382.149 314.891 381.932 314.891 381.932C314.891 381.932 324.684 383.237 325.326 393.683C325.393 398.685 325.029 403.683 324.238 408.622" stroke="#263238" stroke-width="0.466842" stroke-linecap="round" stroke-linejoin="round"/>
<path d="M325.542 441.307C325.542 441.307 320.972 443.918 317.925 442.177C315.869 441.002 310.308 423.288 307.175 409.404" stroke="#263238" stroke-width="0.466842" stroke-linecap="round" stroke-linejoin="round"/>
<path d="M327.134 438.949L325.335 439.724C324.469 440.098 324.069 441.103 324.443 441.969L324.464 442.019C324.838 442.885 325.843 443.285 326.709 442.912L328.508 442.136C329.374 441.763 329.774 440.758 329.4 439.891L329.379 439.841C329.005 438.975 328 438.575 327.134 438.949Z" stroke="#263238" stroke-width="0.233421" stroke-linecap="round" stroke-linejoin="round"/>
<path d="M307.662 440.13L305.983 439.122C305.174 438.636 304.125 438.898 303.639 439.707L303.611 439.753C303.125 440.562 303.387 441.612 304.196 442.097L305.875 443.106C306.684 443.592 307.733 443.33 308.219 442.521L308.247 442.474C308.733 441.665 308.471 440.616 307.662 440.13Z" stroke="#263238" stroke-width="0.233421" stroke-linecap="round" stroke-linejoin="round"/>
<path d="M314.889 307.332C314.889 307.332 311.407 315.59 312.06 320.813C312.712 326.036 319.676 331.694 319.676 331.694C319.676 331.694 322.07 308.42 322.07 307.549C322.07 306.679 317.707 304.72 314.889 307.332Z" fill="#263238" stroke="#263238" stroke-width="0.233421" stroke-linecap="round" stroke-linejoin="round"/>
<path d="M312.387 336.917L317.012 333.686" stroke="#263238" stroke-width="0.466842" stroke-linecap="round" stroke-linejoin="round"/>
<path d="M317.49 308.856C317.49 308.856 316.62 331.912 317.055 336.254C317.49 340.595 319.231 354.523 320.754 358.875C322.278 363.227 327.283 377.144 331.2 378.667C335.117 380.191 342.941 381.279 345.552 379.538C348.163 377.797 357.728 371.279 360.339 364.968C361.887 361.288 362.913 357.41 363.386 353.446C365.557 352.287 367.432 350.644 368.867 348.644C370.301 346.644 371.255 344.34 371.655 341.912C372.961 333.642 369.479 331.259 369.479 331.259L369.697 316.897C369.697 316.897 367.303 306.897 360.992 301.457C354.681 296.016 347.293 295.581 339.676 299.716C332.06 303.851 317.49 308.856 317.49 308.856Z" fill="white" stroke="#263238" stroke-width="0.233421" stroke-linecap="round" stroke-linejoin="round"/>
<path d="M358.38 307.549C358.38 307.549 358.598 301.891 353.168 303.85C347.739 305.808 346.422 309.508 338.371 312.772C330.319 316.036 319.666 312.337 315.978 310.161C312.289 307.985 309.667 304.938 314.672 299.28C319.677 293.622 331.418 287.975 344.05 287.975C356.683 287.975 366.454 298.409 370.589 302.762C374.723 307.114 375.376 312.554 373.853 316.461C372.33 320.367 369.501 331.259 369.501 331.259C369.501 331.259 367.76 331.041 367.107 333.642C366.454 336.242 366.672 339.082 363.843 339.3C361.014 339.517 361.231 331.911 361.231 331.911C361.231 331.911 354.278 329.735 353.408 324.73C352.537 319.725 358.38 312.337 358.38 307.549Z" fill="#263238" stroke="#263238" stroke-width="0.233421" stroke-linecap="round" stroke-linejoin="round"/>
<path d="M332.473 340.463L312.354 336.916L313.518 345.936C313.59 346.497 313.84 347.02 314.232 347.428C314.624 347.835 315.137 348.106 315.694 348.199L327.924 350.125C328.597 350.234 329.285 350.077 329.844 349.687C330.402 349.297 330.787 348.705 330.917 348.036L332.473 340.463Z" stroke="#263238" stroke-width="0.466842" stroke-linecap="round" stroke-linejoin="round"/>
<path d="M336.139 340.845L359.467 340.17L357.182 348.613C356.985 349.182 356.61 349.672 356.112 350.009C355.614 350.346 355.02 350.513 354.419 350.485L340.273 350.681C339.54 350.731 338.813 350.516 338.226 350.075C337.638 349.633 337.23 348.995 337.074 348.276L336.139 340.845Z" stroke="#263238" stroke-width="0.466842" stroke-linecap="round" stroke-linejoin="round"/>
<path d="M332.506 340.463L336.141 340.844" stroke="#263238" stroke-width="0.466842" stroke-linecap="round" stroke-linejoin="round"/>
<path d="M359.468 340.169L367.084 333.641" stroke="#263238" stroke-width="0.466842" stroke-linecap="round" stroke-linejoin="round"/>
<path d="M339.242 338.211C339.242 338.211 345.771 333.217 351.864 336.252" stroke="#263238" stroke-width="0.466842" stroke-linecap="round" stroke-linejoin="round"/>
<path d="M329.46 337.124C329.46 337.124 324.454 331.683 318.796 335.383" stroke="#263238" stroke-width="0.466842" stroke-linecap="round" stroke-linejoin="round"/>
<path d="M330.764 356.045C330.764 356.045 329.676 360.615 330.764 361.485C332.617 362.508 334.755 362.89 336.847 362.573" stroke="#263238" stroke-width="0.233421" stroke-linecap="round" stroke-linejoin="round"/>
<path d="M327.5 364.924C327.5 364.924 331.852 368.188 335.987 368.406C340.121 368.623 344.898 365.577 344.898 365.577" stroke="#263238" stroke-width="0.233421" stroke-linecap="round" stroke-linejoin="round"/>
<path d="M343.593 342.782C343.593 342.782 346.204 345.829 350.557 342.564" stroke="#263238" stroke-width="0.233421" stroke-linecap="round" stroke-linejoin="round"/>
<path d="M322.169 341.443C322.169 341.443 324.346 344.816 329.09 342.172" stroke="#263238" stroke-width="0.233421" stroke-linecap="round" stroke-linejoin="round"/>
<path d="M187.213 307.525C187.213 307.525 188.595 328.253 187.551 329.983L184.493 335.163C184.493 335.163 185.875 350.026 183.111 351.745C180.97 352.892 178.621 353.598 176.202 353.823C176.202 353.823 173.438 364.878 172.394 366.26C171.349 367.642 165.136 372.136 163.069 372.789C161.002 373.441 154.429 373.877 138.881 364.497C123.332 355.118 117.456 352.061 117.805 346.881C118.153 341.702 118.893 335.826 118.893 335.826C118.893 335.826 120.623 310.942 123.735 303.347C126.847 295.752 166.235 291.596 174.875 293.674C183.514 295.752 187.213 307.525 187.213 307.525Z" fill="white" stroke="#263238" stroke-width="0.233421" stroke-linecap="round" stroke-linejoin="round"/>
<path d="M147.127 341.725L149.554 343.455C149.554 343.455 147.476 351.746 148.466 355.554" stroke="#263238" stroke-width="0.233421" stroke-linecap="round" stroke-linejoin="round"/>
<path d="M181.675 334.782C181.327 336.371 180.489 337.524 179.814 337.372C179.14 337.219 178.868 335.826 179.227 334.238C179.586 332.649 180.413 331.496 181.087 331.648C181.762 331.801 182.034 333.204 181.675 334.782Z" fill="#263238"/>
<path d="M178.15 328.437C178.15 328.437 181.915 324.673 185.06 328.231" stroke="#263238" stroke-width="0.233421" stroke-linecap="round" stroke-linejoin="round"/>
<path d="M173.393 304.762C173.393 304.762 177.876 313.054 177.539 314.784C177.202 316.514 163.024 320.659 163.024 320.659C163.024 320.659 161.642 328.95 159.564 329.984L157.496 331.018C155.839 328.767 154.448 326.331 153.351 323.76C150.935 318.581 147.475 317.232 143.678 322.378C139.88 327.525 142.981 339.657 145.06 340.691L147.127 341.725C147.127 341.725 145.397 343.455 138.836 344.499C132.275 345.544 127.433 346.915 122.601 345.533C117.77 344.151 110.85 331.018 108.456 314.087C106.063 297.157 113.636 282.652 123.69 278.18C133.743 273.708 156.517 277.832 158.236 278.866C159.955 279.9 171.718 274.383 178.627 277.832C185.536 281.281 185.155 285.09 186.918 287.505C188.681 289.921 197.625 286.82 198.321 295.459C199.018 304.099 195.558 309.278 191.064 309.963C186.57 310.649 173.393 304.762 173.393 304.762Z" fill="#263238" stroke="#263238" stroke-width="0.233421" stroke-linecap="round" stroke-linejoin="round"/>
<path d="M91.5803 359.003C91.5803 359.003 58.4699 376.663 52.159 380.156C45.8481 383.648 44.9015 386.782 44.5424 389.948C44.1833 393.115 44.5424 499.682 44.5424 499.682H223.391C223.391 499.682 196.265 418.239 195.373 409.142C194.48 400.046 192.544 383.91 190.019 382.016C187.495 380.123 151.849 364.357 151.849 364.357C151.849 364.357 143.33 355.217 123.157 355.217C102.983 355.217 91.5803 359.003 91.5803 359.003Z" fill="#003366" stroke="#263238" stroke-width="0.233421" stroke-linecap="round" stroke-linejoin="round"/>
<path d="M112.08 423.885C113.016 424.255 113.962 424.592 114.909 424.908" stroke="#263238" stroke-width="0.233421" stroke-linecap="round" stroke-linejoin="round"/>
<path d="M76.7725 394.637C76.7725 394.637 89.8295 412.851 107.663 421.839" stroke="#263238" stroke-width="0.233421" stroke-linecap="round" stroke-linejoin="round"/>
<path d="M88.1094 415.756C88.1094 415.756 95.356 423.013 110.491 427.115" stroke="#263238" stroke-width="0.233421" stroke-linecap="round" stroke-linejoin="round"/>
<path d="M177.965 389.621C172.927 395.344 165.833 404.495 163.482 412.917" stroke="#263238" stroke-width="0.233421" stroke-linecap="round" stroke-linejoin="round"/>
<path d="M183.339 383.91C183.339 383.91 182.338 384.879 180.771 386.543" stroke="#263238" stroke-width="0.233421" stroke-linecap="round" stroke-linejoin="round"/>
<path d="M165.365 402.832C165.365 402.832 160.632 411.972 159.696 417.652" stroke="#263238" stroke-width="0.233421" stroke-linecap="round" stroke-linejoin="round"/>
<path d="M89.6885 360.569C89.6885 360.569 107.979 359.937 125.323 360.253C142.667 360.569 154.027 365.933 154.027 365.933C154.027 365.933 143.614 353.322 138.892 350.482C134.169 347.642 119.654 342.865 107.675 346.695C100.295 349.175 93.9607 354.06 89.6885 360.569Z" fill="#003366" stroke="#263238" stroke-width="0.233421" stroke-linecap="round" stroke-linejoin="round"/>
<path d="M37.6777 499.56L21.0082 435.646C20.8464 434.87 20.8597 434.068 21.0472 433.297C21.2346 432.527 21.5915 431.808 22.0918 431.193C22.5921 430.579 23.2233 430.083 23.9393 429.743C24.6553 429.402 25.4382 429.226 26.231 429.227H158.858C160.076 429.228 161.258 429.644 162.208 430.408C163.157 431.172 163.818 432.237 164.08 433.427L178.802 499.626" fill="#263238"/>
<path d="M37.6777 499.56L21.0082 435.646C20.8464 434.87 20.8597 434.068 21.0472 433.297C21.2346 432.527 21.5915 431.808 22.0918 431.193C22.5921 430.579 23.2233 430.083 23.9393 429.743C24.6553 429.402 25.4382 429.226 26.231 429.227H158.858C160.076 429.228 161.258 429.644 162.208 430.408C163.157 431.172 163.818 432.237 164.08 433.427L178.802 499.626" stroke="#263238" stroke-width="0.233421" stroke-linecap="round" stroke-linejoin="round"/>
</svg>
