<svg width="382" height="108" viewBox="0 0 382 108" fill="none" xmlns="http://www.w3.org/2000/svg">
<path d="M97.8183 47.5979C96.4043 47.5979 95.2213 47.4299 94.2693 47.0939C93.3173 46.7439 92.5963 46.2259 92.1063 45.5399C91.6303 44.8539 91.3923 43.9789 91.3923 42.9149C91.3923 42.5789 91.4133 42.2219 91.4553 41.8439C91.5113 41.4519 91.5673 41.0739 91.6233 40.7099C91.6933 40.3459 91.7563 40.0309 91.8123 39.7649C91.8683 39.4989 91.9103 39.3099 91.9383 39.1979L93.8493 39.5549C93.8073 39.7789 93.7443 40.0799 93.6603 40.4579C93.5903 40.8359 93.5203 41.2419 93.4503 41.6759C93.3803 42.1099 93.3453 42.5229 93.3453 42.9149C93.3453 43.4329 93.4293 43.8809 93.5973 44.2589C93.7653 44.6369 94.0243 44.9449 94.3743 45.1829C94.7383 45.4209 95.2003 45.5959 95.7603 45.7079C96.3343 45.8059 97.0343 45.8549 97.8603 45.8549H109.347L108.318 46.7369V38.1479L109.137 38.8409H105.819C105.063 38.8409 104.475 38.9319 104.055 39.1139C103.649 39.2959 103.362 39.6389 103.194 40.1429C103.04 40.6469 102.963 41.3819 102.963 42.3479C102.963 43.3139 103.04 44.0489 103.194 44.5529C103.362 45.0569 103.649 45.3999 104.055 45.5819C104.475 45.7639 105.063 45.8549 105.819 45.8549V47.2199C104.615 47.2199 103.656 47.0659 102.942 46.7579C102.242 46.4499 101.738 45.9389 101.43 45.2249C101.136 44.5109 100.989 43.5519 100.989 42.3479C100.989 41.1579 101.136 40.1779 101.43 39.4079C101.738 38.6239 102.242 38.0429 102.942 37.6649C103.656 37.2729 104.615 37.0769 105.819 37.0769H110.292V47.5979H97.8183ZM105.147 35.1869V33.1499H107.121V35.1869H105.147ZM114.032 47.5979V32.6039H115.985V47.5979H114.032ZM121.933 47.5979V45.8549H124.621V47.5979H121.933ZM118.321 52.4069C118.139 52.4069 117.95 52.3929 117.754 52.3649C117.544 52.3509 117.334 52.3369 117.124 52.3229L117.292 50.5799C117.502 50.5939 117.698 50.6079 117.88 50.6219C118.048 50.6359 118.188 50.6429 118.3 50.6429C118.93 50.6429 119.434 50.4049 119.812 49.9289C120.204 49.4529 120.4 48.7879 120.4 47.9339V37.0769H122.374V47.9339C122.374 48.8159 122.199 49.5929 121.849 50.2649C121.499 50.9369 121.023 51.4619 120.421 51.8399C119.819 52.2179 119.119 52.4069 118.321 52.4069ZM124.621 47.5979V45.8549C124.705 45.8549 124.775 45.8759 124.831 45.9179C124.887 45.9599 124.929 46.0159 124.957 46.0859C124.985 46.1559 125.006 46.2469 125.02 46.3589C125.034 46.4569 125.041 46.5759 125.041 46.7159C125.041 46.8419 125.034 46.9609 125.02 47.0729C125.006 47.1849 124.985 47.2829 124.957 47.3669C124.929 47.4369 124.887 47.4929 124.831 47.5349C124.775 47.5769 124.705 47.5979 124.621 47.5979ZM124.629 47.5979V45.8549H129.879V47.5979H124.629ZM129.879 47.5979V45.8549C129.963 45.8549 130.033 45.8759 130.089 45.9179C130.145 45.9599 130.187 46.0159 130.215 46.0859C130.243 46.1559 130.264 46.2469 130.278 46.3589C130.292 46.4569 130.299 46.5759 130.299 46.7159C130.299 46.8419 130.292 46.9609 130.278 47.0729C130.264 47.1849 130.243 47.2829 130.215 47.3669C130.187 47.4369 130.145 47.4929 130.089 47.5349C130.033 47.5769 129.963 47.5979 129.879 47.5979ZM124.629 47.5979C124.545 47.5979 124.475 47.5769 124.419 47.5349C124.363 47.4929 124.321 47.4369 124.293 47.3669C124.265 47.2829 124.244 47.1849 124.23 47.0729C124.216 46.9609 124.209 46.8419 124.209 46.7159C124.209 46.5339 124.223 46.3799 124.251 46.2539C124.265 46.1279 124.307 46.0299 124.377 45.9599C124.433 45.8899 124.517 45.8549 124.629 45.8549V47.5979ZM129.879 47.5979V45.8549H135.129V47.5979H129.879ZM135.129 47.5979V45.8549C135.213 45.8549 135.283 45.8759 135.339 45.9179C135.395 45.9599 135.437 46.0159 135.465 46.0859C135.493 46.1559 135.514 46.2469 135.528 46.3589C135.542 46.4569 135.549 46.5759 135.549 46.7159C135.549 46.8419 135.542 46.9609 135.528 47.0729C135.514 47.1849 135.493 47.2829 135.465 47.3669C135.437 47.4369 135.395 47.4929 135.339 47.5349C135.283 47.5769 135.213 47.5979 135.129 47.5979ZM129.879 47.5979C129.795 47.5979 129.725 47.5769 129.669 47.5349C129.613 47.4929 129.571 47.4369 129.543 47.3669C129.515 47.2829 129.494 47.1849 129.48 47.0729C129.466 46.9609 129.459 46.8419 129.459 46.7159C129.459 46.5339 129.473 46.3799 129.501 46.2539C129.515 46.1279 129.557 46.0299 129.627 45.9599C129.683 45.8899 129.767 45.8549 129.879 45.8549V47.5979ZM135.129 47.5979V45.8549H140.379V47.5979H135.129ZM140.379 47.5979V45.8549C140.463 45.8549 140.533 45.8759 140.589 45.9179C140.645 45.9599 140.687 46.0159 140.715 46.0859C140.743 46.1559 140.764 46.2469 140.778 46.3589C140.792 46.4569 140.799 46.5759 140.799 46.7159C140.799 46.8419 140.792 46.9609 140.778 47.0729C140.764 47.1849 140.743 47.2829 140.715 47.3669C140.687 47.4369 140.645 47.4929 140.589 47.5349C140.533 47.5769 140.463 47.5979 140.379 47.5979ZM135.129 47.5979C135.045 47.5979 134.975 47.5769 134.919 47.5349C134.863 47.4929 134.821 47.4369 134.793 47.3669C134.765 47.2829 134.744 47.1849 134.73 47.0729C134.716 46.9609 134.709 46.8419 134.709 46.7159C134.709 46.5339 134.723 46.3799 134.751 46.2539C134.765 46.1279 134.807 46.0299 134.877 45.9599C134.933 45.8899 135.017 45.8549 135.129 45.8549V47.5979ZM140.379 47.5979V45.8549H154.512L152.748 47.4089V42.5999C152.748 41.7459 152.629 41.0459 152.391 40.4999C152.167 39.9399 151.824 39.5269 151.362 39.2609C150.9 38.9809 150.326 38.8409 149.64 38.8409C149.038 38.8409 148.471 38.9459 147.939 39.1559C147.407 39.3659 146.917 39.6459 146.469 39.9959C146.021 40.3319 145.601 40.7029 145.209 41.1089C144.817 41.5149 144.46 41.9209 144.138 42.3269C143.83 42.7329 143.55 43.0969 143.298 43.4189L142.71 41.7809C143.186 41.1789 143.655 40.6049 144.117 40.0589C144.579 39.4989 145.076 38.9949 145.608 38.5469C146.154 38.0989 146.756 37.7419 147.414 37.4759C148.086 37.2099 148.856 37.0769 149.724 37.0769C150.704 37.0769 151.516 37.2449 152.16 37.5809C152.804 37.9169 153.308 38.3579 153.672 38.9039C154.05 39.4499 154.316 40.0519 154.47 40.7099C154.624 41.3539 154.701 41.9839 154.701 42.5999V47.5979H140.379ZM141.786 45.8549V32.6039H143.739V45.8549H141.786ZM140.379 47.5979C140.295 47.5979 140.225 47.5769 140.169 47.5349C140.113 47.4929 140.071 47.4369 140.043 47.3669C140.015 47.2829 139.994 47.1849 139.98 47.0729C139.966 46.9609 139.959 46.8419 139.959 46.7159C139.959 46.5339 139.973 46.3799 140.001 46.2539C140.015 46.1279 140.057 46.0299 140.127 45.9599C140.183 45.8899 140.267 45.8549 140.379 45.8549V47.5979ZM157.072 47.5979V45.8549H167.446L166.417 46.9049V32.6039H168.37V47.5979H157.072ZM160.306 45.8549V35.5649H162.259V45.8549H160.306ZM160.243 34.0739C160.005 33.7799 159.823 33.4999 159.697 33.2339C159.571 32.9539 159.508 32.6599 159.508 32.3519C159.508 31.9319 159.613 31.5539 159.823 31.2179C160.047 30.8819 160.334 30.6159 160.684 30.4199C161.048 30.2239 161.433 30.1259 161.839 30.1259C162.077 30.1259 162.315 30.1609 162.553 30.2309C162.791 30.3009 163.001 30.3919 163.183 30.5039L162.595 31.5329C162.483 31.4629 162.371 31.4209 162.259 31.4069C162.147 31.3789 162.035 31.3649 161.923 31.3649C161.587 31.3649 161.328 31.4559 161.146 31.6379C160.964 31.8199 160.873 32.0579 160.873 32.3519C160.873 32.5339 160.908 32.7089 160.978 32.8769C161.048 33.0309 161.16 33.2059 161.314 33.4019L160.243 34.0739ZM159.088 34.1159V32.8979H163.477V34.1159H159.088ZM172.008 47.5979V32.6039H173.961V47.5979H172.008ZM184.503 47.5979V45.8549H187.191V47.5979H184.503ZM180.891 52.4069C180.709 52.4069 180.52 52.3929 180.324 52.3649C180.114 52.3509 179.904 52.3369 179.694 52.3229L179.862 50.5799C180.072 50.5939 180.268 50.6079 180.45 50.6219C180.618 50.6359 180.758 50.6429 180.87 50.6429C181.5 50.6429 182.004 50.4049 182.382 49.9289C182.774 49.4529 182.97 48.7879 182.97 47.9339V37.0769H184.944V47.9339C184.944 48.8159 184.769 49.5929 184.419 50.2649C184.069 50.9369 183.593 51.4619 182.991 51.8399C182.389 52.2179 181.689 52.4069 180.891 52.4069ZM187.191 47.5979V45.8549C187.275 45.8549 187.345 45.8759 187.401 45.9179C187.457 45.9599 187.499 46.0159 187.527 46.0859C187.555 46.1559 187.576 46.2469 187.59 46.3589C187.604 46.4569 187.611 46.5759 187.611 46.7159C187.611 46.8419 187.604 46.9609 187.59 47.0729C187.576 47.1849 187.555 47.2829 187.527 47.3669C187.499 47.4369 187.457 47.4929 187.401 47.5349C187.345 47.5769 187.275 47.5979 187.191 47.5979ZM182.97 35.1869V33.1499H184.944V35.1869H182.97ZM187.199 47.5979V45.8549H192.449V47.5979H187.199ZM192.449 47.5979V45.8549C192.533 45.8549 192.603 45.8759 192.659 45.9179C192.715 45.9599 192.757 46.0159 192.785 46.0859C192.813 46.1559 192.834 46.2469 192.848 46.3589C192.862 46.4569 192.869 46.5759 192.869 46.7159C192.869 46.8419 192.862 46.9609 192.848 47.0729C192.834 47.1849 192.813 47.2829 192.785 47.3669C192.757 47.4369 192.715 47.4929 192.659 47.5349C192.603 47.5769 192.533 47.5979 192.449 47.5979ZM187.199 47.5979C187.115 47.5979 187.045 47.5769 186.989 47.5349C186.933 47.4929 186.891 47.4369 186.863 47.3669C186.835 47.2829 186.814 47.1849 186.8 47.0729C186.786 46.9609 186.779 46.8419 186.779 46.7159C186.779 46.5339 186.793 46.3799 186.821 46.2539C186.835 46.1279 186.877 46.0299 186.947 45.9599C187.003 45.8899 187.087 45.8549 187.199 45.8549V47.5979ZM192.449 47.5979V45.8549H197.699V47.5979H192.449ZM197.699 47.5979V45.8549C197.783 45.8549 197.853 45.8759 197.909 45.9179C197.965 45.9599 198.007 46.0159 198.035 46.0859C198.063 46.1559 198.084 46.2469 198.098 46.3589C198.112 46.4569 198.119 46.5759 198.119 46.7159C198.119 46.8419 198.112 46.9609 198.098 47.0729C198.084 47.1849 198.063 47.2829 198.035 47.3669C198.007 47.4369 197.965 47.4929 197.909 47.5349C197.853 47.5769 197.783 47.5979 197.699 47.5979ZM192.449 47.5979C192.365 47.5979 192.295 47.5769 192.239 47.5349C192.183 47.4929 192.141 47.4369 192.113 47.3669C192.085 47.2829 192.064 47.1849 192.05 47.0729C192.036 46.9609 192.029 46.8419 192.029 46.7159C192.029 46.5339 192.043 46.3799 192.071 46.2539C192.085 46.1279 192.127 46.0299 192.197 45.9599C192.253 45.8899 192.337 45.8549 192.449 45.8549V47.5979ZM197.699 47.5979V45.8549H202.949V47.5979H197.699ZM202.949 47.5979V45.8549C203.033 45.8549 203.103 45.8759 203.159 45.9179C203.215 45.9599 203.257 46.0159 203.285 46.0859C203.313 46.1559 203.334 46.2469 203.348 46.3589C203.362 46.4569 203.369 46.5759 203.369 46.7159C203.369 46.8419 203.362 46.9609 203.348 47.0729C203.334 47.1849 203.313 47.2829 203.285 47.3669C203.257 47.4369 203.215 47.4929 203.159 47.5349C203.103 47.5769 203.033 47.5979 202.949 47.5979ZM197.699 47.5979C197.615 47.5979 197.545 47.5769 197.489 47.5349C197.433 47.4929 197.391 47.4369 197.363 47.3669C197.335 47.2829 197.314 47.1849 197.3 47.0729C197.286 46.9609 197.279 46.8419 197.279 46.7159C197.279 46.5339 197.293 46.3799 197.321 46.2539C197.335 46.1279 197.377 46.0299 197.447 45.9599C197.503 45.8899 197.587 45.8549 197.699 45.8549V47.5979ZM202.949 47.5979V45.8549H213.449L212.777 46.4429V42.9359C212.777 42.1939 212.679 41.5849 212.483 41.1089C212.301 40.6189 212.021 40.2619 211.643 40.0379C211.265 39.7999 210.796 39.6809 210.236 39.6809H205.637L204.293 37.6859L205.259 35.8589C205.413 35.5789 205.574 35.2849 205.742 34.9769C205.924 34.6549 206.141 34.2909 206.393 33.8849C206.659 33.4649 206.995 32.9609 207.401 32.3729L209.039 33.3179C208.647 33.9199 208.325 34.4169 208.073 34.8089C207.835 35.2009 207.632 35.5439 207.464 35.8379C207.296 36.1179 207.135 36.3979 206.981 36.6779L205.994 38.5679L205.574 37.9379H210.236C211.118 37.9379 211.853 38.0919 212.441 38.3999C213.029 38.6939 213.484 39.0859 213.806 39.5759C214.142 40.0659 214.38 40.6119 214.52 41.2139C214.674 41.8019 214.751 42.3759 214.751 42.9359V47.5979H202.949ZM202.949 47.5979C202.865 47.5979 202.795 47.5769 202.739 47.5349C202.683 47.4929 202.641 47.4369 202.613 47.3669C202.585 47.2829 202.564 47.1849 202.55 47.0729C202.536 46.9609 202.529 46.8419 202.529 46.7159C202.529 46.5339 202.543 46.3799 202.571 46.2539C202.585 46.1279 202.627 46.0299 202.697 45.9599C202.753 45.8899 202.837 45.8549 202.949 45.8549V47.5979ZM220.248 47.5979V45.8549H222.936V47.5979H220.248ZM216.636 52.4069C216.454 52.4069 216.265 52.3929 216.069 52.3649C215.859 52.3509 215.649 52.3369 215.439 52.3229L215.607 50.5799C215.817 50.5939 216.013 50.6079 216.195 50.6219C216.363 50.6359 216.503 50.6429 216.615 50.6429C217.245 50.6429 217.749 50.4049 218.127 49.9289C218.519 49.4529 218.715 48.7879 218.715 47.9339V37.0769H220.689V47.9339C220.689 48.8159 220.514 49.5929 220.164 50.2649C219.814 50.9369 219.338 51.4619 218.736 51.8399C218.134 52.2179 217.434 52.4069 216.636 52.4069ZM222.936 47.5979V45.8549C223.02 45.8549 223.09 45.8759 223.146 45.9179C223.202 45.9599 223.244 46.0159 223.272 46.0859C223.3 46.1559 223.321 46.2469 223.335 46.3589C223.349 46.4569 223.356 46.5759 223.356 46.7159C223.356 46.8419 223.349 46.9609 223.335 47.0729C223.321 47.1849 223.3 47.2829 223.272 47.3669C223.244 47.4369 223.202 47.4929 223.146 47.5349C223.09 47.5769 223.02 47.5979 222.936 47.5979ZM222.944 47.5979V45.8549H228.194V47.5979H222.944ZM228.194 47.5979V45.8549C228.278 45.8549 228.348 45.8759 228.404 45.9179C228.46 45.9599 228.502 46.0159 228.53 46.0859C228.558 46.1559 228.579 46.2469 228.593 46.3589C228.607 46.4569 228.614 46.5759 228.614 46.7159C228.614 46.8419 228.607 46.9609 228.593 47.0729C228.579 47.1849 228.558 47.2829 228.53 47.3669C228.502 47.4369 228.46 47.4929 228.404 47.5349C228.348 47.5769 228.278 47.5979 228.194 47.5979ZM222.944 47.5979C222.86 47.5979 222.79 47.5769 222.734 47.5349C222.678 47.4929 222.636 47.4369 222.608 47.3669C222.58 47.2829 222.559 47.1849 222.545 47.0729C222.531 46.9609 222.524 46.8419 222.524 46.7159C222.524 46.5339 222.538 46.3799 222.566 46.2539C222.58 46.1279 222.622 46.0299 222.692 45.9599C222.748 45.8899 222.832 45.8549 222.944 45.8549V47.5979ZM228.194 47.5979V45.8549H239.513L238.274 46.7789V42.4319C238.274 41.5079 238.169 40.7869 237.959 40.2689C237.763 39.7509 237.413 39.3799 236.909 39.1559C236.405 38.9319 235.719 38.8199 234.851 38.8199C234.263 38.8199 233.682 38.8619 233.108 38.9459C232.534 39.0299 232.086 39.1419 231.764 39.2819L232.961 38.1059C232.877 38.4279 232.793 38.8409 232.709 39.3449C232.625 39.8489 232.555 40.3949 232.499 40.9829C232.443 41.5569 232.415 42.1309 232.415 42.7049C232.415 43.2789 232.443 43.8459 232.499 44.4059C232.555 44.9659 232.618 45.4559 232.688 45.8759C232.758 46.2959 232.814 46.5829 232.856 46.7369L230.987 47.2619C230.931 47.0799 230.861 46.7649 230.777 46.3169C230.707 45.8689 230.637 45.3299 230.567 44.6999C230.511 44.0699 230.483 43.4049 230.483 42.7049C230.483 42.0189 230.511 41.3539 230.567 40.7099C230.637 40.0519 230.714 39.4569 230.798 38.9249C230.896 38.3929 230.987 37.9659 231.071 37.6439C231.393 37.5179 231.89 37.3919 232.562 37.2659C233.248 37.1399 234.011 37.0769 234.851 37.0769C236.041 37.0769 237.035 37.2519 237.833 37.6019C238.645 37.9519 239.247 38.5189 239.639 39.3029C240.045 40.0729 240.248 41.1159 240.248 42.4319V47.5979H228.194ZM228.194 47.5979C228.11 47.5979 228.04 47.5769 227.984 47.5349C227.928 47.4929 227.886 47.4369 227.858 47.3669C227.83 47.2829 227.809 47.1849 227.795 47.0729C227.781 46.9609 227.774 46.8419 227.774 46.7159C227.774 46.5339 227.788 46.3799 227.816 46.2539C227.83 46.1279 227.872 46.0299 227.942 45.9599C227.998 45.8899 228.082 45.8549 228.194 45.8549V47.5979ZM96.5286 80.8059C95.6886 80.8059 94.9046 80.6869 94.1766 80.4489C93.4626 80.2109 92.8326 79.8749 92.2866 79.4409C91.7546 79.0209 91.3346 78.5169 91.0266 77.9289C90.7326 77.3409 90.5856 76.7039 90.5856 76.0179C90.5856 75.7379 90.6066 75.3739 90.6486 74.9259C90.7046 74.4639 90.7676 73.9529 90.8376 73.3929C90.9216 72.8189 91.0126 72.2309 91.1106 71.6289L93.0426 71.8809C92.8886 72.8049 92.7626 73.6449 92.6646 74.4009C92.5806 75.1429 92.5386 75.6679 92.5386 75.9759C92.5386 76.5779 92.7066 77.1099 93.0426 77.5719C93.3786 78.0339 93.8476 78.3979 94.4496 78.6639C95.0516 78.9299 95.7446 79.0629 96.5286 79.0629H102.472C103.494 79.0629 104.264 78.7829 104.782 78.2229C105.314 77.6769 105.58 76.8719 105.58 75.8079V75.0729H107.533V75.8079C107.533 76.7879 107.33 77.6489 106.924 78.3909C106.532 79.1469 105.958 79.7349 105.202 80.1549C104.46 80.5889 103.55 80.8059 102.472 80.8059H96.5286ZM104.446 75.5979C103.928 75.5979 103.41 75.5419 102.892 75.4299C102.374 75.3179 101.87 75.1009 101.38 74.7789L102.493 73.3299C102.689 73.4559 102.878 73.5609 103.06 73.6449C103.242 73.7289 103.445 73.7849 103.669 73.8129C103.893 73.8409 104.152 73.8549 104.446 73.8549H108.604V75.5979H104.446ZM108.604 75.5979V73.8549C108.688 73.8549 108.751 73.8759 108.793 73.9179C108.849 73.9599 108.891 74.0159 108.919 74.0859C108.961 74.1559 108.989 74.2469 109.003 74.3589C109.017 74.4569 109.024 74.5759 109.024 74.7159C109.024 74.8419 109.017 74.9609 109.003 75.0729C108.989 75.1849 108.961 75.2829 108.919 75.3669C108.891 75.4369 108.849 75.4929 108.793 75.5349C108.751 75.5769 108.688 75.5979 108.604 75.5979ZM96.5286 84.7749V82.7379H98.4606V84.7749H96.5286ZM99.6576 84.7749V82.7379H101.59V84.7749H99.6576ZM108.613 75.5979V73.8549H111.889C112.659 73.8549 113.394 73.7219 114.094 73.4559C114.808 73.1899 115.466 72.8399 116.068 72.4059C116.67 71.9719 117.188 71.4889 117.622 70.9569C118.07 70.4249 118.42 69.8859 118.672 69.3399C118.924 68.7939 119.05 68.2759 119.05 67.7859V66.5049L120.058 68.0799C119.26 67.6599 118.469 67.3519 117.685 67.1559C116.915 66.9459 116.166 66.8409 115.438 66.8409C114.724 66.8409 113.975 66.9459 113.191 67.1559C112.421 67.3519 111.644 67.6599 110.86 68.0799L111.868 66.5049V67.7859C111.868 68.2759 111.994 68.7939 112.246 69.3399C112.498 69.8859 112.841 70.4249 113.275 70.9569C113.709 71.4889 114.227 71.9719 114.829 72.4059C115.431 72.8399 116.082 73.1899 116.782 73.4559C117.496 73.7219 118.238 73.8549 119.008 73.8549H122.158V75.5979H119.26C118.168 75.5979 117.146 75.4229 116.194 75.0729C115.242 74.7229 114.381 74.2609 113.611 73.6869C112.841 73.0989 112.176 72.4619 111.616 71.7759C111.07 71.0759 110.65 70.3829 110.356 69.6969C110.062 68.9969 109.915 68.3599 109.915 67.7859V66.5469C110.517 66.2249 111.133 65.9589 111.763 65.7489C112.393 65.5249 113.023 65.3569 113.653 65.2449C114.283 65.1329 114.878 65.0769 115.438 65.0769C116.026 65.0769 116.628 65.1329 117.244 65.2449C117.86 65.3569 118.483 65.5249 119.113 65.7489C119.757 65.9589 120.38 66.2249 120.982 66.5469V67.7859C120.982 68.3599 120.835 68.9969 120.541 69.6969C120.247 70.3829 119.82 71.0759 119.26 71.7759C118.714 72.4619 118.056 73.0989 117.286 73.6869C116.516 74.2609 115.655 74.7229 114.703 75.0729C113.751 75.4229 112.729 75.5979 111.637 75.5979H108.613ZM108.613 75.5979C108.529 75.5979 108.459 75.5769 108.403 75.5349C108.347 75.4929 108.305 75.4369 108.277 75.3669C108.249 75.2829 108.228 75.1849 108.214 75.0729C108.2 74.9609 108.193 74.8419 108.193 74.7159C108.193 74.5339 108.207 74.3799 108.235 74.2539C108.249 74.1279 108.291 74.0299 108.361 73.9599C108.417 73.8899 108.501 73.8549 108.613 73.8549V75.5979ZM122.158 75.5979V73.8549C122.242 73.8549 122.312 73.8759 122.368 73.9179C122.424 73.9599 122.466 74.0159 122.494 74.0859C122.522 74.1559 122.543 74.2469 122.557 74.3589C122.571 74.4569 122.578 74.5759 122.578 74.7159C122.578 74.8419 122.571 74.9609 122.557 75.0729C122.543 75.1849 122.522 75.2829 122.494 75.3669C122.466 75.4369 122.424 75.4929 122.368 75.5349C122.312 75.5769 122.242 75.5979 122.158 75.5979ZM126.663 75.5979V73.8549H129.036V75.5979H126.663ZM129.036 75.5979V73.8549C129.12 73.8549 129.19 73.8759 129.246 73.9179C129.302 73.9599 129.344 74.0159 129.372 74.0859C129.4 74.1559 129.421 74.2469 129.435 74.3589C129.449 74.4569 129.456 74.5759 129.456 74.7159C129.456 74.8419 129.449 74.9609 129.435 75.0729C129.421 75.1849 129.4 75.2829 129.372 75.3669C129.344 75.4369 129.302 75.4929 129.246 75.5349C129.19 75.5769 129.12 75.5979 129.036 75.5979ZM122.148 75.5979C122.064 75.5979 121.994 75.5769 121.938 75.5349C121.882 75.4929 121.84 75.4369 121.812 75.3669C121.784 75.2829 121.763 75.1849 121.749 75.0729C121.735 74.9609 121.728 74.8419 121.728 74.7159C121.728 74.5339 121.742 74.3799 121.77 74.2539C121.784 74.1279 121.826 74.0299 121.896 73.9599C121.952 73.8899 122.036 73.8549 122.148 73.8549V75.5979ZM122.148 75.5979V73.8549H125.718L124.71 74.6529V65.0769H126.663V75.5979H122.148ZM122.967 79.5669V77.5299H124.899V79.5669H122.967ZM126.096 79.5669V77.5299H128.028V79.5669H126.096ZM133.26 75.5979V73.8549H135.507V75.5979H133.26ZM129.039 75.5979C128.955 75.5979 128.885 75.5769 128.829 75.5349C128.773 75.4929 128.731 75.4369 128.703 75.3669C128.675 75.2829 128.654 75.1849 128.64 75.0729C128.626 74.9609 128.619 74.8419 128.619 74.7159C128.619 74.5339 128.633 74.3799 128.661 74.2539C128.675 74.1279 128.717 74.0299 128.787 73.9599C128.843 73.8899 128.927 73.8549 129.039 73.8549V75.5979ZM129.039 75.5979V73.8549H132.294L131.286 74.6529V65.0769H133.26V75.5979H129.039ZM135.507 75.5979V73.8549C135.591 73.8549 135.661 73.8759 135.717 73.9179C135.773 73.9599 135.815 74.0159 135.843 74.0859C135.871 74.1559 135.892 74.2469 135.906 74.3589C135.92 74.4569 135.927 74.5759 135.927 74.7159C135.927 74.8419 135.92 74.9609 135.906 75.0729C135.892 75.1849 135.871 75.2829 135.843 75.3669C135.815 75.4369 135.773 75.4929 135.717 75.5349C135.661 75.5769 135.591 75.5979 135.507 75.5979ZM131.286 79.5669V77.5299H133.26V79.5669H131.286ZM135.499 75.5979V73.8549H140.749V75.5979H135.499ZM140.749 75.5979V73.8549C140.833 73.8549 140.903 73.8759 140.959 73.9179C141.015 73.9599 141.057 74.0159 141.085 74.0859C141.113 74.1559 141.134 74.2469 141.148 74.3589C141.162 74.4569 141.169 74.5759 141.169 74.7159C141.169 74.8419 141.162 74.9609 141.148 75.0729C141.134 75.1849 141.113 75.2829 141.085 75.3669C141.057 75.4369 141.015 75.4929 140.959 75.5349C140.903 75.5769 140.833 75.5979 140.749 75.5979ZM135.499 75.5979C135.415 75.5979 135.345 75.5769 135.289 75.5349C135.233 75.4929 135.191 75.4369 135.163 75.3669C135.135 75.2829 135.114 75.1849 135.1 75.0729C135.086 74.9609 135.079 74.8419 135.079 74.7159C135.079 74.5339 135.093 74.3799 135.121 74.2539C135.135 74.1279 135.177 74.0299 135.247 73.9599C135.303 73.8899 135.387 73.8549 135.499 73.8549V75.5979ZM154.525 75.5979V73.8549H156.793V75.5979H154.525ZM140.749 75.5979V73.8549H154.882L153.118 75.4089V70.5999C153.118 69.7459 152.999 69.0459 152.761 68.4999C152.537 67.9399 152.194 67.5269 151.732 67.2609C151.27 66.9809 150.696 66.8409 150.01 66.8409C149.408 66.8409 148.841 66.9459 148.309 67.1559C147.777 67.3659 147.287 67.6459 146.839 67.9959C146.391 68.3319 145.971 68.7029 145.579 69.1089C145.187 69.5149 144.83 69.9209 144.508 70.3269C144.2 70.7329 143.92 71.0969 143.668 71.4189L143.08 69.7809C143.556 69.1789 144.025 68.6049 144.487 68.0589C144.949 67.4989 145.446 66.9949 145.978 66.5469C146.524 66.0989 147.126 65.7419 147.784 65.4759C148.456 65.2099 149.226 65.0769 150.094 65.0769C151.074 65.0769 151.886 65.2449 152.53 65.5809C153.174 65.9169 153.678 66.3579 154.042 66.9039C154.42 67.4499 154.686 68.0519 154.84 68.7099C154.994 69.3539 155.071 69.9839 155.071 70.5999V75.5979H140.749ZM142.156 73.8549V60.6039H144.109V73.8549H142.156ZM140.749 75.5979C140.665 75.5979 140.595 75.5769 140.539 75.5349C140.483 75.4929 140.441 75.4369 140.413 75.3669C140.385 75.2829 140.364 75.1849 140.35 75.0729C140.336 74.9609 140.329 74.8419 140.329 74.7159C140.329 74.5339 140.343 74.3799 140.371 74.2539C140.385 74.1279 140.427 74.0299 140.497 73.9599C140.553 73.8899 140.637 73.8549 140.749 73.8549V75.5979ZM156.793 75.5979V73.8549C156.877 73.8549 156.947 73.8759 157.003 73.9179C157.059 73.9599 157.101 74.0159 157.129 74.0859C157.157 74.1559 157.178 74.2469 157.192 74.3589C157.206 74.4569 157.213 74.5759 157.213 74.7159C157.213 74.8419 157.206 74.9609 157.192 75.0729C157.178 75.1849 157.157 75.2829 157.129 75.3669C157.101 75.4369 157.059 75.4929 157.003 75.5349C156.947 75.5769 156.877 75.5979 156.793 75.5979ZM159.285 75.5979V60.6039H161.238V75.5979H159.285ZM156.786 75.5979V73.8549H159.285V75.5979H156.786ZM156.786 75.5979C156.702 75.5979 156.632 75.5769 156.576 75.5349C156.52 75.4929 156.478 75.4369 156.45 75.3669C156.422 75.2829 156.401 75.1849 156.387 75.0729C156.373 74.9609 156.366 74.8419 156.366 74.7159C156.366 74.5339 156.38 74.3799 156.408 74.2539C156.422 74.1279 156.464 74.0299 156.534 73.9599C156.59 73.8899 156.674 73.8549 156.786 73.8549V75.5979ZM164.789 75.5979V60.6039H166.742V75.5979H164.789ZM180.623 79.1259V77.4039H182.177V79.1259H180.623ZM179.321 82.2969C178.271 82.2969 177.354 82.1289 176.57 81.7929C175.8 81.4709 175.205 80.9879 174.785 80.3439C174.365 79.7139 174.155 78.9579 174.155 78.0759C174.155 77.1799 174.365 76.4169 174.785 75.7869C175.205 75.1569 175.8 74.6809 176.57 74.3589C177.354 74.0229 178.278 73.8549 179.342 73.8549H182.471V69.5289C182.471 68.6469 182.191 67.9819 181.631 67.5339C181.071 67.0859 180.21 66.8619 179.048 66.8619C178.698 66.8619 178.194 66.8899 177.536 66.9459C176.878 67.0019 176.178 67.0859 175.436 67.1979L175.226 65.6229C175.814 65.4689 176.444 65.3429 177.116 65.2449C177.802 65.1329 178.46 65.0769 179.09 65.0769C180.182 65.0769 181.12 65.2519 181.904 65.6019C182.702 65.9519 183.318 66.4629 183.752 67.1349C184.2 67.7929 184.424 68.5909 184.424 69.5289V75.5979H179.342C178.222 75.5979 177.403 75.8079 176.885 76.2279C176.367 76.6479 176.108 77.2709 176.108 78.0969C176.108 78.8949 176.367 79.5039 176.885 79.9239C177.403 80.3439 178.215 80.5539 179.321 80.5539C179.559 80.5539 179.825 80.5399 180.119 80.5119C180.427 80.4979 180.791 80.4629 181.211 80.4069L181.463 82.0869C181.141 82.1429 180.791 82.1919 180.413 82.2339C180.049 82.2759 179.685 82.2969 179.321 82.2969ZM197.819 75.5979V73.8549H200.066V75.5979H197.819ZM186.521 75.5979V73.8549H196.895L195.866 74.9049V60.6039H197.819V75.5979H186.521ZM189.755 73.8549V63.5649H191.708V73.8549H189.755ZM200.066 75.5979V73.8549C200.15 73.8549 200.22 73.8759 200.276 73.9179C200.332 73.9599 200.374 74.0159 200.402 74.0859C200.43 74.1559 200.451 74.2469 200.465 74.3589C200.479 74.4569 200.486 74.5759 200.486 74.7159C200.486 74.8419 200.479 74.9609 200.465 75.0729C200.451 75.1849 200.43 75.2829 200.402 75.3669C200.374 75.4369 200.332 75.4929 200.276 75.5349C200.22 75.5769 200.15 75.5979 200.066 75.5979ZM200.057 75.5979V73.8549H203.333C204.103 73.8549 204.838 73.7219 205.538 73.4559C206.252 73.1899 206.91 72.8399 207.512 72.4059C208.114 71.9719 208.632 71.4889 209.066 70.9569C209.514 70.4249 209.864 69.8859 210.116 69.3399C210.368 68.7939 210.494 68.2759 210.494 67.7859V66.5049L211.502 68.0799C210.704 67.6599 209.913 67.3519 209.129 67.1559C208.359 66.9459 207.61 66.8409 206.882 66.8409C206.168 66.8409 205.419 66.9459 204.635 67.1559C203.865 67.3519 203.088 67.6599 202.304 68.0799L203.312 66.5049V67.7859C203.312 68.2759 203.438 68.7939 203.69 69.3399C203.942 69.8859 204.285 70.4249 204.719 70.9569C205.153 71.4889 205.671 71.9719 206.273 72.4059C206.875 72.8399 207.526 73.1899 208.226 73.4559C208.94 73.7219 209.682 73.8549 210.452 73.8549H213.602V75.5979H210.704C209.612 75.5979 208.59 75.4229 207.638 75.0729C206.686 74.7229 205.825 74.2609 205.055 73.6869C204.285 73.0989 203.62 72.4619 203.06 71.7759C202.514 71.0759 202.094 70.3829 201.8 69.6969C201.506 68.9969 201.359 68.3599 201.359 67.7859V66.5469C201.961 66.2249 202.577 65.9589 203.207 65.7489C203.837 65.5249 204.467 65.3569 205.097 65.2449C205.727 65.1329 206.322 65.0769 206.882 65.0769C207.47 65.0769 208.072 65.1329 208.688 65.2449C209.304 65.3569 209.927 65.5249 210.557 65.7489C211.201 65.9589 211.824 66.2249 212.426 66.5469V67.7859C212.426 68.3599 212.279 68.9969 211.985 69.6969C211.691 70.3829 211.264 71.0759 210.704 71.7759C210.158 72.4619 209.5 73.0989 208.73 73.6869C207.96 74.2609 207.099 74.7229 206.147 75.0729C205.195 75.4229 204.173 75.5979 203.081 75.5979H200.057ZM200.057 75.5979C199.973 75.5979 199.903 75.5769 199.847 75.5349C199.791 75.4929 199.749 75.4369 199.721 75.3669C199.693 75.2829 199.672 75.1849 199.658 75.0729C199.644 74.9609 199.637 74.8419 199.637 74.7159C199.637 74.5339 199.651 74.3799 199.679 74.2539C199.693 74.1279 199.735 74.0299 199.805 73.9599C199.861 73.8899 199.945 73.8549 200.057 73.8549V75.5979ZM213.602 75.5979V73.8549C213.686 73.8549 213.756 73.8759 213.812 73.9179C213.868 73.9599 213.91 74.0159 213.938 74.0859C213.966 74.1559 213.987 74.2469 214.001 74.3589C214.015 74.4569 214.022 74.5759 214.022 74.7159C214.022 74.8419 214.015 74.9609 214.001 75.0729C213.987 75.1849 213.966 75.2829 213.938 75.3669C213.91 75.4369 213.868 75.4929 213.812 75.5349C213.756 75.5769 213.686 75.5979 213.602 75.5979ZM216.091 75.5979V60.6039H218.044V75.5979H216.091ZM213.592 75.5979V73.8549H216.091V75.5979H213.592ZM213.592 75.5979C213.508 75.5979 213.438 75.5769 213.382 75.5349C213.326 75.4929 213.284 75.4369 213.256 75.3669C213.228 75.2829 213.207 75.1849 213.193 75.0729C213.179 74.9609 213.172 74.8419 213.172 74.7159C213.172 74.5339 213.186 74.3799 213.214 74.2539C213.228 74.1279 213.27 74.0299 213.34 73.9599C213.396 73.8899 213.48 73.8549 213.592 73.8549V75.5979ZM221.596 75.5979V60.6039H223.549V75.5979H221.596ZM235.078 80.4069C234.574 80.4069 234.042 80.3649 233.482 80.2809C232.936 80.2109 232.334 80.1059 231.676 79.9659L231.97 78.3909C232.712 78.4749 233.328 78.5379 233.818 78.5799C234.308 78.6219 234.728 78.6429 235.078 78.6429C236.198 78.6429 237.01 78.4329 237.514 78.0129C238.032 77.5929 238.291 76.9839 238.291 76.1859V66.3159L239.089 66.8409H235.792C235.05 66.8409 234.469 66.9319 234.049 67.1139C233.629 67.2819 233.335 67.6249 233.167 68.1429C232.999 68.6469 232.915 69.3889 232.915 70.3689C232.915 71.3349 232.999 72.0699 233.167 72.5739C233.335 73.0639 233.622 73.3999 234.028 73.5819C234.448 73.7639 235.036 73.8549 235.792 73.8549H238.291V75.5979H235.792C234.574 75.5979 233.615 75.4159 232.915 75.0519C232.215 74.6739 231.711 74.0999 231.403 73.3299C231.109 72.5459 230.962 71.5589 230.962 70.3689C230.962 69.1649 231.109 68.1709 231.403 67.3869C231.711 66.6029 232.215 66.0219 232.915 65.6439C233.615 65.2659 234.574 65.0769 235.792 65.0769H240.244V76.1649C240.244 77.0609 240.034 77.8239 239.614 78.4539C239.194 79.0979 238.599 79.5809 237.829 79.9029C237.059 80.2389 236.142 80.4069 235.078 80.4069Z" fill="white"/>
<g clip-path="url(#clip0_153_194)">
<path d="M276.32 25.0567C275.451 25.2333 274.645 25.636 273.982 26.2242C273.32 26.8124 272.824 27.5651 272.545 28.4063C272.258 29.4216 272.267 30.498 272.572 31.5083C273.314 33.4791 275.241 34.8669 277.247 34.8669C278.363 34.8299 279.439 34.4433 280.323 33.7617C280.864 33.3348 281.308 32.7982 281.626 32.1872C281.945 31.5761 282.13 30.9046 282.17 30.2167C282.23 29.1249 281.929 28.0437 281.312 27.1408C280.695 26.238 279.798 25.5639 278.759 25.2233C278.106 25.0215 276.859 24.9331 276.32 25.0567Z" fill="white"/>
<path d="M261.116 65.3448C260.232 66.4349 259.124 67.8116 258.603 68.4493C258.205 68.9354 257.578 69.7042 257.215 70.1551C257.125 70.2677 256.873 70.6951 256.873 70.6951C256.873 70.6951 257.791 72.212 257.897 72.1054C258.092 71.9111 259.347 70.8593 260.681 69.7634C261.347 69.2173 263.436 67.3739 263.436 67.3739C263.436 67.3739 262.408 67.1577 261.888 66.6107C261.554 66.2408 261.292 65.8113 261.116 65.3448Z" fill="white"/>
<path d="M256.412 70.7944C256.412 70.7944 254.21 72.0225 253.91 72.3768C253.461 72.9067 253.302 73.2645 253.352 73.629C253.407 74.0311 254.385 75.6113 255.231 76.6483C256.423 78.1188 257.522 79.0707 258.062 79.1022C258.221 79.0843 258.376 79.0387 258.518 78.9673C258.74 78.834 258.259 77.97 258.259 77.97C258.259 77.97 257.313 75.1988 257.147 74.5115C256.905 73.5023 257.684 72.6224 257.684 72.6224L256.412 70.7944Z" fill="white"/>
<path d="M295.747 25.7726C295.34 25.8875 294.986 26.2764 294.173 27.4696C292.035 30.6423 289.41 33.1346 286.395 34.8404C284.416 35.9539 281.649 36.723 279.599 36.723C278.544 36.6897 277.493 36.5834 276.453 36.4048C276.037 36.3341 275.048 36.1572 274.242 36.0071C273.149 35.802 272.04 35.6955 270.928 35.6889C267.711 35.6005 265.537 35.9452 262.754 37.0057C260.394 37.8984 257.734 39.6482 255.374 41.84C253.421 43.6607 253.085 44.1909 253.43 44.8539C253.607 45.1985 253.845 45.3126 254.349 45.3047C255.091 45.3047 256.134 44.8363 258.167 43.6077C260.376 42.2731 262.362 41.4305 264.124 41.0799C265.317 40.8505 267.411 40.8679 268.41 41.1241C269.948 41.5308 271.167 42.3526 271.76 43.3779C272.449 44.5886 272.476 46.3298 271.83 48.0443C271.185 49.7588 269.32 52.9053 267.155 55.9454C266.872 56.3343 266.536 56.8116 266.404 56.9972C265.528 58.2346 263.276 61.1511 261.623 63.1926C260.884 64.1036 261.472 65.7499 262.592 66.4956C263.722 67.249 265.439 67.0561 265.439 67.0561C266.444 66.2037 267.58 65.2317 268.808 64.1737C270.885 62.3885 272.635 60.8151 275.693 58.0048C275.862 57.8316 276.06 57.6881 276.277 57.5807C276.56 57.5807 279.538 58.0394 280.334 58.2081C281.382 58.4384 282.415 58.7336 283.427 59.0919C284.435 59.525 284.488 60.0375 283.63 61.1158C282.402 62.6537 279.75 65.3581 277.178 67.6913C276.651 68.1495 276.155 68.6426 275.694 69.1673C275.614 69.3487 275.574 69.5454 275.577 69.7437C275.58 69.942 275.626 70.1374 275.711 70.3163C275.897 70.6787 276.869 71.7657 277.965 72.835C279.45 74.2845 280.21 74.8943 280.82 75.1241C281.174 75.2567 281.227 75.2567 281.474 75.1328C281.933 74.8943 281.925 74.6115 281.368 72.9587C280.82 71.3236 280.519 70.2101 280.519 69.8567C280.519 69.5647 280.82 69.2644 281.58 68.7784C283.851 67.3289 286.662 65.3585 287.811 64.4035C290.692 62.0173 291.655 60.5236 291.549 58.5793C291.514 57.9429 291.461 57.7573 291.125 57.0769C290.285 55.3799 288.049 53.6389 285.336 52.5606C284.22 52.1027 283.059 51.7649 281.872 51.553C281.62 51.5336 281.373 51.477 281.138 51.3851C281.138 51.1908 282.844 47.2313 283.48 45.9586C284.832 43.2188 285.442 42.4852 288.429 39.9576C291.62 37.271 293.034 35.7683 294.572 33.4706C295.641 31.862 296.852 29.025 297.152 27.3899C297.241 26.9126 297.232 26.7802 297.099 26.4355C297.056 26.3016 296.987 26.1777 296.895 26.0714C296.803 25.965 296.69 25.8782 296.564 25.8163C296.438 25.7544 296.3 25.7187 296.16 25.7112C296.019 25.7036 295.879 25.7245 295.747 25.7726Z" fill="white"/>
</g>
<defs>
<clipPath id="clip0_153_194">
<rect width="46.4189" height="57.1958" fill="white" transform="translate(250.791 25)"/>
</clipPath>
</defs>
</svg>
