<svg width="168" height="70" viewBox="0 0 168 70" fill="none" xmlns="http://www.w3.org/2000/svg">
<path d="M23.491 30.1649C22.5767 30.1649 21.8118 30.0563 21.1962 29.839C20.5807 29.6127 20.1145 29.2778 19.7977 28.8342C19.4899 28.3907 19.336 27.8249 19.336 27.1369C19.336 26.9196 19.3496 26.6888 19.3767 26.4444C19.4129 26.1909 19.4491 25.9465 19.4853 25.7112C19.5306 25.4758 19.5713 25.2721 19.6076 25.1001C19.6438 24.9281 19.6709 24.8059 19.689 24.7335L20.9247 24.9643C20.8975 25.1092 20.8568 25.3038 20.8025 25.5482C20.7572 25.7926 20.7119 26.0551 20.6667 26.3358C20.6214 26.6164 20.5988 26.8834 20.5988 27.1369C20.5988 27.4718 20.6531 27.7615 20.7617 28.0059C20.8704 28.2503 21.0378 28.4495 21.2641 28.6034C21.4995 28.7573 21.7982 28.8704 22.1603 28.9428C22.5315 29.0062 22.9841 29.0379 23.5182 29.0379H30.9456L30.2803 29.6082V24.0546L30.8098 24.5027H28.6644C28.1756 24.5027 27.7954 24.5615 27.5238 24.6792C27.2613 24.7969 27.0757 25.0187 26.9671 25.3445C26.8675 25.6704 26.8178 26.1457 26.8178 26.7703C26.8178 27.3949 26.8675 27.8701 26.9671 28.196C27.0757 28.5219 27.2613 28.7437 27.5238 28.8614C27.7954 28.9791 28.1756 29.0379 28.6644 29.0379V29.9205C27.8859 29.9205 27.2658 29.8209 26.8042 29.6218C26.3516 29.4226 26.0257 29.0922 25.8265 28.6305C25.6364 28.1689 25.5414 27.5488 25.5414 26.7703C25.5414 26.0008 25.6364 25.3672 25.8265 24.8693C26.0257 24.3624 26.3516 23.9867 26.8042 23.7423C27.2658 23.4888 27.8859 23.3621 28.6644 23.3621H31.5567V30.1649H23.491ZM28.2299 22.14V20.8229H29.5063V22.14H28.2299ZM33.9748 30.1649V20.4698H35.2376V30.1649H33.9748ZM39.0837 30.1649V29.0379H40.8218V30.1649H39.0837ZM36.7482 33.2744C36.6305 33.2744 36.5083 33.2653 36.3816 33.2472C36.2458 33.2382 36.11 33.2291 35.9742 33.2201L36.0829 32.0931C36.2187 32.1021 36.3454 32.1112 36.4631 32.1202C36.5717 32.1293 36.6622 32.1338 36.7346 32.1338C37.142 32.1338 37.4679 31.9799 37.7123 31.6721C37.9658 31.3644 38.0925 30.9344 38.0925 30.3822V23.3621H39.3689V30.3822C39.3689 30.9525 39.2557 31.4549 39.0294 31.8894C38.8031 32.3239 38.4953 32.6634 38.1061 32.9078C37.7168 33.1522 37.2642 33.2744 36.7482 33.2744ZM40.8218 30.1649V29.0379C40.8761 29.0379 40.9214 29.0515 40.9576 29.0786C40.9938 29.1058 41.0209 29.142 41.039 29.1873C41.0571 29.2325 41.0707 29.2914 41.0798 29.3638C41.0888 29.4271 41.0934 29.5041 41.0934 29.5946C41.0934 29.6761 41.0888 29.753 41.0798 29.8255C41.0707 29.8979 41.0571 29.9612 41.039 30.0156C41.0209 30.0608 40.9938 30.097 40.9576 30.1242C40.9214 30.1513 40.8761 30.1649 40.8218 30.1649ZM40.827 30.1649V29.0379H44.2216V30.1649H40.827ZM44.2216 30.1649V29.0379C44.2759 29.0379 44.3212 29.0515 44.3574 29.0786C44.3936 29.1058 44.4208 29.142 44.4389 29.1873C44.457 29.2325 44.4706 29.2914 44.4796 29.3638C44.4887 29.4271 44.4932 29.5041 44.4932 29.5946C44.4932 29.6761 44.4887 29.753 44.4796 29.8255C44.4706 29.8979 44.457 29.9612 44.4389 30.0156C44.4208 30.0608 44.3936 30.097 44.3574 30.1242C44.3212 30.1513 44.2759 30.1649 44.2216 30.1649ZM40.827 30.1649C40.7727 30.1649 40.7274 30.1513 40.6912 30.1242C40.655 30.097 40.6278 30.0608 40.6097 30.0156C40.5916 29.9612 40.578 29.8979 40.569 29.8255C40.5599 29.753 40.5554 29.6761 40.5554 29.5946C40.5554 29.4769 40.5645 29.3774 40.5826 29.2959C40.5916 29.2144 40.6188 29.1511 40.664 29.1058C40.7003 29.0605 40.7546 29.0379 40.827 29.0379V30.1649ZM44.2216 30.1649V29.0379H47.6163V30.1649H44.2216ZM47.6163 30.1649V29.0379C47.6706 29.0379 47.7158 29.0515 47.752 29.0786C47.7882 29.1058 47.8154 29.142 47.8335 29.1873C47.8516 29.2325 47.8652 29.2914 47.8742 29.3638C47.8833 29.4271 47.8878 29.5041 47.8878 29.5946C47.8878 29.6761 47.8833 29.753 47.8742 29.8255C47.8652 29.8979 47.8516 29.9612 47.8335 30.0156C47.8154 30.0608 47.7882 30.097 47.752 30.1242C47.7158 30.1513 47.6706 30.1649 47.6163 30.1649ZM44.2216 30.1649C44.1673 30.1649 44.122 30.1513 44.0858 30.1242C44.0496 30.097 44.0225 30.0608 44.0044 30.0156C43.9863 29.9612 43.9727 29.8979 43.9636 29.8255C43.9546 29.753 43.95 29.6761 43.95 29.5946C43.95 29.4769 43.9591 29.3774 43.9772 29.2959C43.9863 29.2144 44.0134 29.1511 44.0587 29.1058C44.0949 29.0605 44.1492 29.0379 44.2216 29.0379V30.1649ZM47.6162 30.1649V29.0379H51.0109V30.1649H47.6162ZM51.0109 30.1649V29.0379C51.0652 29.0379 51.1105 29.0515 51.1467 29.0786C51.1829 29.1058 51.21 29.142 51.2281 29.1873C51.2462 29.2325 51.2598 29.2914 51.2689 29.3638C51.2779 29.4271 51.2825 29.5041 51.2825 29.5946C51.2825 29.6761 51.2779 29.753 51.2689 29.8255C51.2598 29.8979 51.2462 29.9612 51.2281 30.0156C51.21 30.0608 51.1829 30.097 51.1467 30.1242C51.1105 30.1513 51.0652 30.1649 51.0109 30.1649ZM47.6162 30.1649C47.5619 30.1649 47.5167 30.1513 47.4805 30.1242C47.4443 30.097 47.4171 30.0608 47.399 30.0156C47.3809 29.9612 47.3673 29.8979 47.3583 29.8255C47.3492 29.753 47.3447 29.6761 47.3447 29.5946C47.3447 29.4769 47.3537 29.3774 47.3718 29.2959C47.3809 29.2144 47.408 29.1511 47.4533 29.1058C47.4895 29.0605 47.5438 29.0379 47.6162 29.0379V30.1649ZM51.0109 30.1649V29.0379H60.1492L59.0086 30.0427V26.9332C59.0086 26.381 58.9317 25.9284 58.7778 25.5754C58.633 25.2133 58.4112 24.9462 58.1125 24.7742C57.8137 24.5932 57.4426 24.5027 56.999 24.5027C56.6098 24.5027 56.2431 24.5706 55.8992 24.7063C55.5552 24.8421 55.2383 25.0232 54.9487 25.2495C54.659 25.4667 54.3874 25.7066 54.1339 25.9691C53.8805 26.2317 53.6496 26.4942 53.4414 26.7567C53.2423 27.0192 53.0612 27.2546 52.8983 27.4628L52.5181 26.4037C52.8259 26.0144 53.1291 25.6433 53.4279 25.2902C53.7266 24.9281 54.0479 24.6022 54.3919 24.3126C54.745 24.0229 55.1342 23.7921 55.5597 23.6201C55.9942 23.4481 56.4921 23.3621 57.0533 23.3621C57.687 23.3621 58.212 23.4707 58.6284 23.688C59.0449 23.9052 59.3707 24.1904 59.6061 24.5434C59.8505 24.8964 60.0225 25.2857 60.1221 25.7112C60.2217 26.1276 60.2714 26.5349 60.2714 26.9332V30.1649H51.0109ZM51.9206 29.0379V20.4698H53.1834V29.0379H51.9206ZM51.0109 30.1649C50.9566 30.1649 50.9113 30.1513 50.8751 30.1242C50.8389 30.097 50.8117 30.0608 50.7936 30.0156C50.7755 29.9612 50.7619 29.8979 50.7529 29.8255C50.7438 29.753 50.7393 29.6761 50.7393 29.5946C50.7393 29.4769 50.7484 29.3774 50.7665 29.2959C50.7755 29.2144 50.8027 29.1511 50.8479 29.1058C50.8842 29.0605 50.9385 29.0379 51.0109 29.0379V30.1649ZM61.8042 30.1649V29.0379H68.512L67.8467 29.7168V20.4698H69.1095V30.1649H61.8042ZM63.8953 29.0379V22.3844H65.1581V29.0379H63.8953ZM63.8546 21.4203C63.7007 21.2302 63.583 21.0492 63.5015 20.8772C63.4201 20.6962 63.3793 20.5061 63.3793 20.3069C63.3793 20.0353 63.4472 19.7909 63.583 19.5737C63.7279 19.3564 63.9134 19.1844 64.1397 19.0577C64.3751 18.9309 64.624 18.8676 64.8866 18.8676C65.0404 18.8676 65.1943 18.8902 65.3482 18.9355C65.5021 18.9807 65.6379 19.0396 65.7556 19.112L65.3754 19.7773C65.303 19.7321 65.2305 19.7049 65.1581 19.6959C65.0857 19.6778 65.0133 19.6687 64.9409 19.6687C64.7236 19.6687 64.5561 19.7275 64.4385 19.8452C64.3208 19.9629 64.2619 20.1168 64.2619 20.3069C64.2619 20.4246 64.2846 20.5377 64.3298 20.6464C64.3751 20.7459 64.4475 20.8591 64.5471 20.9858L63.8546 21.4203ZM63.1078 21.4475V20.6599H65.9457V21.4475H63.1078ZM71.4616 30.1649V20.4698H72.7244V30.1649H71.4616ZM79.5409 30.1649V29.0379H81.2789V30.1649H79.5409ZM77.2054 33.2744C77.0877 33.2744 76.9655 33.2653 76.8387 33.2472C76.703 33.2382 76.5672 33.2291 76.4314 33.2201L76.54 32.0931C76.6758 32.1021 76.8025 32.1112 76.9202 32.1202C77.0288 32.1293 77.1194 32.1338 77.1918 32.1338C77.5991 32.1338 77.925 31.9799 78.1694 31.6721C78.4229 31.3644 78.5496 30.9344 78.5496 30.3822V23.3621H79.826V30.3822C79.826 30.9525 79.7129 31.4549 79.4866 31.8894C79.2602 32.3239 78.9525 32.6634 78.5632 32.9078C78.174 33.1522 77.7213 33.2744 77.2054 33.2744ZM81.2789 30.1649V29.0379C81.3332 29.0379 81.3785 29.0515 81.4147 29.0786C81.4509 29.1058 81.4781 29.142 81.4962 29.1873C81.5143 29.2325 81.5279 29.2914 81.5369 29.3638C81.546 29.4271 81.5505 29.5041 81.5505 29.5946C81.5505 29.6761 81.546 29.753 81.5369 29.8255C81.5279 29.8979 81.5143 29.9612 81.4962 30.0156C81.4781 30.0608 81.4509 30.097 81.4147 30.1242C81.3785 30.1513 81.3332 30.1649 81.2789 30.1649ZM78.5496 22.14V20.8229H79.826V22.14H78.5496ZM81.2841 30.1649V29.0379H84.6788V30.1649H81.2841ZM84.6788 30.1649V29.0379C84.7331 29.0379 84.7783 29.0515 84.8145 29.0786C84.8507 29.1058 84.8779 29.142 84.896 29.1873C84.9141 29.2325 84.9277 29.2914 84.9367 29.3638C84.9458 29.4271 84.9503 29.5041 84.9503 29.5946C84.9503 29.6761 84.9458 29.753 84.9367 29.8255C84.9277 29.8979 84.9141 29.9612 84.896 30.0156C84.8779 30.0608 84.8507 30.097 84.8145 30.1242C84.7783 30.1513 84.7331 30.1649 84.6788 30.1649ZM81.2841 30.1649C81.2298 30.1649 81.1845 30.1513 81.1483 30.1242C81.1121 30.097 81.085 30.0608 81.0669 30.0156C81.0488 29.9612 81.0352 29.8979 81.0261 29.8255C81.0171 29.753 81.0125 29.6761 81.0125 29.5946C81.0125 29.4769 81.0216 29.3774 81.0397 29.2959C81.0488 29.2144 81.0759 29.1511 81.1212 29.1058C81.1574 29.0605 81.2117 29.0379 81.2841 29.0379V30.1649ZM84.6788 30.1649V29.0379H88.0734V30.1649H84.6788ZM88.0734 30.1649V29.0379C88.1277 29.0379 88.173 29.0515 88.2092 29.0786C88.2454 29.1058 88.2725 29.142 88.2906 29.1873C88.3088 29.2325 88.3223 29.2914 88.3314 29.3638C88.3404 29.4271 88.345 29.5041 88.345 29.5946C88.345 29.6761 88.3404 29.753 88.3314 29.8255C88.3223 29.8979 88.3088 29.9612 88.2906 30.0156C88.2725 30.0608 88.2454 30.097 88.2092 30.1242C88.173 30.1513 88.1277 30.1649 88.0734 30.1649ZM84.6788 30.1649C84.6244 30.1649 84.5792 30.1513 84.543 30.1242C84.5068 30.097 84.4796 30.0608 84.4615 30.0156C84.4434 29.9612 84.4298 29.8979 84.4208 29.8255C84.4117 29.753 84.4072 29.6761 84.4072 29.5946C84.4072 29.4769 84.4162 29.3774 84.4343 29.2959C84.4434 29.2144 84.4706 29.1511 84.5158 29.1058C84.552 29.0605 84.6063 29.0379 84.6788 29.0379V30.1649ZM88.0734 30.1649V29.0379H91.468V30.1649H88.0734ZM91.468 30.1649V29.0379C91.5223 29.0379 91.5676 29.0515 91.6038 29.0786C91.64 29.1058 91.6672 29.142 91.6853 29.1873C91.7034 29.2325 91.717 29.2914 91.726 29.3638C91.7351 29.4271 91.7396 29.5041 91.7396 29.5946C91.7396 29.6761 91.7351 29.753 91.726 29.8255C91.717 29.8979 91.7034 29.9612 91.6853 30.0156C91.6672 30.0608 91.64 30.097 91.6038 30.1242C91.5676 30.1513 91.5223 30.1649 91.468 30.1649ZM88.0734 30.1649C88.0191 30.1649 87.9738 30.1513 87.9376 30.1242C87.9014 30.097 87.8742 30.0608 87.8561 30.0156C87.838 29.9612 87.8244 29.8979 87.8154 29.8255C87.8063 29.753 87.8018 29.6761 87.8018 29.5946C87.8018 29.4769 87.8109 29.3774 87.829 29.2959C87.838 29.2144 87.8652 29.1511 87.9104 29.1058C87.9467 29.0605 88.001 29.0379 88.0734 29.0379V30.1649ZM91.468 30.1649V29.0379H98.2573L97.8228 29.4181V27.1505C97.8228 26.6707 97.7594 26.2769 97.6327 25.9691C97.515 25.6523 97.3339 25.4215 97.0895 25.2766C96.8451 25.1228 96.5419 25.0458 96.1798 25.0458H93.2061L92.337 23.7558L92.9617 22.5745C93.0612 22.3935 93.1653 22.2034 93.274 22.0042C93.3916 21.796 93.532 21.5607 93.6949 21.2981C93.8669 21.0266 94.0841 20.7007 94.3467 20.3205L95.4058 20.9315C95.1523 21.3208 94.9441 21.6421 94.7812 21.8956C94.6273 22.1491 94.496 22.3708 94.3874 22.5609C94.2788 22.742 94.1747 22.923 94.0751 23.1041L93.4369 24.3261L93.1653 23.9188H96.1798C96.7501 23.9188 97.2253 24.0184 97.6055 24.2175C97.9857 24.4076 98.2799 24.6611 98.4881 24.9779C98.7054 25.2947 98.8593 25.6478 98.9498 26.037C99.0494 26.4172 99.0992 26.7884 99.0992 27.1505V30.1649H91.468ZM91.468 30.1649C91.4137 30.1649 91.3684 30.1513 91.3322 30.1242C91.296 30.097 91.2689 30.0608 91.2508 30.0156C91.2327 29.9612 91.2191 29.8979 91.21 29.8255C91.201 29.753 91.1964 29.6761 91.1964 29.5946C91.1964 29.4769 91.2055 29.3774 91.2236 29.2959C91.2327 29.2144 91.2598 29.1511 91.3051 29.1058C91.3413 29.0605 91.3956 29.0379 91.468 29.0379V30.1649ZM102.654 30.1649V29.0379H104.392V30.1649H102.654ZM100.318 33.2744C100.2 33.2744 100.078 33.2653 99.9514 33.2472C99.8156 33.2382 99.6798 33.2291 99.5441 33.2201L99.6527 32.0931C99.7885 32.1021 99.9152 32.1112 100.033 32.1202C100.142 32.1293 100.232 32.1338 100.304 32.1338C100.712 32.1338 101.038 31.9799 101.282 31.6721C101.536 31.3644 101.662 30.9344 101.662 30.3822V23.3621H102.939V30.3822C102.939 30.9525 102.826 31.4549 102.599 31.8894C102.373 32.3239 102.065 32.6634 101.676 32.9078C101.287 33.1522 100.834 33.2744 100.318 33.2744ZM104.392 30.1649V29.0379C104.446 29.0379 104.491 29.0515 104.527 29.0786C104.564 29.1058 104.591 29.142 104.609 29.1873C104.627 29.2325 104.641 29.2914 104.65 29.3638C104.659 29.4271 104.663 29.5041 104.663 29.5946C104.663 29.6761 104.659 29.753 104.65 29.8255C104.641 29.8979 104.627 29.9612 104.609 30.0156C104.591 30.0608 104.564 30.097 104.527 30.1242C104.491 30.1513 104.446 30.1649 104.392 30.1649ZM104.397 30.1649V29.0379H107.791V30.1649H104.397ZM107.791 30.1649V29.0379C107.846 29.0379 107.891 29.0515 107.927 29.0786C107.963 29.1058 107.991 29.142 108.009 29.1873C108.027 29.2325 108.04 29.2914 108.049 29.3638C108.058 29.4271 108.063 29.5041 108.063 29.5946C108.063 29.6761 108.058 29.753 108.049 29.8255C108.04 29.8979 108.027 29.9612 108.009 30.0156C107.991 30.0608 107.963 30.097 107.927 30.1242C107.891 30.1513 107.846 30.1649 107.791 30.1649ZM104.397 30.1649C104.342 30.1649 104.297 30.1513 104.261 30.1242C104.225 30.097 104.198 30.0608 104.18 30.0156C104.161 29.9612 104.148 29.8979 104.139 29.8255C104.13 29.753 104.125 29.6761 104.125 29.5946C104.125 29.4769 104.134 29.3774 104.152 29.2959C104.161 29.2144 104.189 29.1511 104.234 29.1058C104.27 29.0605 104.324 29.0379 104.397 29.0379V30.1649ZM107.791 30.1649V29.0379H115.11L114.309 29.6354V26.8246C114.309 26.2271 114.241 25.7609 114.105 25.426C113.979 25.0911 113.752 24.8512 113.427 24.7063C113.101 24.5615 112.657 24.4891 112.096 24.4891C111.716 24.4891 111.34 24.5162 110.969 24.5706C110.598 24.6249 110.308 24.6973 110.1 24.7878L110.874 24.0274C110.819 24.2356 110.765 24.5027 110.711 24.8286C110.657 25.1544 110.611 25.5075 110.575 25.8877C110.539 26.2588 110.521 26.63 110.521 27.0011C110.521 27.3723 110.539 27.7389 110.575 28.101C110.611 28.4631 110.652 28.7799 110.697 29.0515C110.743 29.323 110.779 29.5086 110.806 29.6082L109.597 29.9477C109.561 29.83 109.516 29.6263 109.462 29.3366C109.416 29.047 109.371 28.6984 109.326 28.2911C109.29 27.8837 109.271 27.4537 109.271 27.0011C109.271 26.5576 109.29 26.1276 109.326 25.7112C109.371 25.2857 109.421 24.901 109.475 24.557C109.539 24.213 109.597 23.9369 109.652 23.7287C109.86 23.6472 110.181 23.5657 110.616 23.4843C111.059 23.4028 111.553 23.3621 112.096 23.3621C112.865 23.3621 113.508 23.4752 114.024 23.7015C114.549 23.9278 114.938 24.2945 115.192 24.8014C115.454 25.2993 115.586 25.9737 115.586 26.8246V30.1649H107.791ZM107.791 30.1649C107.737 30.1649 107.692 30.1513 107.656 30.1242C107.619 30.097 107.592 30.0608 107.574 30.0156C107.556 29.9612 107.542 29.8979 107.533 29.8255C107.524 29.753 107.52 29.6761 107.52 29.5946C107.52 29.4769 107.529 29.3774 107.547 29.2959C107.556 29.2144 107.583 29.1511 107.628 29.1058C107.665 29.0605 107.719 29.0379 107.791 29.0379V30.1649ZM22.6571 51.5324C22.114 51.5324 21.607 51.4554 21.1363 51.3016C20.6746 51.1477 20.2673 50.9304 19.9142 50.6498C19.5703 50.3782 19.2987 50.0523 19.0995 49.6721C18.9094 49.2919 18.8144 48.8801 18.8144 48.4365C18.8144 48.2554 18.828 48.0201 18.8551 47.7304C18.8913 47.4317 18.9321 47.1013 18.9773 46.7392C19.0316 46.368 19.0905 45.9878 19.1538 45.5986L20.4031 45.7615C20.3035 46.359 20.222 46.9021 20.1587 47.3909C20.1043 47.8707 20.0772 48.2102 20.0772 48.4093C20.0772 48.7986 20.1858 49.1426 20.4031 49.4413C20.6203 49.74 20.9236 49.9754 21.3128 50.1474C21.7021 50.3194 22.1502 50.4054 22.6571 50.4054H26.4998C27.1607 50.4054 27.6585 50.2243 27.9935 49.8622C28.3375 49.5092 28.5095 48.9887 28.5095 48.3007V47.8255H29.7723V48.3007C29.7723 48.9344 29.641 49.4911 29.3785 49.9709C29.125 50.4597 28.7539 50.8399 28.265 51.1115C27.7853 51.3921 27.1969 51.5324 26.4998 51.5324H22.6571ZM27.7762 48.1649C27.4413 48.1649 27.1063 48.1287 26.7714 48.0563C26.4365 47.9839 26.1106 47.8436 25.7937 47.6354L26.5134 46.6984C26.6401 46.7799 26.7624 46.8478 26.88 46.9021C26.9977 46.9564 27.129 46.9926 27.2738 47.0107C27.4186 47.0288 27.5861 47.0379 27.7762 47.0379H30.4648V48.1649H27.7762ZM30.4648 48.1649V47.0379C30.5191 47.0379 30.5598 47.0515 30.587 47.0786C30.6232 47.1058 30.6503 47.142 30.6684 47.1873C30.6956 47.2325 30.7137 47.2914 30.7228 47.3638C30.7318 47.4271 30.7363 47.5041 30.7363 47.5946C30.7363 47.6761 30.7318 47.753 30.7228 47.8255C30.7137 47.8979 30.6956 47.9612 30.6684 48.0156C30.6503 48.0608 30.6232 48.097 30.587 48.1242C30.5598 48.1513 30.5191 48.1649 30.4648 48.1649ZM22.6571 54.0987V52.7816H23.9063V54.0987H22.6571ZM24.6803 54.0987V52.7816H25.9295V54.0987H24.6803ZM30.4707 48.1649V47.0379H32.589C33.0868 47.0379 33.5621 46.9519 34.0147 46.7799C34.4764 46.6079 34.9018 46.3816 35.2911 46.101C35.6803 45.8204 36.0153 45.5081 36.2959 45.1641C36.5856 44.8201 36.8119 44.4716 36.9748 44.1185C37.1378 43.7655 37.2192 43.4305 37.2192 43.1137V42.2854L37.871 43.3038C37.355 43.0322 36.8436 42.8331 36.3366 42.7063C35.8388 42.5706 35.3545 42.5027 34.8837 42.5027C34.4221 42.5027 33.9378 42.5706 33.4308 42.7063C32.9329 42.8331 32.4305 43.0322 31.9236 43.3038L32.5754 42.2854V43.1137C32.5754 43.4305 32.6568 43.7655 32.8198 44.1185C32.9827 44.4716 33.2045 44.8201 33.4851 45.1641C33.7658 45.5081 34.1007 45.8204 34.49 46.101C34.8792 46.3816 35.3001 46.6079 35.7528 46.7799C36.2144 46.9519 36.6942 47.0379 37.1921 47.0379H39.2289V48.1649H37.355C36.6489 48.1649 35.9881 48.0518 35.3726 47.8255C34.757 47.5991 34.2003 47.3004 33.7024 46.9293C33.2045 46.5491 32.7745 46.1372 32.4124 45.6936C32.0594 45.241 31.7878 44.7929 31.5977 44.3493C31.4076 43.8967 31.3126 43.4848 31.3126 43.1137V42.3126C31.7018 42.1044 32.1001 41.9324 32.5075 41.7966C32.9148 41.6517 33.3222 41.5431 33.7296 41.4707C34.1369 41.3983 34.5216 41.3621 34.8837 41.3621C35.2639 41.3621 35.6532 41.3983 36.0515 41.4707C36.4498 41.5431 36.8526 41.6517 37.26 41.7966C37.6764 41.9324 38.0792 42.1044 38.4685 42.3126V43.1137C38.4685 43.4848 38.3734 43.8967 38.1833 44.3493C37.9932 44.7929 37.7171 45.241 37.355 45.6936C37.002 46.1372 36.5765 46.5491 36.0786 46.9293C35.5808 47.3004 35.024 47.5991 34.4085 47.8255C33.7929 48.0518 33.1321 48.1649 32.426 48.1649H30.4707ZM30.4707 48.1649C30.4164 48.1649 30.3711 48.1513 30.3349 48.1242C30.2987 48.097 30.2716 48.0608 30.2534 48.0156C30.2353 47.9612 30.2218 47.8979 30.2127 47.8255C30.2037 47.753 30.1991 47.6761 30.1991 47.5946C30.1991 47.4769 30.2082 47.3774 30.2263 47.2959C30.2353 47.2144 30.2625 47.1511 30.3078 47.1058C30.344 47.0605 30.3983 47.0379 30.4707 47.0379V48.1649ZM39.2289 48.1649V47.0379C39.2832 47.0379 39.3284 47.0515 39.3646 47.0786C39.4009 47.1058 39.428 47.142 39.4461 47.1873C39.4642 47.2325 39.4778 47.2914 39.4869 47.3638C39.4959 47.4271 39.5004 47.5041 39.5004 47.5946C39.5004 47.6761 39.4959 47.753 39.4869 47.8255C39.4778 47.8979 39.4642 47.9612 39.4461 48.0156C39.428 48.0608 39.4009 48.097 39.3646 48.1242C39.3284 48.1513 39.2832 48.1649 39.2289 48.1649ZM42.1419 48.1649V47.0379H43.6763V48.1649H42.1419ZM43.6763 48.1649V47.0379C43.7306 47.0379 43.7758 47.0515 43.812 47.0786C43.8482 47.1058 43.8754 47.142 43.8935 47.1873C43.9116 47.2325 43.9252 47.2914 43.9342 47.3638C43.9433 47.4271 43.9478 47.5041 43.9478 47.5946C43.9478 47.6761 43.9433 47.753 43.9342 47.8255C43.9252 47.8979 43.9116 47.9612 43.8935 48.0156C43.8754 48.0608 43.8482 48.097 43.812 48.1242C43.7758 48.1513 43.7306 48.1649 43.6763 48.1649ZM39.2225 48.1649C39.1682 48.1649 39.1229 48.1513 39.0867 48.1242C39.0505 48.097 39.0233 48.0608 39.0052 48.0156C38.9871 47.9612 38.9736 47.8979 38.9645 47.8255C38.9554 47.753 38.9509 47.6761 38.9509 47.5946C38.9509 47.4769 38.96 47.3774 38.9781 47.2959C38.9871 47.2144 39.0143 47.1511 39.0596 47.1058C39.0958 47.0605 39.1501 47.0379 39.2225 47.0379V48.1649ZM39.2225 48.1649V47.0379H41.5308L40.8791 47.5539V41.3621H42.1419V48.1649H39.2225ZM39.7521 50.7313V49.4141H41.0013V50.7313H39.7521ZM41.7753 50.7313V49.4141H43.0245V50.7313H41.7753ZM46.4072 48.1649V47.0379H47.8601V48.1649H46.4072ZM43.678 48.1649C43.6236 48.1649 43.5784 48.1513 43.5422 48.1242C43.506 48.097 43.4788 48.0608 43.4607 48.0156C43.4426 47.9612 43.429 47.8979 43.42 47.8255C43.4109 47.753 43.4064 47.6761 43.4064 47.5946C43.4064 47.4769 43.4154 47.3774 43.4335 47.2959C43.4426 47.2144 43.4697 47.1511 43.515 47.1058C43.5512 47.0605 43.6055 47.0379 43.678 47.0379V48.1649ZM43.678 48.1649V47.0379H45.7826L45.1309 47.5539V41.3621H46.4072V48.1649H43.678ZM47.8601 48.1649V47.0379C47.9145 47.0379 47.9597 47.0515 47.9959 47.0786C48.0321 47.1058 48.0593 47.142 48.0774 47.1873C48.0955 47.2325 48.1091 47.2914 48.1181 47.3638C48.1272 47.4271 48.1317 47.5041 48.1317 47.5946C48.1317 47.6761 48.1272 47.753 48.1181 47.8255C48.1091 47.8979 48.0955 47.9612 48.0774 48.0156C48.0593 48.0608 48.0321 48.097 47.9959 48.1242C47.9597 48.1513 47.9145 48.1649 47.8601 48.1649ZM45.1309 50.7313V49.4141H46.4072V50.7313H45.1309ZM47.8549 48.1649V47.0379H51.2496V48.1649H47.8549ZM51.2496 48.1649V47.0379C51.3039 47.0379 51.3492 47.0515 51.3854 47.0786C51.4216 47.1058 51.4487 47.142 51.4668 47.1873C51.4849 47.2325 51.4985 47.2914 51.5076 47.3638C51.5166 47.4271 51.5211 47.5041 51.5211 47.5946C51.5211 47.6761 51.5166 47.753 51.5076 47.8255C51.4985 47.8979 51.4849 47.9612 51.4668 48.0156C51.4487 48.0608 51.4216 48.097 51.3854 48.1242C51.3492 48.1513 51.3039 48.1649 51.2496 48.1649ZM47.8549 48.1649C47.8006 48.1649 47.7554 48.1513 47.7192 48.1242C47.6829 48.097 47.6558 48.0608 47.6377 48.0156C47.6196 47.9612 47.606 47.8979 47.597 47.8255C47.5879 47.753 47.5834 47.6761 47.5834 47.5946C47.5834 47.4769 47.5924 47.3774 47.6105 47.2959C47.6196 47.2144 47.6467 47.1511 47.692 47.1058C47.7282 47.0605 47.7825 47.0379 47.8549 47.0379V48.1649ZM60.1571 48.1649V47.0379H61.6236V48.1649H60.1571ZM51.2496 48.1649V47.0379H60.3879L59.2473 48.0427V44.9332C59.2473 44.381 59.1704 43.9284 59.0165 43.5754C58.8717 43.2133 58.6499 42.9462 58.3511 42.7742C58.0524 42.5932 57.6813 42.5027 57.2377 42.5027C56.8485 42.5027 56.4818 42.5706 56.1378 42.7063C55.7939 42.8421 55.477 43.0232 55.1874 43.2495C54.8977 43.4667 54.6261 43.7066 54.3726 43.9691C54.1192 44.2317 53.8883 44.4942 53.6801 44.7567C53.481 45.0192 53.2999 45.2546 53.137 45.4628L52.7568 44.4037C53.0646 44.0144 53.3678 43.6433 53.6666 43.2902C53.9653 42.9281 54.2866 42.6022 54.6306 42.3126C54.9837 42.0229 55.3729 41.7921 55.7984 41.6201C56.2329 41.4481 56.7308 41.3621 57.292 41.3621C57.9257 41.3621 58.4507 41.4707 58.8671 41.688C59.2835 41.9052 59.6094 42.1904 59.8448 42.5434C60.0892 42.8964 60.2612 43.2857 60.3608 43.7112C60.4603 44.1276 60.5101 44.5349 60.5101 44.9332V48.1649H51.2496ZM52.1593 47.0379V38.4698H53.4221V47.0379H52.1593ZM51.2496 48.1649C51.1953 48.1649 51.15 48.1513 51.1138 48.1242C51.0776 48.097 51.0504 48.0608 51.0323 48.0156C51.0142 47.9612 51.0006 47.8979 50.9916 47.8255C50.9825 47.753 50.978 47.6761 50.978 47.5946C50.978 47.4769 50.9871 47.3774 51.0052 47.2959C51.0142 47.2144 51.0414 47.1511 51.0866 47.1058C51.1228 47.0605 51.1772 47.0379 51.2496 47.0379V48.1649ZM61.6236 48.1649V47.0379C61.6779 47.0379 61.7232 47.0515 61.7594 47.0786C61.7956 47.1058 61.8227 47.142 61.8408 47.1873C61.8589 47.2325 61.8725 47.2914 61.8816 47.3638C61.8906 47.4271 61.8951 47.5041 61.8951 47.5946C61.8951 47.6761 61.8906 47.753 61.8816 47.8255C61.8725 47.8979 61.8589 47.9612 61.8408 48.0156C61.8227 48.0608 61.7956 48.097 61.7594 48.1242C61.7232 48.1513 61.6779 48.1649 61.6236 48.1649ZM63.235 48.1649V38.4698H64.4978V48.1649H63.235ZM61.6191 48.1649V47.0379H63.235V48.1649H61.6191ZM61.6191 48.1649C61.5648 48.1649 61.5195 48.1513 61.4833 48.1242C61.4471 48.097 61.42 48.0608 61.4019 48.0156C61.3838 47.9612 61.3702 47.8979 61.3611 47.8255C61.3521 47.753 61.3476 47.6761 61.3476 47.5946C61.3476 47.4769 61.3566 47.3774 61.3747 47.2959C61.3838 47.2144 61.4109 47.1511 61.4562 47.1058C61.4924 47.0605 61.5467 47.0379 61.6191 47.0379V48.1649ZM66.794 48.1649V38.4698H68.0568V48.1649H66.794ZM77.0322 50.4461V49.3327H78.0371V50.4461H77.0322ZM76.1904 52.4965C75.5114 52.4965 74.9185 52.3878 74.4116 52.1706C73.9137 51.9624 73.529 51.6501 73.2574 51.2337C72.9858 50.8263 72.8501 50.3375 72.8501 49.7672C72.8501 49.1878 72.9858 48.6945 73.2574 48.2871C73.529 47.8798 73.9137 47.572 74.4116 47.3638C74.9185 47.1465 75.516 47.0379 76.204 47.0379H78.2272V44.2407C78.2272 43.6704 78.0461 43.2404 77.684 42.9508C77.3219 42.6611 76.7652 42.5162 76.0139 42.5162C75.7875 42.5162 75.4617 42.5344 75.0362 42.5706C74.6107 42.6068 74.1581 42.6611 73.6783 42.7335L73.5426 41.7151C73.9228 41.6155 74.3301 41.5341 74.7646 41.4707C75.2082 41.3983 75.6337 41.3621 76.041 41.3621C76.7471 41.3621 77.3536 41.4752 77.8605 41.7015C78.3765 41.9278 78.7748 42.2583 79.0554 42.6928C79.3451 43.1182 79.49 43.6342 79.49 44.2407V48.1649H76.204C75.4798 48.1649 74.9502 48.3007 74.6153 48.5723C74.2803 48.8438 74.1129 49.2467 74.1129 49.7808C74.1129 50.2967 74.2803 50.6905 74.6153 50.9621C74.9502 51.2337 75.4752 51.3695 76.1904 51.3695C76.3443 51.3695 76.5163 51.3604 76.7064 51.3423C76.9055 51.3332 77.1409 51.3106 77.4124 51.2744L77.5754 52.3607C77.3672 52.3969 77.1409 52.4286 76.8965 52.4557C76.6611 52.4829 76.4257 52.4965 76.1904 52.4965ZM88.1513 48.1649V47.0379H89.6042V48.1649H88.1513ZM80.846 48.1649V47.0379H87.5538L86.8885 47.7168V38.4698H88.1513V48.1649H80.846ZM82.9371 47.0379V40.3844H84.1999V47.0379H82.9371ZM89.6042 48.1649V47.0379C89.6585 47.0379 89.7037 47.0515 89.7399 47.0786C89.7762 47.1058 89.8033 47.142 89.8214 47.1873C89.8395 47.2325 89.8531 47.2914 89.8622 47.3638C89.8712 47.4271 89.8757 47.5041 89.8757 47.5946C89.8757 47.6761 89.8712 47.753 89.8622 47.8255C89.8531 47.8979 89.8395 47.9612 89.8214 48.0156C89.8033 48.0608 89.7762 48.097 89.7399 48.1242C89.7037 48.1513 89.6585 48.1649 89.6042 48.1649ZM89.5983 48.1649V47.0379H91.7166C92.2145 47.0379 92.6897 46.9519 93.1423 46.7799C93.604 46.6079 94.0295 46.3816 94.4187 46.101C94.808 45.8204 95.1429 45.5081 95.4235 45.1641C95.7132 44.8201 95.9395 44.4716 96.1024 44.1185C96.2654 43.7655 96.3469 43.4305 96.3469 43.1137V42.2854L96.9986 43.3038C96.4826 43.0322 95.9712 42.8331 95.4643 42.7063C94.9664 42.5706 94.4821 42.5027 94.0114 42.5027C93.5497 42.5027 93.0654 42.5706 92.5584 42.7063C92.0606 42.8331 91.5582 43.0322 91.0512 43.3038L91.703 42.2854V43.1137C91.703 43.4305 91.7845 43.7655 91.9474 44.1185C92.1104 44.4716 92.3321 44.8201 92.6128 45.1641C92.8934 45.5081 93.2283 45.8204 93.6176 46.101C94.0068 46.3816 94.4278 46.6079 94.8804 46.7799C95.342 46.9519 95.8218 47.0379 96.3197 47.0379H98.3565V48.1649H96.4826C95.7766 48.1649 95.1157 48.0518 94.5002 47.8255C93.8846 47.5991 93.3279 47.3004 92.83 46.9293C92.3321 46.5491 91.9022 46.1372 91.5401 45.6936C91.187 45.241 90.9154 44.7929 90.7253 44.3493C90.5352 43.8967 90.4402 43.4848 90.4402 43.1137V42.3126C90.8294 42.1044 91.2278 41.9324 91.6351 41.7966C92.0425 41.6517 92.4498 41.5431 92.8572 41.4707C93.2645 41.3983 93.6493 41.3621 94.0114 41.3621C94.3916 41.3621 94.7808 41.3983 95.1791 41.4707C95.5774 41.5431 95.9802 41.6517 96.3876 41.7966C96.804 41.9324 97.2068 42.1044 97.5961 42.3126V43.1137C97.5961 43.4848 97.501 43.8967 97.3109 44.3493C97.1208 44.7929 96.8447 45.241 96.4826 45.6936C96.1296 46.1372 95.7041 46.5491 95.2063 46.9293C94.7084 47.3004 94.1517 47.5991 93.5361 47.8255C92.9205 48.0518 92.2597 48.1649 91.5536 48.1649H89.5983ZM89.5983 48.1649C89.544 48.1649 89.4988 48.1513 89.4625 48.1242C89.4263 48.097 89.3992 48.0608 89.3811 48.0156C89.363 47.9612 89.3494 47.8979 89.3403 47.8255C89.3313 47.753 89.3268 47.6761 89.3268 47.5946C89.3268 47.4769 89.3358 47.3774 89.3539 47.2959C89.363 47.2144 89.3901 47.1511 89.4354 47.1058C89.4716 47.0605 89.5259 47.0379 89.5983 47.0379V48.1649ZM98.3565 48.1649V47.0379C98.4108 47.0379 98.4561 47.0515 98.4923 47.0786C98.5285 47.1058 98.5556 47.142 98.5737 47.1873C98.5918 47.2325 98.6054 47.2914 98.6145 47.3638C98.6235 47.4271 98.6281 47.5041 98.6281 47.5946C98.6281 47.6761 98.6235 47.753 98.6145 47.8255C98.6054 47.8979 98.5918 47.9612 98.5737 48.0156C98.5556 48.0608 98.5285 48.097 98.4923 48.1242C98.4561 48.1513 98.4108 48.1649 98.3565 48.1649ZM99.966 48.1649V38.4698H101.229V48.1649H99.966ZM98.3501 48.1649V47.0379H99.966V48.1649H98.3501ZM98.3501 48.1649C98.2958 48.1649 98.2505 48.1513 98.2143 48.1242C98.1781 48.097 98.151 48.0608 98.1329 48.0156C98.1148 47.9612 98.1012 47.8979 98.0921 47.8255C98.0831 47.753 98.0785 47.6761 98.0785 47.5946C98.0785 47.4769 98.0876 47.3774 98.1057 47.2959C98.1148 47.2144 98.1419 47.1511 98.1872 47.1058C98.2234 47.0605 98.2777 47.0379 98.3501 47.0379V48.1649ZM103.525 48.1649V38.4698H104.788V48.1649H103.525ZM112.242 51.2744C111.917 51.2744 111.573 51.2472 111.21 51.1929C110.857 51.1477 110.468 51.0798 110.043 50.9893L110.233 49.9709C110.713 50.0252 111.111 50.0659 111.428 50.0931C111.745 50.1202 112.016 50.1338 112.242 50.1338C112.967 50.1338 113.492 49.998 113.818 49.7264C114.152 49.4549 114.32 49.0611 114.32 48.5451V42.1632L114.836 42.5027H112.704C112.224 42.5027 111.849 42.5615 111.577 42.6792C111.306 42.7878 111.115 43.0096 111.007 43.3445C110.898 43.6704 110.844 44.1502 110.844 44.7839C110.844 45.4085 110.898 45.8837 111.007 46.2096C111.115 46.5264 111.301 46.7437 111.564 46.8614C111.835 46.9791 112.215 47.0379 112.704 47.0379H114.32V48.1649H112.704C111.917 48.1649 111.296 48.0472 110.844 47.8119C110.391 47.5675 110.065 47.1963 109.866 46.6984C109.676 46.1915 109.581 45.5533 109.581 44.7839C109.581 44.0054 109.676 43.3626 109.866 42.8557C110.065 42.3488 110.391 41.9731 110.844 41.7287C111.296 41.4843 111.917 41.3621 112.704 41.3621H115.583V48.5315C115.583 49.1109 115.447 49.6042 115.175 50.0116C114.904 50.428 114.519 50.7403 114.021 50.9485C113.523 51.1658 112.93 51.2744 112.242 51.2744Z" fill="white"/>
<g clip-path="url(#clip0_745_23522)">
<path d="M138.91 16.2103C138.348 16.3244 137.827 16.5849 137.398 16.9652C136.97 17.3455 136.649 17.8322 136.469 18.3761C136.283 19.0326 136.289 19.7286 136.486 20.3819C136.966 21.6562 138.212 22.5535 139.509 22.5535C140.231 22.5296 140.926 22.2796 141.498 21.8389C141.848 21.5629 142.135 21.2159 142.341 20.8208C142.547 20.4257 142.667 19.9915 142.692 19.5467C142.731 18.8408 142.536 18.1416 142.138 17.5578C141.739 16.9741 141.158 16.5382 140.486 16.318C140.064 16.1875 139.259 16.1303 138.91 16.2103Z" fill="white"/>
<path d="M129.079 42.2604C128.508 42.9653 127.791 43.8555 127.454 44.2678C127.197 44.5821 126.791 45.0792 126.557 45.3707C126.498 45.4435 126.335 45.7199 126.335 45.7199C126.335 45.7199 126.929 46.7007 126.998 46.6318C127.123 46.5061 127.935 45.826 128.798 45.1175C129.228 44.7644 130.579 43.5725 130.579 43.5725C130.579 43.5725 129.915 43.4326 129.578 43.079C129.362 42.8398 129.193 42.5621 129.079 42.2604Z" fill="white"/>
<path d="M126.037 45.7841C126.037 45.7841 124.613 46.5782 124.42 46.8073C124.129 47.1499 124.026 47.3813 124.059 47.6169C124.094 47.877 124.727 48.8987 125.274 49.5692C126.045 50.52 126.755 51.1356 127.104 51.1559C127.207 51.1444 127.307 51.1148 127.399 51.0687C127.542 50.9825 127.231 50.4239 127.231 50.4239C127.231 50.4239 126.62 48.632 126.513 48.1876C126.356 47.5351 126.86 46.9661 126.86 46.9661L126.037 45.7841Z" fill="white"/>
<path d="M151.471 16.6731C151.208 16.7474 150.979 16.9989 150.454 17.7704C149.071 19.8219 147.374 21.4334 145.424 22.5364C144.144 23.2564 142.356 23.7536 141.03 23.7536C140.348 23.7321 139.668 23.6634 138.996 23.5479C138.727 23.5022 138.087 23.3878 137.566 23.2907C136.86 23.1581 136.142 23.0893 135.423 23.085C133.343 23.0278 131.937 23.2507 130.138 23.9365C128.612 24.5137 126.892 25.6451 125.366 27.0623C124.103 28.2395 123.886 28.5824 124.109 29.011C124.223 29.2339 124.378 29.3077 124.703 29.3025C125.183 29.3025 125.858 28.9997 127.172 28.2053C128.601 27.3423 129.885 26.7975 131.024 26.5708C131.795 26.4225 133.149 26.4337 133.795 26.5994C134.79 26.8623 135.578 27.3937 135.961 28.0567C136.407 28.8395 136.424 29.9654 136.007 31.074C135.59 32.1826 134.384 34.2171 132.984 36.1828C132.801 36.4343 132.584 36.7429 132.498 36.8629C131.932 37.663 130.476 39.5488 129.407 40.8688C128.929 41.4579 129.309 42.5224 130.033 43.0045C130.764 43.4917 131.874 43.367 131.874 43.367C132.524 42.8158 133.258 42.1873 134.053 41.5032C135.396 40.3489 136.527 39.3315 138.504 37.5144C138.614 37.4024 138.742 37.3096 138.882 37.2402C139.065 37.2402 140.991 37.5368 141.505 37.6459C142.183 37.7948 142.851 37.9856 143.505 38.2173C144.157 38.4973 144.191 38.8288 143.637 39.526C142.842 40.5204 141.128 42.269 139.465 43.7777C139.124 44.0739 138.803 44.3927 138.505 44.732C138.453 44.8493 138.427 44.9765 138.429 45.1047C138.431 45.233 138.461 45.3593 138.516 45.4749C138.636 45.7093 139.265 46.4122 139.974 47.1036C140.934 48.0408 141.425 48.4351 141.819 48.5836C142.049 48.6694 142.082 48.6694 142.242 48.5893C142.539 48.4351 142.534 48.2522 142.174 47.1835C141.819 46.1263 141.625 45.4063 141.625 45.1778C141.625 44.989 141.819 44.7948 142.311 44.4805C143.779 43.5433 145.597 42.2693 146.34 41.6518C148.203 40.1089 148.825 39.1431 148.757 37.8859C148.734 37.4744 148.7 37.3544 148.483 36.9144C147.94 35.8171 146.494 34.6914 144.74 33.9942C144.018 33.6981 143.267 33.4797 142.499 33.3427C142.337 33.3301 142.177 33.2935 142.025 33.2341C142.025 33.1085 143.128 30.5483 143.539 29.7254C144.414 27.9538 144.808 27.4795 146.739 25.8452C148.802 24.108 149.717 23.1364 150.711 21.6506C151.403 20.6105 152.186 18.7761 152.38 17.7189C152.437 17.4103 152.431 17.3247 152.346 17.1018C152.318 17.0152 152.273 16.9351 152.213 16.8663C152.154 16.7975 152.081 16.7415 151.999 16.7014C151.918 16.6614 151.829 16.6383 151.738 16.6334C151.647 16.6286 151.556 16.6421 151.471 16.6731Z" fill="white"/>
</g>
<defs>
<clipPath id="clip0_745_23522">
<rect width="30.0143" height="36.9826" fill="white" transform="translate(122.402 16.1736)"/>
</clipPath>
</defs>
</svg>
