<svg width="36" height="36" viewBox="0 0 36 36" fill="none" xmlns="http://www.w3.org/2000/svg">
<path d="M19.9439 6.05327C18.7919 5.18927 17.2079 5.18927 16.0559 6.05327L6.6959 13.0733C5.88006 13.6852 5.3999 14.6455 5.3999 15.6653V27.3601C5.3999 29.1496 6.8505 30.6001 8.6399 30.6001H14.7599C15.3563 30.6001 15.8399 30.1165 15.8399 29.5201V25.2001C15.8399 24.0072 16.807 23.0401 17.9999 23.0401C19.1928 23.0401 20.1599 24.0072 20.1599 25.2001V29.5201C20.1599 30.1165 20.6435 30.6001 21.2399 30.6001H27.3599C29.1492 30.6001 30.5999 29.1496 30.5999 27.3601V15.6653C30.5999 14.6455 30.1198 13.6852 29.3039 13.0733L19.9439 6.05327Z" fill="#003366"/>
</svg>
