<svg width="22" height="22" viewBox="0 0 22 22" fill="none" xmlns="http://www.w3.org/2000/svg">
<path d="M17.6732 0.201288C17.5443 0.0724034 17.3695 0 17.1872 0C17.0049 0 16.83 0.0724034 16.7011 0.201288L14.4366 2.46588L19.5335 7.56295L21.798 5.29972C21.8621 5.23586 21.9128 5.16 21.9475 5.07647C21.9822 4.99295 22 4.90341 22 4.81298C22 4.72255 21.9822 4.63301 21.9475 4.54949C21.9128 4.46596 21.8621 4.3901 21.798 4.32624L17.6732 0.201288ZM18.5614 8.53506L13.4645 3.438L4.52741 12.3754H4.81202C4.99435 12.3754 5.16921 12.4478 5.29814 12.5767C5.42706 12.7057 5.49949 12.8805 5.49949 13.0629V13.7504H6.18696C6.36929 13.7504 6.54415 13.8228 6.67308 13.9517C6.802 14.0807 6.87443 14.2555 6.87443 14.4379V15.1254H7.5619C7.74423 15.1254 7.91909 15.1978 8.04802 15.3267C8.17694 15.4556 8.24937 15.6305 8.24937 15.8128V16.5003H8.93684C9.11917 16.5003 9.29403 16.5728 9.42296 16.7017C9.55188 16.8306 9.62431 17.0055 9.62431 17.1878V17.4724L18.5614 8.53506ZM8.29337 18.8034C8.26444 18.7265 8.24954 18.645 8.24937 18.5628V17.8753H7.5619C7.37957 17.8753 7.20471 17.8029 7.07579 17.674C6.94686 17.545 6.87443 17.3702 6.87443 17.1878V16.5003H6.18696C6.00463 16.5003 5.82977 16.4279 5.70085 16.299C5.57192 16.17 5.49949 15.9952 5.49949 15.8128V15.1254H4.81202C4.62969 15.1254 4.45483 15.0529 4.32591 14.924C4.19698 14.7951 4.12455 14.6202 4.12455 14.4379V13.7504H3.43708C3.35489 13.7502 3.2734 13.7353 3.19647 13.7064L2.95035 13.9511C2.88484 14.0171 2.83339 14.0957 2.79911 14.1821L0.0492312 21.057C-0.000776283 21.182 -0.0130181 21.3188 0.0140235 21.4507C0.0410651 21.5825 0.106201 21.7035 0.201356 21.7986C0.29651 21.8938 0.417499 21.9589 0.549324 21.986C0.681148 22.013 0.81801 22.0008 0.942942 21.9508L7.81764 19.2008C7.90407 19.1665 7.98265 19.1151 8.04863 19.0496L8.29337 18.8034Z" fill="white"/>
</svg>
