<svg width="439" height="356" viewBox="0 0 439 356" fill="none" xmlns="http://www.w3.org/2000/svg">
<path d="M219.5 355.976C340.726 355.976 439 303.476 439 238.714C439 173.951 340.726 121.451 219.5 121.451C98.2734 121.451 0 173.951 0 238.714C0 303.476 98.2734 355.976 219.5 355.976Z" fill="#F5F5F5"/>
<path d="M131.167 303.988L61.1831 263.297L179.557 194.887L131.167 303.988Z" fill="#E0E0E0"/>
<path d="M30.1452 260.8L58.6619 277.241C59.2546 277.541 59.9098 277.698 60.5744 277.698C61.239 277.698 61.8943 277.541 62.487 277.241L101.82 254.29C102.052 254.213 102.253 254.065 102.396 253.868C102.539 253.67 102.615 253.432 102.615 253.189C102.615 252.945 102.539 252.707 102.396 252.509C102.253 252.312 102.052 252.164 101.82 252.087L73.3037 235.636C72.711 235.335 72.0557 235.179 71.3911 235.179C70.7265 235.179 70.0713 235.335 69.4785 235.636L30.1452 258.587C29.9149 258.666 29.7152 258.816 29.5738 259.014C29.4324 259.212 29.3564 259.45 29.3564 259.693C29.3564 259.937 29.4324 260.174 29.5738 260.373C29.7152 260.571 29.9149 260.72 30.1452 260.8Z" fill="#E0E0E0"/>
<path d="M33.2383 258.242C31.2717 255.076 25.2045 251.595 17.2395 249.874C9.27449 248.153 1.27015 246.049 3.09915 241.398C5.06582 236.412 12.4802 236.167 19.7273 239.136C27.6432 242.381 33.494 250.405 33.6022 255.46L33.2383 258.242Z" fill="#003366"/>
<g opacity="0.1">
<path d="M33.2388 258.242C31.2722 255.076 25.205 251.595 17.24 249.874C9.27498 248.153 1.27064 246.049 3.09964 241.398C5.06631 236.412 12.4806 236.167 19.7278 239.136C27.6437 242.381 33.4945 250.405 33.6027 255.46L33.2388 258.242Z" fill="black"/>
</g>
<path d="M33.8572 256.807C33.7451 256.806 33.6357 256.773 33.5417 256.712C33.4476 256.651 33.3729 256.565 33.3262 256.463C27.0034 243.385 12.3419 241.27 7.75952 241.988C7.60318 242.011 7.44423 241.971 7.3172 241.877C7.19016 241.783 7.10529 241.643 7.08102 241.487C7.06841 241.41 7.07115 241.331 7.08908 241.255C7.10701 241.18 7.13978 241.108 7.18549 241.045C7.2312 240.982 7.28895 240.929 7.3554 240.888C7.42186 240.847 7.49571 240.82 7.57269 240.808C12.4304 240.061 27.8195 242.254 34.4374 255.952C34.5054 256.094 34.5147 256.257 34.4632 256.406C34.4116 256.555 34.3034 256.678 34.162 256.748C34.0667 256.792 33.9621 256.812 33.8572 256.807Z" fill="white"/>
<path d="M33.2355 258.243C33.2355 258.243 29.43 243.169 19.7834 235.066C16.9219 232.657 13.8834 229.638 11.7299 227.563C7.14761 223.099 9.06511 218.231 15.4076 218.33C24.8476 218.457 31.7506 226.403 34.74 236.797C37.7293 247.19 33.2355 258.243 33.2355 258.243Z" fill="#003366"/>
<path d="M34.7476 252.392C34.5982 252.393 34.454 252.338 34.343 252.238C34.2321 252.138 34.1625 252 34.1478 251.851C32.3778 232.676 17.7458 223.039 13.7633 222.017C13.6107 221.978 13.4799 221.88 13.3997 221.744C13.3195 221.608 13.2964 221.447 13.3355 221.294C13.3746 221.141 13.4727 221.011 13.6083 220.93C13.7438 220.85 13.9057 220.827 14.0583 220.866C18.8963 222.105 33.5184 232.106 35.3376 251.743C35.3513 251.901 35.3021 252.057 35.2008 252.179C35.0995 252.3 34.9543 252.377 34.7968 252.392H34.7476Z" fill="white"/>
<path d="M59.6397 274.821L32.775 259.304L32.7651 201.681L59.6397 217.198V274.821Z" fill="#263238"/>
<path d="M59.6367 217.198L98.0261 195.033V252.657L59.6367 274.821V217.198Z" fill="#37474F"/>
<path d="M98.029 195.034L59.6397 217.198L32.7651 201.681L71.1643 179.517L98.029 195.034Z" fill="#455A64"/>
<path d="M76.2223 216.491L81.4438 213.472C82.1223 213.078 82.673 213.255 82.673 213.875C82.6231 214.251 82.4861 214.611 82.2727 214.925C82.0593 215.239 81.7754 215.499 81.4438 215.684L76.2223 218.703C75.5438 219.096 74.9932 218.919 74.9932 218.3C75.043 217.923 75.1801 217.564 75.3935 217.25C75.6069 216.936 75.8907 216.676 76.2223 216.491Z" fill="#263238"/>
<path d="M62.7764 246.423L93.4859 228.693L94.1939 229.097L93.4859 250.032L94.1939 250.445L63.4844 268.174L62.7764 267.761V246.423Z" fill="#263238"/>
<path d="M63.4771 246.826L94.1866 229.097V250.445L63.4771 268.174V246.826Z" fill="#455A64"/>
<path d="M75.5055 243.493L80.727 240.484C81.4055 240.091 81.9562 240.268 81.9562 240.877C81.9071 241.255 81.7703 241.616 81.5569 241.932C81.3436 242.248 81.0594 242.51 80.727 242.696L75.5055 245.715C74.827 246.109 74.2764 245.922 74.2764 245.312C74.327 244.935 74.4643 244.574 74.6775 244.258C74.8908 243.943 75.1742 243.681 75.5055 243.493Z" fill="#263238"/>
<path d="M62.7764 219.873L93.4859 202.144L94.1939 202.547L93.4859 223.482L94.1939 223.895L63.4844 241.624L62.7764 241.211V219.873Z" fill="#263238"/>
<path d="M63.4771 220.276L94.1866 202.547V223.895L63.4771 241.625V220.276Z" fill="#455A64"/>
<path d="M75.5055 216.942L80.727 213.933C81.4055 213.54 81.9562 213.717 81.9562 214.326C81.9071 214.704 81.7703 215.066 81.5569 215.382C81.3436 215.697 81.0594 215.959 80.727 216.146L75.5055 219.164C74.827 219.558 74.2764 219.371 74.2764 218.761C74.327 218.384 74.4643 218.023 74.6775 217.708C74.8908 217.392 75.1742 217.13 75.5055 216.942Z" fill="#263238"/>
<path d="M59.6397 214.749L32.775 199.232L32.7651 141.599L59.6397 157.116V214.749Z" fill="#263238"/>
<path d="M59.6367 157.116L98.0261 134.951V192.584L59.6367 214.749V157.116Z" fill="#37474F"/>
<path d="M98.029 134.952L59.6397 157.116L32.7651 141.599L71.1643 119.435L98.029 134.952Z" fill="#455A64"/>
<path d="M63.4771 159.328L94.1866 141.599L94.8946 142.012V163.35L64.1851 181.089L63.4771 180.676V159.328Z" fill="#263238"/>
<path d="M76.2223 156.408L81.4438 153.389C82.1223 152.996 82.673 153.183 82.673 153.792C82.6224 154.17 82.4851 154.531 82.2718 154.846C82.0586 155.162 81.7752 155.424 81.4438 155.612L76.2223 158.621C75.5438 159.014 74.9932 158.837 74.9932 158.227C75.0423 157.849 75.179 157.488 75.3924 157.172C75.6058 156.856 75.89 156.595 76.2223 156.408Z" fill="#263238"/>
<path d="M62.7764 186.341L93.4859 168.611V189.96L94.1939 190.363L63.4844 208.092L62.7764 207.689V186.341Z" fill="#263238"/>
<path d="M63.4771 186.753L94.1866 169.014V190.362L63.4771 208.091V186.753Z" fill="#455A64"/>
<path d="M75.5055 183.42L80.727 180.401C81.4055 180.008 81.9562 180.185 81.9562 180.805C81.9064 181.181 81.7693 181.541 81.5559 181.855C81.3425 182.169 81.0587 182.429 80.727 182.614L75.5055 185.633C74.827 186.026 74.2764 185.849 74.2764 185.23C74.3262 184.853 74.4633 184.493 74.6767 184.179C74.8901 183.865 75.1739 183.605 75.5055 183.42Z" fill="#263238"/>
<path d="M63.4771 159.328L94.1866 141.599V162.947L63.4771 180.676V159.328Z" fill="#263238"/>
<path d="M109.554 152.14L92.7388 142.444V161.246L109.554 170.951V152.14Z" fill="#263238"/>
<path d="M74.9932 183.715V157.116L81.5815 153.301L82.673 154.904L101.868 143.812V168.198L74.9932 183.715Z" fill="#003366"/>
<g opacity="0.2">
<path d="M74.9932 183.715V157.116L81.5815 153.301L82.673 154.904L101.868 143.812V168.198L74.9932 183.715Z" fill="black"/>
</g>
<path d="M74.9932 183.714L76.9107 160.439L103.785 144.922L101.868 168.197L74.9932 183.714Z" fill="#003366"/>
<path d="M78.8294 169.88L64.1777 161.423V180.224L78.8294 188.681V169.88Z" fill="#37474F"/>
<path d="M78.8325 168.198L109.552 150.469V171.807L78.8325 189.546V168.198Z" fill="#455A64"/>
<path d="M90.8771 164.864L96.0986 161.845C96.7771 161.452 97.3278 161.639 97.3278 162.248C97.2772 162.626 97.1399 162.987 96.9266 163.302C96.7134 163.618 96.43 163.88 96.0986 164.068L90.8771 167.077C90.1986 167.47 89.6479 167.293 89.6479 166.683C89.6986 166.306 89.8359 165.945 90.0491 165.629C90.2624 165.314 90.5458 165.052 90.8771 164.864Z" fill="#263238"/>
<path d="M78.8186 168.198L77.7959 167.608V188.957L78.8186 189.547V168.198Z" fill="#263238"/>
<path d="M77.7959 167.607L108.515 149.878L109.538 150.468L78.8186 168.197L77.7959 167.607Z" fill="#37474F"/>
<path d="M335.368 14.2777L331.376 11.957L127.639 129.564V299.907C127.585 300.434 127.67 300.967 127.888 301.45C128.106 301.934 128.447 302.351 128.878 302.66L132.87 304.981C133.354 305.203 133.889 305.293 134.42 305.241C134.95 305.19 135.457 304.998 135.889 304.686L331.081 191.966C332.32 191.158 333.351 190.069 334.091 188.787C334.83 187.506 335.258 186.068 335.339 184.591L335.368 14.2777Z" fill="#E6E6E6"/>
<path d="M131.639 302.227C131.639 304.941 133.537 306.042 135.897 304.685L331.088 191.966C332.327 191.157 333.358 190.068 334.098 188.787C334.838 187.506 335.265 186.068 335.346 184.591V14.2773L131.639 131.894V302.227Z" fill="#FAFAFA"/>
<path d="M334.392 15.9482V184.61C334.311 185.915 333.929 187.184 333.276 188.317C332.623 189.449 331.716 190.416 330.626 191.139L135.434 303.829C135.009 304.098 134.521 304.254 134.018 304.281C132.779 304.281 132.652 302.846 132.652 302.226V132.454L334.392 15.9482ZM335.376 14.2471L131.639 131.893V302.226C131.639 304.193 132.622 305.265 133.989 305.265C134.664 305.238 135.321 305.039 135.897 304.685L331.088 191.965C332.327 191.156 333.358 190.067 334.098 188.786C334.838 187.505 335.265 186.067 335.346 184.59V14.2766L335.376 14.2471Z" fill="#E0E0E0"/>
<path d="M131.639 131.894V150.331L335.346 32.7149V14.2773L131.639 131.894Z" fill="#003366"/>
<path d="M259.454 65.3219V69.2553C259.454 70.0616 260.034 70.3959 260.732 69.9928L323.361 33.8257V26.9424L260.732 63.1487C260.367 63.3888 260.062 63.7096 259.84 64.0864C259.618 64.4632 259.486 64.8859 259.454 65.3219Z" fill="#FAFAFA"/>
<path d="M330.063 23.0786C330.771 22.6656 331.342 22.9999 331.342 23.8161V27.7494C331.318 28.193 331.19 28.6247 330.968 29.0093C330.746 29.3938 330.436 29.7203 330.063 29.9619L323.347 33.8363V26.9529L330.063 23.0786Z" fill="#455A64"/>
<path d="M329.571 28.5164L328.814 28.2804C328.898 27.9592 328.941 27.6289 328.942 27.297C328.976 26.9946 328.93 26.6886 328.809 26.4092C328.689 26.1299 328.497 25.8868 328.254 25.704C328.089 25.6063 327.9 25.5547 327.708 25.5547C327.516 25.5547 327.328 25.6063 327.162 25.704C326.686 26.0698 326.302 26.5426 326.043 27.0841C325.783 27.6257 325.655 28.2208 325.668 28.8212C325.632 29.1238 325.677 29.4305 325.798 29.7102C325.919 29.9899 326.111 30.2328 326.356 30.4142C326.498 30.5008 326.662 30.5451 326.828 30.542C327.043 30.5374 327.253 30.4764 327.438 30.365C328.011 29.9743 328.436 29.4032 328.647 28.7425L329.404 28.9785H329.463C329.522 28.9795 329.579 28.962 329.627 28.9284C329.674 28.8948 329.71 28.847 329.729 28.7917C329.733 28.7354 329.72 28.6792 329.692 28.6301C329.664 28.5811 329.622 28.5415 329.571 28.5164ZM327.162 29.952C327.087 30.0093 326.998 30.0444 326.904 30.0531C326.81 30.0618 326.715 30.0438 326.631 30.0012C326.479 29.8626 326.363 29.689 326.292 29.4955C326.222 29.3019 326.2 29.0941 326.228 28.89C326.218 28.388 326.322 27.8903 326.531 27.434C326.741 26.9776 327.051 26.5745 327.438 26.2547C327.541 26.1903 327.66 26.1531 327.782 26.1465C327.852 26.1463 327.92 26.1669 327.978 26.2055C328.129 26.3456 328.244 26.5194 328.314 26.7126C328.384 26.9057 328.407 27.1128 328.382 27.3167C328.39 27.8194 328.284 28.3174 328.073 28.7737C327.862 29.2299 327.551 29.6327 327.162 29.952Z" fill="#FAFAFA"/>
<path d="M330.137 0.304464C329.652 0.0671381 329.112 -0.0326786 328.574 0.0158682C328.037 0.0644149 327.523 0.259471 327.089 0.579804L131.897 113.299C130.656 114.106 129.624 115.195 128.884 116.477C128.144 117.758 127.718 119.197 127.639 120.674V129.593L131.631 131.924L335.368 14.2776V5.35881C335.428 4.83332 335.346 4.30139 335.13 3.81873C334.913 3.33607 334.571 2.92043 334.139 2.61531C333.402 2.18264 330.835 0.727298 330.137 0.304464Z" fill="#263238"/>
<path d="M131.639 122.975C131.715 121.497 132.141 120.058 132.881 118.776C133.622 117.494 134.655 116.406 135.897 115.6L331.088 2.90032C333.438 1.54331 335.346 2.64465 335.346 5.35865V14.2775L131.639 131.894V122.975Z" fill="#37474F"/>
<path d="M334.148 2.63501C333.661 2.3924 333.118 2.28882 332.576 2.33567C332.035 2.38252 331.517 2.57798 331.08 2.90051L135.888 115.591C134.63 116.375 133.594 117.469 132.879 118.767L128.867 116.456C129.586 115.154 130.625 114.058 131.886 113.27L327.087 0.570007C327.522 0.251243 328.037 0.0579386 328.574 0.0111273C329.112 -0.035684 329.652 0.0657858 330.136 0.304503C330.834 0.727336 333.39 2.19251 334.069 2.60551L334.148 2.63501Z" fill="#455A64"/>
<path d="M311.376 18.8989C310.8 19.2815 310.322 19.7941 309.98 20.3953C309.639 20.9965 309.443 21.6696 309.409 22.3602C309.409 23.6287 310.304 24.1499 311.376 23.5107C311.952 23.1281 312.43 22.6155 312.771 22.0143C313.113 21.4131 313.309 20.74 313.343 20.0494C313.372 18.7612 312.477 18.2401 311.376 18.8989Z" fill="#003366"/>
<path d="M318.368 14.8582C317.792 15.2387 317.314 15.7495 316.973 16.3491C316.631 16.9487 316.435 17.6204 316.401 18.3097C316.401 19.588 317.296 20.0994 318.368 19.47C318.943 19.0862 319.42 18.5734 319.762 17.9724C320.103 17.3715 320.299 16.699 320.335 16.0087C320.364 14.7303 319.469 14.219 318.368 14.8582Z" fill="#003366"/>
<path d="M325.345 10.8252C324.769 11.2078 324.291 11.7204 323.949 12.3216C323.608 12.9228 323.412 13.5958 323.378 14.2865C323.378 15.5648 324.273 16.0762 325.345 15.437C325.923 15.0561 326.402 14.5439 326.744 13.9423C327.086 13.3408 327.28 12.6668 327.312 11.9757C327.351 10.7072 326.456 10.186 325.345 10.8252Z" fill="#003366"/>
<path d="M135.897 304.686L171.582 284.085V127.263L131.639 150.332V302.227C131.639 304.941 133.537 306.033 135.897 304.686Z" fill="#F5F5F5"/>
<path d="M170.598 128.964V283.514L135.405 303.83C134.979 304.099 134.492 304.255 133.989 304.283C132.75 304.283 132.622 302.847 132.622 302.227V150.892L170.598 128.964ZM171.582 127.263L131.639 150.332V302.227C131.639 304.194 132.622 305.266 133.989 305.266C134.664 305.24 135.321 305.04 135.897 304.686L171.582 284.085V127.263Z" fill="#E0E0E0"/>
<path d="M144.896 151.895L164.013 140.833C164.711 140.42 165.281 140.754 165.281 141.57V143.232C165.257 143.674 165.129 144.104 164.909 144.488C164.689 144.873 164.382 145.2 164.013 145.444L144.896 156.487C144.188 156.9 143.618 156.566 143.618 155.75V154.108C143.644 153.665 143.774 153.234 143.996 152.85C144.218 152.466 144.526 152.139 144.896 151.895Z" fill="#E0E0E0"/>
<path d="M139.613 156.418V158.08C139.589 158.524 139.461 158.955 139.239 159.339C139.017 159.724 138.707 160.05 138.335 160.293L136.899 161.119C136.191 161.532 135.621 161.197 135.621 160.381V158.719C135.645 158.276 135.773 157.845 135.996 157.46C136.218 157.076 136.527 156.749 136.899 156.507L138.335 155.681C139.043 155.268 139.613 155.583 139.613 156.418Z" fill="#003366"/>
<path d="M144.896 161.089L164.013 150.047C164.711 149.634 165.281 149.968 165.281 150.774V152.436C165.257 152.88 165.129 153.311 164.909 153.697C164.689 154.083 164.382 154.412 164.013 154.658L144.896 165.701C144.188 166.104 143.618 165.78 143.618 164.964V163.302C143.643 162.859 143.772 162.428 143.994 162.043C144.216 161.659 144.525 161.332 144.896 161.089Z" fill="#E0E0E0"/>
<path d="M139.613 165.602V167.264C139.59 167.707 139.462 168.139 139.24 168.524C139.018 168.908 138.708 169.235 138.335 169.476L136.899 170.312C136.191 170.715 135.621 170.391 135.621 169.575V167.913C135.644 167.469 135.772 167.038 135.994 166.653C136.217 166.269 136.527 165.942 136.899 165.7L138.335 164.865C139.043 164.432 139.613 164.786 139.613 165.602Z" fill="#003366"/>
<path d="M144.896 170.274L164.013 159.232C164.711 158.828 165.281 159.153 165.281 159.969V161.631C165.258 162.073 165.131 162.504 164.911 162.889C164.691 163.273 164.383 163.6 164.013 163.843L144.896 174.886C144.188 175.299 143.618 174.965 143.618 174.159V172.487C143.645 172.044 143.775 171.614 143.997 171.23C144.219 170.846 144.527 170.519 144.896 170.274Z" fill="#E0E0E0"/>
<path d="M139.613 174.796V176.458C139.59 176.902 139.462 177.333 139.24 177.718C139.018 178.102 138.708 178.429 138.335 178.671L136.899 179.506C136.191 179.91 135.621 179.575 135.621 178.769V177.097C135.647 176.654 135.776 176.223 135.998 175.839C136.22 175.455 136.528 175.128 136.899 174.885L138.335 174.059C139.043 173.655 139.613 173.98 139.613 174.796Z" fill="#003366"/>
<path d="M144.896 200.757L164.013 189.704C164.711 189.301 165.281 189.626 165.281 190.442V192.104C165.258 192.546 165.131 192.977 164.911 193.361C164.691 193.746 164.383 194.073 164.013 194.316L144.896 205.369C144.188 205.772 143.618 205.447 143.618 204.631V202.969C143.643 202.526 143.772 202.095 143.994 201.711C144.216 201.326 144.525 201 144.896 200.757Z" fill="#E0E0E0"/>
<path d="M139.613 205.27V206.932C139.59 207.375 139.462 207.807 139.24 208.191C139.018 208.576 138.708 208.902 138.335 209.144L136.899 209.98C136.191 210.383 135.621 210.059 135.621 209.242V207.581C135.644 207.137 135.772 206.705 135.994 206.321C136.217 205.936 136.527 205.61 136.899 205.368L138.335 204.532C139.043 204.129 139.613 204.454 139.613 205.27Z" fill="#003366"/>
<path d="M144.896 208.889L164.013 197.866C164.711 197.463 165.281 197.788 165.281 198.604V200.266C165.258 200.708 165.131 201.139 164.911 201.523C164.691 201.908 164.383 202.235 164.013 202.478L144.896 213.501C144.188 213.914 143.618 213.58 143.618 212.764V211.102C143.645 210.659 143.775 210.229 143.997 209.845C144.219 209.461 144.527 209.134 144.896 208.889Z" fill="#E0E0E0"/>
<path d="M139.613 213.413V215.075C139.59 215.518 139.462 215.95 139.24 216.334C139.018 216.719 138.708 217.045 138.335 217.287L136.899 218.113C136.191 218.526 135.621 218.192 135.621 217.376V215.714C135.647 215.271 135.776 214.84 135.998 214.456C136.22 214.072 136.528 213.745 136.899 213.501L138.335 212.675C139.043 212.272 139.613 212.616 139.613 213.413Z" fill="#003366"/>
<path d="M144.896 217.031L164.013 205.988C164.711 205.575 165.281 205.909 165.281 206.725V208.387C165.257 208.829 165.129 209.26 164.909 209.644C164.689 210.028 164.382 210.355 164.013 210.6L144.896 221.642C144.188 222.055 143.618 221.721 143.618 220.905V219.243C143.644 218.8 143.774 218.37 143.996 217.986C144.218 217.602 144.526 217.275 144.896 217.031Z" fill="#E0E0E0"/>
<path d="M139.613 221.554V223.216C139.589 223.66 139.461 224.091 139.239 224.475C139.017 224.86 138.707 225.186 138.335 225.429L136.899 226.255C136.191 226.668 135.621 226.333 135.621 225.517V223.855C135.645 223.412 135.773 222.981 135.996 222.596C136.218 222.212 136.527 221.885 136.899 221.643L138.335 220.817C139.043 220.404 139.613 220.738 139.613 221.554Z" fill="#003366"/>
<path d="M143.618 180.313V183.175L146.106 180.313H143.618Z" fill="#003366"/>
<path d="M147.615 179.715C147.615 180.255 147.988 180.462 148.46 180.187L164.43 171.002C164.677 170.84 164.882 170.622 165.029 170.366C165.176 170.11 165.26 169.822 165.275 169.527C165.275 168.986 164.902 168.77 164.43 169.045L148.46 178.259C148.215 178.418 148.01 178.633 147.863 178.886C147.716 179.139 147.631 179.423 147.615 179.715Z" fill="#E0E0E0"/>
<path d="M143.618 184.915V187.786L146.106 184.915H143.618Z" fill="#003366"/>
<path d="M147.615 184.326C147.615 184.857 147.988 185.073 148.46 184.798L164.43 175.604C164.677 175.444 164.883 175.228 165.03 174.974C165.177 174.719 165.261 174.432 165.275 174.139C165.275 173.598 164.902 173.381 164.43 173.657L148.46 182.871C148.215 183.029 148.01 183.244 147.863 183.497C147.716 183.75 147.631 184.034 147.615 184.326Z" fill="#E0E0E0"/>
<path d="M143.618 189.527V192.399L146.106 189.527H143.618Z" fill="#003366"/>
<path d="M147.615 188.937C147.615 189.468 147.988 189.685 148.46 189.409L164.43 180.215C164.677 180.056 164.883 179.84 165.03 179.585C165.177 179.33 165.261 179.044 165.275 178.75C165.275 178.209 164.902 177.993 164.43 178.268L148.46 187.482C148.215 187.641 148.01 187.855 147.863 188.108C147.716 188.361 147.631 188.645 147.615 188.937Z" fill="#E0E0E0"/>
<path d="M143.618 194.139V197.01L146.106 194.139H143.618Z" fill="#003366"/>
<path d="M147.615 193.55C147.615 194.081 147.988 194.297 148.46 194.022L164.43 184.827C164.677 184.668 164.883 184.452 165.03 184.197C165.177 183.942 165.261 183.656 165.275 183.362C165.275 182.821 164.902 182.605 164.43 182.88L148.46 192.094C148.215 192.253 148.01 192.468 147.863 192.721C147.716 192.974 147.631 193.257 147.615 193.55Z" fill="#E0E0E0"/>
<path d="M183.552 132.76V156.792C183.552 157.776 184.26 158.208 185.135 157.707L211.557 142.445C212.018 142.147 212.402 141.744 212.678 141.269C212.953 140.794 213.111 140.26 213.14 139.712V119.957C213.14 118.973 212.432 118.541 211.557 119.042L196.227 127.892C195.352 128.394 194.644 127.99 194.644 126.987V126.358C194.644 125.375 193.946 124.942 193.07 125.444L185.135 130.016C184.674 130.317 184.29 130.722 184.015 131.199C183.74 131.675 183.581 132.21 183.552 132.76Z" fill="#003366"/>
<path d="M188.761 161.325V162.869C188.761 163.616 189.292 163.921 189.941 163.547L209.765 152.101C210.109 151.877 210.395 151.575 210.6 151.22C210.805 150.864 210.923 150.466 210.945 150.056V148.512C210.945 147.765 210.414 147.46 209.765 147.833L189.941 159.279C189.597 159.503 189.311 159.805 189.106 160.161C188.901 160.516 188.783 160.915 188.761 161.325Z" fill="#E0E0E0"/>
<path d="M220.317 111.667V135.7C220.317 136.683 221.025 137.106 221.89 136.604L248.312 121.353C248.772 121.053 249.155 120.649 249.43 120.175C249.705 119.7 249.864 119.167 249.896 118.619V98.854C249.896 97.8707 249.188 97.438 248.312 97.9395L232.982 106.79C232.107 107.291 231.409 106.878 231.409 105.875V105.246C231.409 104.262 230.701 103.84 229.826 104.341L221.89 108.923C221.431 109.225 221.048 109.63 220.775 110.107C220.502 110.583 220.345 111.118 220.317 111.667Z" fill="#003366"/>
<path d="M225.492 140.232V141.816C225.492 142.573 226.023 142.878 226.672 142.504L246.496 130.999C246.84 130.772 247.125 130.468 247.33 130.111C247.535 129.755 247.654 129.355 247.676 128.944V127.41C247.676 126.653 247.145 126.348 246.496 126.731L226.672 138.177C226.329 138.404 226.043 138.708 225.838 139.065C225.633 139.422 225.515 139.821 225.492 140.232Z" fill="#E0E0E0"/>
<path d="M183.552 181.041V205.073C183.552 206.057 184.26 206.489 185.135 205.988L211.557 190.726C212.012 190.431 212.392 190.034 212.667 189.566C212.942 189.099 213.104 188.573 213.14 188.032V168.267C213.14 167.284 212.432 166.861 211.557 167.362L196.227 176.212C195.352 176.714 194.644 176.311 194.644 175.308V174.678C194.644 173.695 193.946 173.262 193.07 173.764L185.135 178.346C184.68 178.641 184.3 179.039 184.025 179.506C183.75 179.974 183.588 180.499 183.552 181.041Z" fill="#003366"/>
<path d="M188.761 209.607V211.151C188.761 211.898 189.292 212.203 189.941 211.829L209.765 200.383C210.108 200.158 210.393 199.856 210.598 199.501C210.803 199.146 210.921 198.747 210.945 198.338V196.794C210.945 196.047 210.414 195.742 209.765 196.116L189.941 207.562C189.597 207.786 189.311 208.088 189.106 208.443C188.901 208.798 188.783 209.197 188.761 209.607Z" fill="#E0E0E0"/>
<path d="M220.317 159.939V183.972C220.317 184.955 221.025 185.388 221.89 184.886L248.312 169.625C248.772 169.328 249.156 168.927 249.431 168.453C249.706 167.98 249.865 167.448 249.896 166.901V147.136C249.896 146.153 249.188 145.72 248.312 146.222L232.982 155.072C232.107 155.573 231.409 155.16 231.409 154.157V153.528C231.409 152.545 230.701 152.112 229.826 152.623L221.89 157.206C221.431 157.505 221.05 157.909 220.776 158.384C220.503 158.859 220.345 159.392 220.317 159.939Z" fill="#003366"/>
<path d="M225.492 188.515V190.049C225.492 190.806 226.023 191.111 226.672 190.728L246.496 179.291C246.84 179.065 247.125 178.761 247.33 178.404C247.535 178.047 247.654 177.647 247.676 177.236V175.702C247.676 174.945 247.145 174.64 246.496 175.014L226.672 186.46C226.329 186.687 226.043 186.99 225.838 187.347C225.633 187.704 225.515 188.104 225.492 188.515Z" fill="#E0E0E0"/>
<path d="M257.463 89.4041V113.437C257.463 114.42 258.171 114.853 259.036 114.351L285.468 99.0899C285.927 98.7897 286.308 98.3858 286.581 97.9109C286.855 97.436 287.012 96.9034 287.042 96.3563V76.6011C287.042 75.6178 286.334 75.1851 285.468 75.6866L270.128 84.5366C269.263 85.0479 268.555 84.6349 268.555 83.6319V83.0026C268.555 82.0193 267.847 81.5866 266.972 82.0881L259.036 86.6803C258.579 86.9789 258.198 87.3811 257.924 87.8543C257.651 88.3275 257.493 88.8584 257.463 89.4041Z" fill="#003366"/>
<path d="M262.226 119.13V120.674C262.226 121.421 262.757 121.726 263.415 121.353L283.249 109.907C283.595 109.684 283.884 109.383 284.091 109.027C284.298 108.672 284.417 108.272 284.439 107.861V106.327C284.439 105.57 283.908 105.265 283.249 105.639L263.435 117.085C263.085 117.305 262.793 117.605 262.583 117.961C262.372 118.317 262.25 118.718 262.226 119.13Z" fill="#E0E0E0"/>
<path d="M293.782 69.4715V93.5042C293.782 94.4876 294.49 94.9104 295.365 94.4089L321.788 79.1574C322.246 78.8572 322.627 78.4533 322.901 77.9784C323.174 77.5035 323.332 76.9709 323.361 76.4237V56.6587C323.361 55.6754 322.663 55.2427 321.788 55.7442L306.457 64.5942C305.582 65.0957 304.874 64.6827 304.874 63.6797V63.0504C304.874 62.067 304.176 61.6442 303.301 62.1457L295.365 66.728C294.903 67.0269 294.518 67.4316 294.243 67.9087C293.967 68.3857 293.81 68.9214 293.782 69.4715Z" fill="#003366"/>
<path d="M298.99 98.0382V99.5329C298.99 100.29 299.511 100.595 300.17 100.221L319.994 88.7752C320.336 88.5496 320.621 88.2472 320.826 87.8921C321.031 87.5371 321.15 87.1391 321.174 86.7299V85.1861C321.174 84.4289 320.643 84.1241 319.994 84.5076L300.17 95.9437C299.82 96.1731 299.531 96.4829 299.325 96.8474C299.12 97.2118 299.005 97.6202 298.99 98.0382Z" fill="#E0E0E0"/>
<path d="M262.226 167.382V168.926C262.226 169.673 262.757 169.978 263.415 169.605L283.249 158.168C283.595 157.946 283.884 157.645 284.091 157.289C284.298 156.934 284.417 156.534 284.439 156.123V154.599C284.439 153.852 283.908 153.547 283.249 153.92L263.435 165.366C263.089 165.584 262.799 165.879 262.589 166.23C262.379 166.58 262.254 166.975 262.226 167.382Z" fill="#E0E0E0"/>
<path d="M262.734 133.614L283.256 121.745C284.19 121.205 284.957 121.647 284.957 122.729V146.466C284.925 147.057 284.755 147.632 284.459 148.145C284.164 148.657 283.751 149.093 283.256 149.416L262.734 161.285C261.751 161.826 261.033 161.394 261.033 160.302V136.564C261.065 135.974 261.236 135.399 261.532 134.887C261.827 134.374 262.239 133.938 262.734 133.614Z" fill="#FAFAFA"/>
<path d="M261.97 162.014C261.729 162.016 261.492 161.955 261.282 161.837C261.033 161.671 260.833 161.441 260.703 161.171C260.573 160.901 260.519 160.602 260.544 160.303V136.566C260.578 135.887 260.775 135.227 261.117 134.64C261.459 134.053 261.937 133.557 262.511 133.193L283.072 121.324C283.317 121.153 283.604 121.052 283.902 121.031C284.2 121.011 284.498 121.071 284.764 121.206C285.012 121.371 285.213 121.599 285.344 121.867C285.475 122.135 285.533 122.433 285.511 122.73V146.468C285.477 147.146 285.28 147.807 284.938 148.393C284.596 148.98 284.118 149.477 283.544 149.841L262.983 161.719C262.677 161.904 262.328 162.006 261.97 162.014ZM284.056 122.012C283.873 122.019 283.696 122.077 283.544 122.179L262.983 134.048C262.561 134.326 262.21 134.698 261.958 135.135C261.705 135.572 261.558 136.062 261.528 136.566V160.303C261.528 160.647 261.616 160.893 261.773 160.982C261.894 161.021 262.022 161.031 262.147 161.011C262.272 160.99 262.39 160.94 262.491 160.864L283.053 148.995C283.473 148.714 283.823 148.339 284.075 147.901C284.328 147.463 284.476 146.972 284.508 146.468V122.73C284.523 122.605 284.508 122.478 284.463 122.36C284.419 122.241 284.346 122.136 284.252 122.052C284.191 122.022 284.124 122.009 284.056 122.012Z" fill="#EBEBEB"/>
<path d="M285.707 124.952L281.125 127.597C280.628 127.919 280.214 128.354 279.917 128.867C279.619 129.38 279.447 129.955 279.414 130.547V135.837C279.414 136.929 280.181 137.371 281.125 136.82L285.707 134.175C286.203 133.852 286.615 133.416 286.91 132.903C287.206 132.391 287.377 131.816 287.409 131.225V125.935C287.409 124.853 286.642 124.411 285.707 124.952Z" fill="#003366"/>
<path d="M264.298 136.182L274.603 130.282C275.066 130.016 275.449 130.233 275.449 130.783V131.108C275.432 131.402 275.346 131.689 275.2 131.945C275.053 132.201 274.849 132.419 274.603 132.583L264.298 138.483C263.826 138.758 263.443 138.542 263.452 137.991V137.657C263.467 137.362 263.552 137.075 263.699 136.818C263.846 136.562 264.051 136.344 264.298 136.182Z" fill="#EBEBEB"/>
<path d="M264.298 140.832L274.603 134.932C275.066 134.657 275.449 134.883 275.449 135.424V135.748C275.434 136.043 275.35 136.331 275.203 136.587C275.056 136.843 274.85 137.061 274.603 137.223L264.298 143.123C263.826 143.399 263.443 143.123 263.452 142.632V142.287C263.47 141.996 263.556 141.712 263.703 141.46C263.85 141.207 264.054 140.992 264.298 140.832Z" fill="#EBEBEB"/>
<path d="M264.298 145.395L274.603 139.495C275.066 139.23 275.449 139.446 275.449 139.987V140.321C275.432 140.616 275.346 140.902 275.2 141.158C275.053 141.414 274.849 141.632 274.603 141.796L264.298 147.696C263.826 147.971 263.443 147.755 263.452 147.204V146.87C263.467 146.575 263.551 146.287 263.698 146.031C263.845 145.774 264.05 145.557 264.298 145.395Z" fill="#EBEBEB"/>
<path d="M264.298 149.997L281.408 140.164C281.88 139.898 282.264 140.164 282.264 140.655V140.99C282.247 141.285 282.16 141.573 282.012 141.829C281.863 142.085 281.656 142.303 281.408 142.465L264.298 152.298C263.826 152.563 263.443 152.347 263.452 151.806V151.462C263.469 151.169 263.554 150.883 263.701 150.629C263.848 150.374 264.052 150.158 264.298 149.997Z" fill="#EBEBEB"/>
<path d="M264.298 154.6L281.408 144.766C281.88 144.491 282.264 144.766 282.264 145.258V145.583C282.247 145.878 282.162 146.166 282.013 146.423C281.864 146.679 281.657 146.897 281.408 147.058L264.298 156.891C263.826 157.166 263.443 156.94 263.452 156.399V156.065C263.467 155.771 263.551 155.485 263.698 155.23C263.845 154.975 264.051 154.759 264.298 154.6Z" fill="#EBEBEB"/>
<path d="M298.178 146.644V148.178C298.178 148.935 298.709 149.24 299.358 148.866L319.182 137.42C319.526 137.195 319.813 136.891 320.018 136.534C320.223 136.177 320.341 135.776 320.362 135.365V133.831C320.362 133.074 319.841 132.769 319.182 133.143L299.358 144.589C299.014 144.815 298.729 145.119 298.524 145.476C298.319 145.833 298.2 146.233 298.178 146.644Z" fill="#E0E0E0"/>
<path d="M298.68 112.866L319.231 100.998C320.215 100.447 320.942 100.889 320.942 101.981V125.719C320.908 126.31 320.735 126.885 320.438 127.397C320.141 127.91 319.727 128.345 319.231 128.669L298.68 140.538C297.696 141.078 296.969 140.636 296.969 139.554V115.816C297.001 115.225 297.173 114.649 297.47 114.136C297.768 113.623 298.182 113.188 298.68 112.866Z" fill="#FAFAFA"/>
<path d="M297.914 141.255C297.673 141.257 297.436 141.196 297.226 141.078C296.977 140.913 296.777 140.685 296.646 140.417C296.515 140.149 296.457 139.851 296.479 139.554V115.816C296.511 115.136 296.707 114.473 297.049 113.885C297.392 113.296 297.87 112.798 298.445 112.433L318.997 100.564C319.236 100.377 319.527 100.265 319.83 100.244C320.133 100.223 320.436 100.293 320.7 100.445C320.963 100.597 321.175 100.825 321.308 101.098C321.441 101.372 321.489 101.679 321.445 101.98V125.718C321.412 126.397 321.216 127.057 320.874 127.644C320.531 128.231 320.053 128.728 319.479 129.091L298.927 140.96C298.621 141.145 298.272 141.246 297.914 141.255ZM298.898 113.289C298.474 113.567 298.121 113.941 297.867 114.379C297.612 114.818 297.464 115.31 297.432 115.816V139.554C297.418 139.679 297.433 139.806 297.477 139.924C297.522 140.042 297.594 140.148 297.688 140.232C297.809 140.272 297.938 140.281 298.063 140.259C298.189 140.237 298.306 140.183 298.406 140.104L318.958 128.235C319.381 127.958 319.733 127.587 319.988 127.15C320.242 126.713 320.391 126.223 320.423 125.718V101.98C320.476 101.852 320.481 101.709 320.436 101.577C320.391 101.446 320.299 101.335 320.179 101.266C320.058 101.197 319.916 101.175 319.78 101.203C319.644 101.232 319.523 101.309 319.439 101.42L298.898 113.289Z" fill="#EBEBEB"/>
<path d="M321.649 104.203L317.066 106.848C316.571 107.171 316.159 107.607 315.863 108.12C315.568 108.632 315.397 109.207 315.365 109.798V115.088C315.365 116.17 316.132 116.612 317.066 116.072L321.649 113.426C322.145 113.103 322.558 112.667 322.855 112.155C323.152 111.643 323.325 111.068 323.36 110.476V105.186C323.36 104.095 322.583 103.652 321.649 104.203Z" fill="#003366"/>
<path d="M300.244 115.422L310.54 109.522C311.012 109.247 311.395 109.522 311.395 110.014V110.348C311.381 110.645 311.295 110.933 311.147 111.19C310.998 111.446 310.79 111.664 310.54 111.823L300.244 117.723C299.772 117.999 299.389 117.772 299.389 117.232V116.887C299.407 116.593 299.494 116.308 299.643 116.053C299.791 115.799 299.997 115.583 300.244 115.422Z" fill="#EBEBEB"/>
<path d="M300.244 120.035L310.54 114.135C311.012 113.87 311.395 114.135 311.395 114.627V114.961C311.378 115.257 311.292 115.545 311.143 115.801C310.995 116.057 310.788 116.275 310.54 116.436L300.244 122.336C299.772 122.612 299.389 122.395 299.389 121.845V121.51C299.405 121.214 299.491 120.926 299.639 120.67C299.788 120.414 299.995 120.196 300.244 120.035Z" fill="#EBEBEB"/>
<path d="M300.244 124.637L310.54 118.737C311.012 118.462 311.395 118.737 311.395 119.229V119.553C311.379 119.849 311.293 120.137 311.144 120.393C310.996 120.65 310.789 120.867 310.54 121.028L300.244 126.928C299.772 127.194 299.389 126.977 299.389 126.437V126.083C299.41 125.792 299.498 125.51 299.647 125.259C299.795 125.009 300 124.796 300.244 124.637Z" fill="#EBEBEB"/>
<path d="M300.244 129.249L317.354 119.415C317.826 119.14 318.21 119.366 318.21 119.907V120.182C318.193 120.478 318.107 120.766 317.958 121.022C317.809 121.278 317.602 121.496 317.354 121.657L300.244 131.491C299.772 131.766 299.389 131.54 299.389 130.999V130.665C299.412 130.379 299.502 130.102 299.65 129.856C299.799 129.611 300.002 129.403 300.244 129.249Z" fill="#EBEBEB"/>
<path d="M300.244 133.851L317.354 124.018C317.826 123.752 318.21 123.968 318.21 124.509V124.844C318.193 125.139 318.107 125.427 317.958 125.683C317.809 125.939 317.602 126.157 317.354 126.319L300.244 136.152C299.772 136.417 299.389 136.201 299.389 135.66V135.316C299.407 135.022 299.494 134.736 299.643 134.482C299.791 134.228 299.997 134.011 300.244 133.851Z" fill="#EBEBEB"/>
<path d="M262.226 216.381V217.925C262.226 218.673 262.757 218.977 263.415 218.604L283.249 207.158C283.595 206.936 283.884 206.634 284.091 206.279C284.298 205.923 284.417 205.523 284.439 205.112V203.569C284.439 202.821 283.908 202.516 283.249 202.89L263.435 214.336C263.085 214.556 262.793 214.857 262.583 215.212C262.372 215.568 262.25 215.969 262.226 216.381Z" fill="#E0E0E0"/>
<path d="M262.723 182.606L283.245 170.737C284.179 170.196 284.946 170.638 284.946 171.72V195.458C284.913 196.048 284.742 196.622 284.446 197.135C284.151 197.647 283.739 198.083 283.245 198.408L262.684 210.277C261.7 210.817 260.982 210.385 260.982 209.293V185.556C261.018 184.961 261.194 184.384 261.497 183.871C261.799 183.358 262.22 182.924 262.723 182.606Z" fill="#FAFAFA"/>
<path d="M261.969 211.004C261.728 211.006 261.491 210.945 261.281 210.827C261.033 210.659 260.835 210.429 260.705 210.159C260.576 209.89 260.52 209.591 260.543 209.293V185.555C260.578 184.877 260.774 184.216 261.116 183.629C261.458 183.042 261.936 182.546 262.51 182.182L283.052 170.333C283.291 170.15 283.579 170.042 283.879 170.022C284.18 170.002 284.48 170.072 284.74 170.222C285.001 170.373 285.212 170.597 285.345 170.867C285.479 171.137 285.529 171.441 285.491 171.739V195.477C285.456 196.155 285.26 196.816 284.918 197.403C284.575 197.989 284.098 198.486 283.524 198.85L262.962 210.719C262.661 210.896 262.319 210.994 261.969 211.004ZM284.055 170.992C283.873 171.003 283.697 171.061 283.544 171.159L262.982 183.038C262.56 183.315 262.208 183.687 261.956 184.124C261.703 184.561 261.556 185.051 261.527 185.555V209.293C261.473 209.421 261.469 209.565 261.514 209.696C261.559 209.828 261.65 209.938 261.771 210.007C261.892 210.076 262.033 210.098 262.17 210.07C262.306 210.042 262.427 209.965 262.51 209.853L283.072 197.984C283.492 197.703 283.842 197.329 284.094 196.891C284.346 196.452 284.495 195.962 284.527 195.457V171.72C284.542 171.594 284.526 171.467 284.482 171.349C284.437 171.231 284.365 171.125 284.271 171.041C284.205 171.005 284.13 170.988 284.055 170.992Z" fill="#EBEBEB"/>
<path d="M285.707 173.942L281.125 176.587C280.628 176.909 280.214 177.345 279.917 177.857C279.619 178.37 279.447 178.945 279.414 179.537V184.827C279.414 185.919 280.181 186.351 281.125 185.811L285.707 183.165C286.203 182.842 286.615 182.406 286.91 181.894C287.206 181.381 287.377 180.806 287.409 180.215V174.925C287.409 173.843 286.642 173.401 285.707 173.942Z" fill="#003366"/>
<path d="M264.298 185.171L274.603 179.271C275.066 179.006 275.449 179.222 275.449 179.763V180.097C275.432 180.392 275.346 180.678 275.2 180.934C275.053 181.19 274.849 181.409 274.603 181.572L264.298 187.472C263.826 187.748 263.443 187.531 263.452 186.981V186.646C263.467 186.351 263.551 186.064 263.698 185.807C263.845 185.551 264.05 185.333 264.298 185.171Z" fill="#EBEBEB"/>
<path d="M264.298 189.772L274.603 183.872C275.066 183.597 275.449 183.823 275.449 184.364V184.689C275.433 184.983 275.348 185.271 275.202 185.527C275.055 185.783 274.85 186.001 274.603 186.164L264.298 192.064C263.826 192.329 263.443 192.113 263.452 191.572V191.228C263.47 190.936 263.556 190.653 263.703 190.4C263.85 190.147 264.054 189.933 264.298 189.772Z" fill="#EBEBEB"/>
<path d="M264.298 194.385L274.603 188.485C275.066 188.22 275.449 188.436 275.449 188.977V189.311C275.432 189.606 275.346 189.892 275.2 190.148C275.053 190.404 274.849 190.623 274.603 190.786L264.298 196.686C263.826 196.962 263.443 196.735 263.452 196.195V195.9C263.459 195.597 263.539 195.301 263.687 195.037C263.834 194.773 264.044 194.549 264.298 194.385Z" fill="#EBEBEB"/>
<path d="M264.298 198.987L281.408 189.153C281.88 188.888 282.264 189.104 282.264 189.645V189.999C282.247 190.295 282.16 190.582 282.012 190.839C281.863 191.095 281.656 191.312 281.408 191.474L264.298 201.307C263.826 201.573 263.443 201.356 263.452 200.816V200.471C263.466 200.175 263.55 199.885 263.697 199.627C263.844 199.369 264.05 199.15 264.298 198.987Z" fill="#EBEBEB"/>
<path d="M264.298 203.599L281.408 193.766C281.88 193.491 282.264 193.707 282.264 194.258V194.582C282.247 194.878 282.16 195.165 282.012 195.422C281.863 195.678 281.656 195.896 281.408 196.057L264.298 205.89C263.826 206.166 263.443 205.94 263.452 205.399V205.064C263.467 204.77 263.551 204.484 263.698 204.229C263.845 203.975 264.051 203.758 264.298 203.599Z" fill="#EBEBEB"/>
<path d="M298.178 195.623V197.167C298.178 197.924 298.709 198.229 299.358 197.846L319.182 186.41C319.526 186.184 319.813 185.88 320.018 185.523C320.223 185.166 320.341 184.766 320.362 184.354V182.82C320.362 182.063 319.841 181.758 319.182 182.132L299.358 193.578C299.016 193.804 298.731 194.106 298.526 194.461C298.321 194.816 298.202 195.214 298.178 195.623Z" fill="#E0E0E0"/>
<path d="M298.68 161.856L319.231 149.987C320.215 149.436 320.942 149.879 320.942 150.97V174.698C320.91 175.29 320.738 175.866 320.441 176.378C320.144 176.891 319.729 177.326 319.231 177.648L298.68 189.527C297.696 190.068 296.969 189.625 296.969 188.543V164.806C297.001 164.214 297.173 163.638 297.47 163.125C297.768 162.613 298.182 162.178 298.68 161.856Z" fill="#FAFAFA"/>
<path d="M297.914 190.246C297.673 190.248 297.436 190.187 297.226 190.069C296.977 189.904 296.777 189.676 296.646 189.408C296.515 189.14 296.457 188.842 296.479 188.545V164.807C296.511 164.127 296.706 163.464 297.048 162.875C297.391 162.286 297.87 161.789 298.445 161.424L318.997 149.556C319.236 149.368 319.527 149.256 319.83 149.235C320.133 149.214 320.436 149.284 320.7 149.436C320.963 149.588 321.175 149.816 321.308 150.09C321.441 150.363 321.489 150.67 321.445 150.972V174.699C321.414 175.38 321.218 176.042 320.876 176.631C320.534 177.22 320.054 177.718 319.479 178.082L298.927 190C298.616 190.168 298.267 190.252 297.914 190.246ZM298.898 162.28C298.474 162.558 298.121 162.932 297.867 163.371C297.612 163.809 297.464 164.301 297.432 164.807V188.545C297.416 188.669 297.43 188.795 297.475 188.912C297.52 189.029 297.593 189.132 297.688 189.213C297.808 189.256 297.937 189.267 298.062 189.246C298.188 189.226 298.306 189.174 298.406 189.095L318.987 177.217C319.411 176.938 319.764 176.565 320.018 176.126C320.272 175.688 320.421 175.196 320.452 174.69V150.972C320.506 150.843 320.51 150.7 320.465 150.568C320.42 150.437 320.329 150.326 320.208 150.257C320.087 150.188 319.945 150.166 319.809 150.194C319.673 150.223 319.552 150.3 319.469 150.411L298.898 162.28Z" fill="#EBEBEB"/>
<path d="M321.649 153.193L317.066 155.839C316.571 156.162 316.159 156.598 315.863 157.11C315.568 157.623 315.397 158.198 315.365 158.789V164.079C315.365 165.161 316.132 165.603 317.066 165.062L321.649 162.417C322.145 162.093 322.558 161.658 322.855 161.146C323.152 160.633 323.325 160.058 323.36 159.467V154.177C323.36 153.085 322.583 152.633 321.649 153.193Z" fill="#003366"/>
<path d="M300.244 164.433L310.54 158.533C311.012 158.257 311.395 158.483 311.395 159.024V159.349C311.379 159.645 311.293 159.933 311.144 160.189C310.996 160.445 310.789 160.663 310.54 160.824L300.244 166.724C299.772 166.989 299.389 166.724 299.389 166.232V165.888C299.409 165.596 299.496 165.312 299.645 165.059C299.793 164.807 299.998 164.592 300.244 164.433Z" fill="#EBEBEB"/>
<path d="M300.244 169.024L310.54 163.124C311.012 162.859 311.395 163.124 311.395 163.616V163.95C311.378 164.246 311.292 164.534 311.143 164.79C310.995 165.046 310.788 165.264 310.54 165.425L300.244 171.325C299.772 171.601 299.389 171.375 299.389 170.834V170.499C299.403 170.203 299.488 169.915 299.637 169.658C299.786 169.401 299.994 169.184 300.244 169.024Z" fill="#EBEBEB"/>
<path d="M300.244 173.626L310.54 167.726C311.012 167.45 311.395 167.667 311.395 168.217V168.542C311.378 168.838 311.292 169.125 311.143 169.382C310.995 169.638 310.788 169.855 310.54 170.017L300.244 175.917C299.772 176.182 299.389 175.966 299.389 175.425V175.081C299.409 174.789 299.496 174.505 299.645 174.253C299.793 174 299.998 173.785 300.244 173.626Z" fill="#EBEBEB"/>
<path d="M300.244 178.199L317.354 168.365C317.826 168.09 318.21 168.306 318.21 168.857V169.182C318.193 169.477 318.107 169.765 317.958 170.021C317.809 170.277 317.602 170.495 317.354 170.657L300.244 180.49C299.772 180.765 299.389 180.539 299.389 179.998V179.664C299.405 179.369 299.491 179.083 299.639 178.828C299.788 178.573 299.996 178.358 300.244 178.199Z" fill="#EBEBEB"/>
<path d="M300.244 182.841L317.354 173.007C317.826 172.732 318.21 172.958 318.21 173.499V173.823C318.195 174.12 318.11 174.408 317.961 174.665C317.812 174.921 317.604 175.139 317.354 175.298L300.244 185.132C299.772 185.397 299.389 185.181 299.389 184.64V184.296C299.409 184.004 299.496 183.72 299.645 183.467C299.793 183.215 299.998 183 300.244 182.841Z" fill="#EBEBEB"/>
<path d="M188.761 258.833V260.367C188.761 261.124 189.292 261.429 189.951 261.055L209.765 249.609C210.11 249.386 210.398 249.085 210.605 248.729C210.812 248.374 210.932 247.974 210.955 247.564V246.049C210.955 245.292 210.424 244.987 209.765 245.371L189.951 256.807C189.609 257.029 189.323 257.328 189.116 257.679C188.91 258.031 188.788 258.426 188.761 258.833Z" fill="#E0E0E0"/>
<path d="M189.25 225.056L209.812 213.187C210.795 212.646 211.513 213.079 211.513 214.17V237.908C211.479 238.498 211.307 239.072 211.012 239.584C210.717 240.096 210.306 240.532 209.812 240.858L189.25 252.727C188.267 253.267 187.549 252.825 187.549 251.743V228.006C187.58 227.414 187.75 226.839 188.045 226.326C188.341 225.813 188.754 225.378 189.25 225.056Z" fill="#FAFAFA"/>
<path d="M188.486 253.443C188.245 253.446 188.008 253.385 187.798 253.266C187.551 253.101 187.352 252.873 187.222 252.605C187.092 252.337 187.037 252.039 187.061 251.742V228.005C187.095 227.326 187.291 226.666 187.633 226.079C187.976 225.492 188.454 224.996 189.027 224.632L209.589 212.763C209.827 212.574 210.115 212.462 210.418 212.44C210.72 212.417 211.023 212.486 211.285 212.638C211.548 212.79 211.759 213.016 211.892 213.289C212.024 213.562 212.071 213.869 212.027 214.169V237.907C211.993 238.585 211.797 239.246 211.455 239.832C211.112 240.419 210.634 240.916 210.061 241.28L189.499 253.148C189.193 253.333 188.844 253.435 188.486 253.443ZM189.499 225.477C189.077 225.757 188.726 226.131 188.474 226.569C188.221 227.008 188.074 227.499 188.044 228.005V251.742C187.991 251.871 187.986 252.014 188.031 252.146C188.076 252.277 188.167 252.388 188.288 252.456C188.409 252.525 188.551 252.548 188.687 252.519C188.823 252.491 188.944 252.414 189.027 252.303L209.589 240.424C210.009 240.145 210.359 239.772 210.611 239.336C210.864 238.899 211.012 238.41 211.044 237.907V214.169C211.097 214.041 211.102 213.897 211.057 213.766C211.012 213.634 210.921 213.524 210.8 213.455C210.679 213.386 210.537 213.364 210.401 213.392C210.265 213.42 210.144 213.497 210.061 213.609L189.499 225.477Z" fill="#EBEBEB"/>
<path d="M212.242 216.392L207.66 219.037C207.162 219.359 206.748 219.794 206.45 220.307C206.153 220.819 205.981 221.395 205.949 221.987V227.277C205.949 228.359 206.716 228.801 207.66 228.261L212.242 225.615C212.736 225.291 213.148 224.855 213.443 224.343C213.738 223.83 213.91 223.256 213.943 222.665V217.375C213.943 216.284 213.176 215.851 212.242 216.392Z" fill="#003366"/>
<path d="M190.818 227.622L201.123 221.722C201.585 221.447 201.969 221.673 201.969 222.214V222.538C201.954 222.833 201.869 223.121 201.722 223.377C201.576 223.633 201.37 223.851 201.123 224.013L190.818 229.913C190.346 230.189 189.972 229.913 189.972 229.422V229.087C189.986 228.793 190.07 228.507 190.218 228.252C190.365 227.997 190.57 227.781 190.818 227.622Z" fill="#EBEBEB"/>
<path d="M190.818 232.224L201.123 226.324C201.585 226.058 201.969 226.275 201.969 226.825V227.15C201.952 227.444 201.866 227.731 201.719 227.987C201.573 228.243 201.369 228.461 201.123 228.625L190.818 234.525C190.346 234.79 189.972 234.525 189.972 234.033V233.689C189.989 233.396 190.074 233.11 190.221 232.856C190.368 232.601 190.572 232.385 190.818 232.224Z" fill="#EBEBEB"/>
<path d="M190.818 236.836L201.123 230.936C201.585 230.661 201.969 230.887 201.969 231.428V231.752C201.954 232.047 201.869 232.334 201.722 232.591C201.576 232.847 201.37 233.065 201.123 233.227L190.818 239.166C190.346 239.442 189.972 239.166 189.972 238.675V238.331C189.982 238.032 190.064 237.739 190.211 237.479C190.358 237.219 190.566 236.998 190.818 236.836Z" fill="#EBEBEB"/>
<path d="M190.818 241.438L207.928 231.604C208.4 231.329 208.783 231.604 208.783 232.096V232.42C208.769 232.717 208.684 233.005 208.535 233.262C208.386 233.518 208.178 233.736 207.928 233.895L190.818 243.729C190.346 244.004 189.972 243.788 189.972 243.237V242.903C189.989 242.609 190.074 242.324 190.221 242.07C190.368 241.815 190.572 241.599 190.818 241.438Z" fill="#EBEBEB"/>
<path d="M190.818 246.049L207.928 236.215C208.4 235.95 208.783 236.215 208.783 236.707V237.041C208.766 237.337 208.68 237.625 208.532 237.881C208.383 238.137 208.176 238.355 207.928 238.516L190.818 248.35C190.346 248.615 189.972 248.399 189.972 247.858V247.514C189.989 247.22 190.074 246.935 190.221 246.681C190.368 246.426 190.572 246.21 190.818 246.049Z" fill="#EBEBEB"/>
<path d="M224.713 238.075V239.618C224.713 240.366 225.244 240.68 225.893 240.297L245.717 228.851C246.062 228.629 246.35 228.327 246.555 227.971C246.76 227.616 246.878 227.216 246.897 226.806V225.272C246.897 224.514 246.376 224.21 245.717 224.583L225.893 236.029C225.55 236.254 225.265 236.557 225.06 236.912C224.855 237.267 224.736 237.665 224.713 238.075Z" fill="#E0E0E0"/>
<path d="M225.228 204.296L245.78 192.427C246.763 191.886 247.491 192.329 247.491 193.41V217.148C247.459 217.74 247.287 218.316 246.989 218.828C246.692 219.341 246.277 219.776 245.78 220.098L225.228 231.967C224.245 232.518 223.517 232.075 223.517 230.984V207.246C223.552 206.655 223.724 206.08 224.022 205.567C224.319 205.055 224.732 204.62 225.228 204.296Z" fill="#FAFAFA"/>
<path d="M224.432 232.695C224.191 232.697 223.953 232.636 223.743 232.518C223.495 232.351 223.295 232.121 223.164 231.852C223.032 231.582 222.975 231.283 222.996 230.984V207.247C223.031 206.568 223.228 205.908 223.57 205.321C223.912 204.735 224.39 204.238 224.963 203.874L245.505 191.966C245.743 191.779 246.033 191.668 246.335 191.646C246.637 191.625 246.939 191.694 247.202 191.845C247.465 191.996 247.677 192.222 247.81 192.494C247.944 192.766 247.994 193.071 247.953 193.372V217.109C247.921 217.788 247.726 218.45 247.383 219.037C247.041 219.624 246.562 220.12 245.986 220.482L225.435 232.361C225.135 232.558 224.79 232.673 224.432 232.695ZM246.517 192.693C246.331 192.698 246.151 192.756 245.996 192.86L225.445 204.749C225.022 205.026 224.669 205.398 224.415 205.834C224.16 206.271 224.011 206.762 223.979 207.266V231.004C223.962 231.129 223.976 231.257 224.021 231.376C224.065 231.494 224.139 231.6 224.235 231.682C224.355 231.722 224.483 231.732 224.608 231.711C224.733 231.691 224.852 231.64 224.953 231.564L245.505 219.696C245.928 219.416 246.28 219.043 246.535 218.604C246.789 218.166 246.938 217.674 246.97 217.168V193.411C246.985 193.286 246.969 193.159 246.925 193.041C246.88 192.922 246.808 192.817 246.714 192.733C246.652 192.705 246.585 192.691 246.517 192.693Z" fill="#EBEBEB"/>
<path d="M248.183 195.633L243.601 198.278C243.107 198.604 242.696 199.04 242.401 199.552C242.106 200.064 241.934 200.638 241.9 201.228V206.519C241.9 207.61 242.667 208.053 243.601 207.502L248.183 204.857C248.681 204.535 249.096 204.1 249.393 203.587C249.69 203.074 249.862 202.499 249.894 201.907V196.617C249.894 195.535 249.127 195.092 248.183 195.633Z" fill="#003366"/>
<path d="M226.763 206.864L237.059 200.964C237.531 200.698 237.914 200.914 237.914 201.465V201.799C237.897 202.095 237.811 202.383 237.662 202.639C237.514 202.895 237.307 203.113 237.059 203.274L226.763 209.174C226.291 209.44 225.908 209.224 225.908 208.673V208.339C225.925 208.043 226.011 207.755 226.159 207.499C226.308 207.243 226.515 207.025 226.763 206.864Z" fill="#EBEBEB"/>
<path d="M226.763 211.476L237.059 205.576C237.531 205.3 237.914 205.526 237.914 206.067V206.392C237.9 206.688 237.814 206.977 237.666 207.233C237.517 207.49 237.309 207.707 237.059 207.867L226.763 213.767C226.291 214.042 225.908 213.816 225.908 213.275V212.931C225.925 212.638 226.012 212.353 226.161 212.101C226.309 211.848 226.516 211.633 226.763 211.476Z" fill="#EBEBEB"/>
<path d="M226.763 216.078L237.059 210.178C237.531 209.912 237.914 210.129 237.914 210.669V211.004C237.897 211.299 237.811 211.587 237.662 211.843C237.514 212.1 237.307 212.317 237.059 212.479L226.763 218.379C226.291 218.654 225.908 218.438 225.908 217.887V217.533C225.928 217.241 226.015 216.957 226.164 216.704C226.312 216.452 226.517 216.237 226.763 216.078Z" fill="#EBEBEB"/>
<path d="M226.763 220.679L243.873 210.846C244.345 210.58 244.729 210.797 244.729 211.337V211.632C244.712 211.928 244.626 212.216 244.477 212.472C244.328 212.728 244.122 212.946 243.873 213.107L226.763 222.941C226.291 223.206 225.908 222.99 225.908 222.449V222.105C225.932 221.818 226.022 221.54 226.17 221.293C226.318 221.046 226.521 220.836 226.763 220.679Z" fill="#EBEBEB"/>
<path d="M226.763 225.291L243.873 215.457C244.345 215.182 244.729 215.408 244.729 215.949V216.274C244.713 216.569 244.627 216.857 244.478 217.114C244.329 217.37 244.122 217.588 243.873 217.749L226.763 227.582C226.291 227.857 225.908 227.582 225.908 227.09V226.756C225.924 226.461 226.01 226.175 226.158 225.92C226.307 225.665 226.515 225.45 226.763 225.291Z" fill="#EBEBEB"/>
<path d="M131.631 131.894L127.639 129.563V148.021L131.631 150.332V131.894Z" fill="#003366"/>
<path opacity="0.1" d="M131.631 131.894L127.639 129.563V148.021L131.631 150.332V131.894Z" fill="black"/>
<path d="M367.56 208.161C367.106 207.955 366.605 207.872 366.108 207.921C365.611 207.969 365.135 208.147 364.728 208.437C363.568 209.191 362.601 210.206 361.904 211.401C361.207 212.597 360.801 213.939 360.716 215.32C360.664 215.817 360.743 216.318 360.947 216.774C361.151 217.23 361.472 217.624 361.877 217.916L411.653 249.383C412.637 250.071 414.121 250.032 415.744 249.098C417.374 248.042 418.733 246.616 419.708 244.937C420.684 243.257 421.25 241.371 421.359 239.431C421.359 237.563 420.67 236.275 419.569 235.734L367.56 208.161Z" fill="#003366"/>
<path opacity="0.15" d="M360.716 215.359C360.716 217.906 362.496 218.948 364.709 217.68C365.869 216.926 366.836 215.911 367.533 214.715C368.23 213.52 368.637 212.178 368.721 210.796C368.721 208.25 366.941 207.207 364.728 208.476C363.568 209.23 362.601 210.245 361.904 211.44C361.207 212.636 360.8 213.978 360.716 215.359Z" fill="black"/>
<path d="M349.694 201.544C348.988 202.002 348.399 202.62 347.977 203.348C347.555 204.076 347.311 204.893 347.265 205.734C347.234 206.032 347.282 206.334 347.405 206.609C347.527 206.883 347.72 207.121 347.963 207.297L362.989 216.019C363.261 216.146 363.563 216.197 363.862 216.168C364.161 216.138 364.447 216.029 364.69 215.852C365.404 215.395 365.997 214.773 366.422 214.039C366.846 213.305 367.088 212.48 367.128 211.634C367.164 211.333 367.117 211.028 366.994 210.751C366.872 210.475 366.677 210.236 366.43 210.06L351.405 201.338C351.127 201.217 350.822 201.172 350.521 201.209C350.221 201.245 349.935 201.361 349.694 201.544Z" fill="#263238"/>
<path opacity="0.1" d="M366.58 216.048L417.792 247.515C417.185 248.144 416.497 248.69 415.746 249.137C414.124 250.071 412.669 250.12 411.646 249.422L361.879 217.956C362.332 218.165 362.832 218.25 363.328 218.201C363.824 218.153 364.298 217.973 364.702 217.68C365.417 217.248 366.052 216.696 366.58 216.048Z" fill="black"/>
<path d="M375.172 171.246C375.172 170.824 375.172 170.42 375.113 170.007C375.054 169.594 375.064 169.191 375.015 168.788C374.966 168.385 374.966 168.257 374.936 167.992C374.867 167.284 374.759 166.595 374.651 165.936C374.592 165.641 374.543 165.327 374.484 165.032C374.425 164.737 374.366 164.471 374.307 164.186C374.13 163.429 373.953 162.682 373.736 161.974C373.618 161.639 373.52 161.295 373.402 160.99C373.383 160.939 373.366 160.886 373.353 160.833C373.225 160.499 373.117 160.184 372.989 159.85C372.856 159.488 372.705 159.134 372.537 158.788C372.429 158.529 372.308 158.276 372.173 158.03C372.102 157.845 372.014 157.667 371.907 157.499C371.809 157.283 371.691 157.067 371.573 156.86L371.485 156.713C371.386 156.526 371.268 156.349 371.16 156.162C371.052 155.975 371.003 155.926 370.934 155.808C370.404 154.978 369.812 154.189 369.164 153.448C369.046 153.33 368.938 153.202 368.83 153.084C368.721 152.966 368.643 152.888 368.554 152.789L368.19 152.435C367.855 152.084 367.497 151.755 367.119 151.452C366.947 151.3 366.766 151.159 366.578 151.029C366.391 150.882 366.204 150.744 366.007 150.616C365.715 150.398 365.409 150.198 365.093 150.016L364.847 149.859H364.798L353.981 143.575L353.903 143.526C351.103 141.965 347.943 141.165 344.738 141.206C339.959 141.206 334.57 142.779 328.857 146.073C309.19 157.401 293.319 184.954 293.319 207.63C293.319 218.928 297.253 226.874 303.664 230.6H303.723L314.54 236.874H314.599L314.776 236.972C315.061 237.13 315.336 237.277 315.621 237.415C315.907 237.553 316.329 237.739 316.693 237.887C317.057 238.034 317.342 238.143 317.677 238.241C317.849 238.307 318.027 238.36 318.208 238.398C318.389 238.472 318.576 238.528 318.768 238.565L319.348 238.713C319.487 238.752 319.628 238.781 319.771 238.801L320.538 238.939H320.715L321.639 239.057C326.94 239.618 333.095 238.123 339.684 234.327C359.35 222.989 375.221 195.427 375.221 172.771C375.202 172.299 375.192 171.787 375.172 171.246ZM351.366 155.218C352.135 158.037 352.512 160.949 352.487 163.871C352.487 183.863 337.855 209.193 320.548 219.184C318.021 220.688 315.293 221.824 312.445 222.557C311.675 219.734 311.298 216.819 311.324 213.894C311.324 193.902 325.946 168.572 343.263 158.581C345.789 157.078 348.518 155.945 351.366 155.218Z" fill="#003366"/>
<path opacity="0.1" d="M314.024 236.629L303.601 230.591C297.209 226.854 293.256 218.899 293.256 207.62C293.256 197.512 296.422 186.439 301.663 176.262L312.48 182.545C307.229 192.713 304.063 203.795 304.063 213.904C304.102 224.956 307.829 232.794 314.024 236.629Z" fill="black"/>
<path opacity="0.4" d="M375.176 171.246C375.176 170.824 375.176 170.42 375.117 170.007C375.058 169.594 375.068 169.191 375.018 168.788C374.969 168.385 374.969 168.257 374.94 167.992C374.871 167.284 374.763 166.595 374.655 165.936C374.596 165.641 374.546 165.327 374.487 165.032C374.428 164.737 374.369 164.471 374.31 164.186C374.133 163.429 373.956 162.682 373.74 161.974C373.622 161.639 373.524 161.295 373.406 160.99C373.386 160.939 373.37 160.886 373.357 160.833C373.229 160.499 373.121 160.184 372.993 159.85C372.86 159.488 372.709 159.134 372.54 158.788C372.433 158.529 372.312 158.276 372.177 158.03C372.106 157.845 372.017 157.667 371.911 157.499C371.813 157.283 371.695 157.067 371.577 156.86L371.488 156.713C371.39 156.526 371.272 156.349 371.164 156.162C371.056 155.975 371.006 155.926 370.938 155.808C370.408 154.978 369.816 154.189 369.168 153.448C369.05 153.33 368.941 153.202 368.833 153.084C368.725 152.966 368.646 152.888 368.558 152.789L368.194 152.435C367.859 152.084 367.501 151.756 367.122 151.452C366.951 151.3 366.77 151.159 366.581 151.029C366.395 150.882 366.208 150.744 366.011 150.616C365.719 150.398 365.413 150.198 365.097 150.016C358.646 146.083 349.363 146.181 339.668 152.307C320.188 164.579 304.218 191.788 304.12 213.864C304.071 225.35 308.191 233.364 314.77 237.012C315.055 237.169 315.33 237.317 315.615 237.454C315.9 237.592 316.323 237.779 316.687 237.926C317.051 238.074 317.336 238.182 317.67 238.28C317.843 238.346 318.021 238.399 318.201 238.438C318.382 238.511 318.57 238.567 318.762 238.605L319.342 238.752C319.481 238.791 319.622 238.821 319.765 238.841L320.532 238.979H320.709L321.633 239.097C326.933 239.657 333.089 238.162 339.677 234.367C359.344 223.029 375.215 195.466 375.215 172.81C375.205 172.299 375.195 171.787 375.176 171.246ZM336.059 228.182C331.653 230.728 327.415 232.066 323.787 232.066C316.982 232.066 313.855 227.424 312.449 222.557C311.679 219.734 311.302 216.819 311.328 213.894C311.328 193.903 325.95 168.572 343.267 158.581C345.793 157.078 348.521 155.945 351.369 155.218C352.734 154.884 354.133 154.709 355.539 154.697C366.788 154.697 367.988 167.402 367.988 172.869C367.988 192.86 353.375 218.191 336.059 228.182Z" fill="white"/>
<path opacity="0.1" d="M367.98 172.869C367.98 192.851 353.367 218.191 336.051 228.182C331.645 230.729 327.407 232.066 323.789 232.066C322.207 232.129 320.631 231.832 319.182 231.197C317.732 230.561 316.446 229.604 315.42 228.398C315.243 228.192 315.076 227.975 314.909 227.759C314.742 227.543 314.585 227.316 314.447 227.08C314.336 226.919 314.234 226.752 314.142 226.579C314.073 226.471 314.004 226.363 313.945 226.254C313.886 226.146 313.808 225.979 313.729 225.841C313.65 225.704 313.601 225.586 313.542 225.458C313.483 225.33 313.414 225.202 313.355 225.065L313.06 224.357C312.942 224.062 312.834 223.767 312.736 223.462C312.637 223.157 312.529 222.862 312.451 222.557C315.298 221.824 318.027 220.689 320.553 219.184C337.86 209.194 352.492 183.863 352.492 163.872C352.518 160.95 352.14 158.038 351.371 155.218C352.736 154.884 354.135 154.709 355.54 154.697C356.089 154.699 356.637 154.732 357.183 154.796L357.694 154.874C366.927 156.408 367.98 167.776 367.98 172.869Z" fill="black"/>
<path opacity="0.7" d="M361.775 169.35C361.775 189.341 347.162 214.672 329.846 224.662C325.441 227.209 321.202 228.596 317.574 228.596C316.852 228.599 316.132 228.539 315.42 228.419C315.243 228.212 315.076 227.996 314.909 227.78C314.742 227.563 314.585 227.337 314.447 227.101C314.336 226.94 314.234 226.772 314.142 226.6C314.073 226.491 314.004 226.383 313.945 226.275C313.886 226.167 313.808 226 313.729 225.862C313.65 225.724 313.601 225.606 313.542 225.478C313.483 225.351 313.414 225.223 313.355 225.085L313.06 224.377C312.942 224.082 312.834 223.787 312.736 223.482C312.638 223.177 312.529 222.883 312.451 222.578C315.298 221.845 318.027 220.709 320.553 219.205C337.86 209.214 352.492 183.883 352.492 163.892C352.518 160.97 352.14 158.058 351.371 155.239C352.736 154.905 354.135 154.73 355.54 154.718C356.089 154.72 356.637 154.752 357.183 154.816L357.694 154.895C361.254 159.064 361.775 165.78 361.775 169.35Z" fill="white"/>
</svg>
