<svg width="24" height="24" viewBox="0 0 24 24" fill="none" xmlns="http://www.w3.org/2000/svg">
<path fill-rule="evenodd" clip-rule="evenodd" d="M2.469 6.96936C2.53867 6.89952 2.62143 6.8441 2.71255 6.80629C2.80367 6.76849 2.90135 6.74902 3 6.74902C3.09865 6.74902 3.19633 6.76849 3.28745 6.80629C3.37857 6.8441 3.46133 6.89952 3.531 6.96936L12 15.4399L20.469 6.96936C20.5387 6.89963 20.6215 6.84432 20.7126 6.80658C20.8037 6.76884 20.9014 6.74942 21 6.74942C21.0986 6.74942 21.1963 6.76884 21.2874 6.80658C21.3785 6.84432 21.4613 6.89963 21.531 6.96936C21.6007 7.0391 21.656 7.12188 21.6938 7.21299C21.7315 7.3041 21.7509 7.40175 21.7509 7.50036C21.7509 7.59898 21.7315 7.69663 21.6938 7.78774C21.656 7.87885 21.6007 7.96163 21.531 8.03136L12.531 17.0314C12.4613 17.1012 12.3786 17.1566 12.2874 17.1944C12.1963 17.2322 12.0986 17.2517 12 17.2517C11.9013 17.2517 11.8037 17.2322 11.7125 17.1944C11.6214 17.1566 11.5387 17.1012 11.469 17.0314L2.469 8.03136C2.39915 7.9617 2.34374 7.87893 2.30593 7.78781C2.26812 7.6967 2.24866 7.59901 2.24866 7.50036C2.24866 7.40171 2.26812 7.30403 2.30593 7.21291C2.34374 7.1218 2.39915 7.03903 2.469 6.96936Z" fill="#003366"/>
</svg>
