<svg width="24" height="17" viewBox="0 0 24 17" fill="none" xmlns="http://www.w3.org/2000/svg">
<path d="M15.5114 8.12385C15.5114 9.10334 15.1223 10.0427 14.4297 10.7353C13.7371 11.4279 12.7977 11.817 11.8182 11.817C10.8387 11.817 9.89931 11.4279 9.20671 10.7353C8.5141 10.0427 8.125 9.10334 8.125 8.12385C8.125 7.14435 8.5141 6.20498 9.20671 5.51237C9.89931 4.81977 10.8387 4.43066 11.8182 4.43066C12.7977 4.43066 13.7371 4.81977 14.4297 5.51237C15.1223 6.20498 15.5114 7.14435 15.5114 8.12385Z" fill="white"/>
<path d="M0 8.125C0 8.125 4.43182 0 11.8182 0C19.2045 0 23.6364 8.125 23.6364 8.125C23.6364 8.125 19.2045 16.25 11.8182 16.25C4.43182 16.25 0 8.125 0 8.125ZM11.8182 13.2955C13.1895 13.2955 14.5046 12.7507 15.4742 11.7811C16.4439 10.8114 16.9886 9.49629 16.9886 8.125C16.9886 6.75371 16.4439 5.43859 15.4742 4.46894C14.5046 3.49929 13.1895 2.95455 11.8182 2.95455C10.4469 2.95455 9.13177 3.49929 8.16212 4.46894C7.19247 5.43859 6.64773 6.75371 6.64773 8.125C6.64773 9.49629 7.19247 10.8114 8.16212 11.7811C9.13177 12.7507 10.4469 13.2955 11.8182 13.2955Z" fill="white"/>
</svg>
