<svg width="36" height="36" viewBox="0 0 36 36" fill="none" xmlns="http://www.w3.org/2000/svg">
<path d="M19.9444 6.05376C18.7924 5.18976 17.2084 5.18976 16.0564 6.05376L6.69639 13.0738C5.88054 13.6856 5.40039 14.6459 5.40039 15.6657V27.3606C5.40039 29.1501 6.85099 30.6006 8.64039 30.6006H14.7604C15.3568 30.6006 15.8404 30.117 15.8404 29.5206V25.2006C15.8404 24.0077 16.8075 23.0406 18.0004 23.0406C19.1933 23.0406 20.1604 24.0077 20.1604 25.2006V29.5206C20.1604 30.117 20.6439 30.6006 21.2404 30.6006H27.3604C29.1497 30.6006 30.6004 29.1501 30.6004 27.3606V15.6657C30.6004 14.6459 30.1203 13.6856 29.3044 13.0738L19.9444 6.05376Z" fill="white"/>
</svg>
