<svg width="36" height="36" viewBox="0 0 36 36" fill="none" xmlns="http://www.w3.org/2000/svg">
<path d="M30.3538 18.0276C30.347 18.2946 30.2417 18.5596 30.0381 18.7633L21.4039 27.4036C20.9822 27.8255 20.2984 27.8258 19.8765 27.4042C19.4547 26.9826 19.4544 26.2989 19.876 25.8769L26.6734 19.0747H6.23236C5.63588 19.0747 5.15236 18.5911 5.15234 17.9947C5.15234 17.3982 5.63588 16.9147 6.23234 16.9147H26.6626L19.876 10.1237C19.4544 9.70181 19.4545 9.01799 19.8765 8.59636C20.2984 8.17472 20.9822 8.17494 21.4039 8.59684L29.9706 17.1691C30.2053 17.3671 30.3543 17.6635 30.3543 17.9947C30.3543 18.0057 30.3542 18.0167 30.3538 18.0276Z" fill="white"/>
</svg>
