<svg width="32" height="32" viewBox="0 0 32 32" fill="none" xmlns="http://www.w3.org/2000/svg">
<path d="M5.86666 28L14.2667 19.6C14.9333 20.1333 15.7 20.5556 16.5667 20.8667C17.4333 21.1778 18.3556 21.3333 19.3333 21.3333C21.7556 21.3333 23.8056 20.4944 25.4833 18.8167C27.1611 17.1389 28 15.0889 28 12.6667C28 10.2444 27.1611 8.19444 25.4833 6.51667C23.8056 4.83889 21.7556 4 19.3333 4C16.9111 4 14.8611 4.83889 13.1833 6.51667C11.5056 8.19444 10.6667 10.2444 10.6667 12.6667C10.6667 13.6444 10.8222 14.5667 11.1333 15.4333C11.4444 16.3 11.8667 17.0667 12.4 17.7333L4 26.1333L5.86666 28ZM19.3333 18.6667C17.6667 18.6667 16.25 18.0833 15.0833 16.9167C13.9167 15.75 13.3333 14.3333 13.3333 12.6667C13.3333 11 13.9167 9.58333 15.0833 8.41667C16.25 7.25 17.6667 6.66667 19.3333 6.66667C21 6.66667 22.4167 7.25 23.5833 8.41667C24.75 9.58333 25.3333 11 25.3333 12.6667C25.3333 14.3333 24.75 15.75 23.5833 16.9167C22.4167 18.0833 21 18.6667 19.3333 18.6667Z" fill="#003366" fill-opacity="0.5"/>
</svg>
